<svg width="20" height="20" viewBox="0 0 20 20" fill="none" xmlns="http://www.w3.org/2000/svg">
<path d="M16.8758 2.5H13.1258C12.96 2.5 12.8011 2.56585 12.6839 2.68306C12.5666 2.80027 12.5008 2.95924 12.5008 3.125C12.5008 3.29076 12.5666 3.44973 12.6839 3.56694C12.8011 3.68415 12.96 3.75 13.1258 3.75H15.3672L12.0805 7.03672C10.839 6.02193 9.255 5.5231 7.65606 5.64341C6.05713 5.76372 4.5656 6.49396 3.48995 7.68309C2.4143 8.87223 1.83682 10.4293 1.87696 12.0322C1.9171 13.6352 2.57177 15.1614 3.70558 16.2952C4.8394 17.429 6.36561 18.0837 7.96856 18.1238C9.57151 18.164 11.1286 17.5865 12.3177 16.5108C13.5068 15.4352 14.2371 13.9437 14.3574 12.3447C14.4777 10.7458 13.9789 9.16179 12.9641 7.92031L16.2508 4.63438V6.875C16.2508 7.04076 16.3166 7.19973 16.4339 7.31694C16.5511 7.43415 16.71 7.5 16.8758 7.5C17.0416 7.5 17.2005 7.43415 17.3177 7.31694C17.4349 7.19973 17.5008 7.04076 17.5008 6.875V3.125C17.5008 2.95924 17.4349 2.80027 17.3177 2.68306C17.2005 2.56585 17.0416 2.5 16.8758 2.5ZM11.6602 15.4133C10.9608 16.1123 10.0699 16.5883 9.10006 16.781C8.13021 16.9738 7.125 16.8746 6.2115 16.4961C5.298 16.1176 4.51724 15.4768 3.96793 14.6546C3.41862 13.8324 3.12543 12.8658 3.12543 11.877C3.12543 10.8881 3.41862 9.92153 3.96793 9.09934C4.51724 8.27714 5.298 7.63627 6.2115 7.25777C7.125 6.87927 8.13021 6.78012 9.10006 6.97286C10.0699 7.16561 10.9608 7.64159 11.6602 8.34063C12.5964 9.27939 13.1222 10.5511 13.1222 11.877C13.1222 13.2028 12.5964 14.4745 11.6602 15.4133Z" fill="#64717C"/>
</svg>
