<svg xmlns="http://www.w3.org/2000/svg" viewBox="0 0 24 24" fill="#E1306C" width="24" height="24">
  <path d="M12 2.2c3.2 0 3.584.012 4.849.07 1.366.062 2.633.324 3.608 1.299.975.975 1.237 2.242 1.299 3.608.058 1.265.07 1.649.07 4.849s-.012 3.584-.07 4.849c-.062 1.366-.324 2.633-1.299 3.608-.975.975-2.242 1.237-3.608 1.299-1.265.058-1.649.07-4.849.07s-3.584-.012-4.849-.07c-1.366-.062-2.633-.324-3.608-1.299-.975-.975-1.237-2.242-1.299-3.608C2.212 15.584 2.2 15.2 2.2 12s.012-3.584.07-4.849c.062-1.366.324-2.633 1.299-3.608.975-.975 2.242-1.237 3.608-1.299C8.416 2.212 8.8 2.2 12 2.2zm0-2.2C8.741 0 8.332.013 7.052.072 5.765.131 4.649.392 3.682 1.36 2.714 2.328 2.453 3.444 2.394 4.731.013 8.332 0 8.741 0 12s.013 3.668.072 4.948c.059 1.287.32 2.403 1.288 3.37.968.968 2.084 1.229 3.37 1.288C8.332 23.987 8.741 24 12 24s3.668-.013 4.948-.072c1.287-.059 2.403-.32 3.37-1.288.968-.968 1.229-2.084 1.288-3.37C23.987 15.668 24 15.259 24 12s-.013-3.668-.072-4.948c-.059-1.287-.32-2.403-1.288-3.37C21.672.392 20.556.131 19.269.072 17.988.013 17.579 0 14.32 0h-2.32z"></path>
  <path d="M12 5.838a6.162 6.162 0 1 0 0 12.324 6.162 6.162 0 0 0 0-12.324zm0 10.162a4 4 0 1 1 0-8 4 4 0 0 1 0 8z"></path>
  <circle cx="18.406" cy="5.594" r="1.44"></circle>
</svg>
