<svg width="20" height="20" viewBox="0 0 20 20" fill="none" xmlns="http://www.w3.org/2000/svg">
<path d="M10.7257 12.5582L8.60898 10.4665L8.63398 10.4415C10.0462 8.87273 11.1011 7.01609 11.7257 4.99984H14.1673V3.33317H8.33398V1.6665H6.66732V3.33317H0.833984V4.99984H10.1423C9.58398 6.59984 8.70065 8.12484 7.50065 9.45817C6.72565 8.59984 6.08398 7.65817 5.57565 6.6665H3.90898C4.51732 8.02484 5.35065 9.30817 6.39232 10.4665L2.15065 14.6498L3.33398 15.8332L7.50065 11.6665L10.0923 14.2582L10.7257 12.5582ZM15.4173 8.33317H13.7507L10.0007 18.3332H11.6673L12.6007 15.8332H16.559L17.5007 18.3332H19.1673L15.4173 8.33317ZM13.234 14.1665L14.584 10.5582L15.934 14.1665H13.234Z" fill="#64717C"/>
</svg>
