<svg width="353" height="252" viewBox="0 0 353 252" fill="none" xmlns="http://www.w3.org/2000/svg">
<path d="M84.8852 41.8176C84.5307 41.8176 84.2445 41.5315 84.2445 41.177V41.1058C84.2445 40.7513 84.5307 40.4652 84.8852 40.4652C85.2397 40.4652 85.5258 40.7513 85.5258 41.1058V41.177C85.5258 41.5315 85.2397 41.8176 84.8852 41.8176Z" fill="#612E86"/>
<path d="M84.8852 38.8404C84.5307 38.8404 84.2445 38.5542 84.2445 38.1997V38.0545C84.2445 37.7 84.5307 37.4139 84.8852 37.4139C85.2397 37.4139 85.5258 37.7 85.5258 38.0545V38.1997C85.5258 38.5542 85.2397 38.8404 84.8852 38.8404ZM84.8852 35.7909C84.5307 35.7909 84.2445 35.5048 84.2445 35.1503V35.0051C84.2445 34.6506 84.5307 34.3644 84.8852 34.3644C85.2397 34.3644 85.5258 34.6506 85.5258 35.0051V35.1503C85.5258 35.5048 85.2397 35.7909 84.8852 35.7909Z" fill="#612E86"/>
<path d="M224.882 48.569C224.528 48.569 224.241 48.2829 224.241 47.9284V47.7832C224.241 47.4287 224.528 47.1425 224.882 47.1425C225.237 47.1425 225.523 47.4287 225.523 47.7832V47.9284C225.523 48.2829 225.237 48.569 224.882 48.569ZM224.882 45.5196C224.528 45.5196 224.241 45.2334 224.241 44.8789V44.7337C224.241 44.3792 224.528 44.0931 224.882 44.0931C225.237 44.0931 225.523 44.3792 225.523 44.7337V44.8789C225.523 45.2334 225.237 45.5196 224.882 45.5196ZM224.882 42.4716C224.528 42.4716 224.241 42.1854 224.241 41.8309V41.6857C224.241 41.3312 224.528 41.0451 224.882 41.0451C225.237 41.0451 225.523 41.3312 225.523 41.6857V41.8309C225.523 42.1854 225.237 42.4716 224.882 42.4716ZM224.882 39.4221C224.528 39.4221 224.241 39.136 224.241 38.7815V38.6363C224.241 38.2818 224.528 37.9956 224.882 37.9956C225.237 37.9956 225.523 38.2818 225.523 38.6363V38.7815C225.523 39.136 225.237 39.4221 224.882 39.4221ZM224.882 36.3727C224.528 36.3727 224.241 36.0865 224.241 35.732V35.5868C224.241 35.2323 224.528 34.9462 224.882 34.9462C225.237 34.9462 225.523 35.2323 225.523 35.5868V35.732C225.523 36.0865 225.237 36.3727 224.882 36.3727ZM224.882 33.3232C224.528 33.3232 224.241 33.0371 224.241 32.6826V32.5374C224.241 32.1829 224.528 31.8967 224.882 31.8967C225.237 31.8967 225.523 32.1829 225.523 32.5374V32.6826C225.523 33.0371 225.237 33.3232 224.882 33.3232ZM84.8852 32.7424C84.5307 32.7424 84.2445 32.4562 84.2445 32.1017V31.9565C84.2445 31.602 84.5307 31.3159 84.8852 31.3159C85.2397 31.3159 85.5258 31.602 85.5258 31.9565V32.1017C85.5258 32.4562 85.2397 32.7424 84.8852 32.7424ZM224.882 30.2738C224.528 30.2738 224.241 29.9876 224.241 29.6331V29.4879C224.241 29.1334 224.528 28.8473 224.882 28.8473C225.237 28.8473 225.523 29.1334 225.523 29.4879V29.6331C225.523 29.9876 225.237 30.2738 224.882 30.2738ZM84.8852 29.6943C84.5307 29.6943 84.2445 29.4082 84.2445 29.0537V28.9085C84.2445 28.554 84.5307 28.2679 84.8852 28.2679C85.2397 28.2679 85.5258 28.554 85.5258 28.9085V29.0537C85.5258 29.4082 85.2397 29.6943 84.8852 29.6943ZM224.882 27.2243C224.528 27.2243 224.241 26.9382 224.241 26.5837V26.4385C224.241 26.084 224.528 25.7978 224.882 25.7978C225.237 25.7978 225.523 26.084 225.523 26.4385V26.5837C225.523 26.9382 225.237 27.2243 224.882 27.2243ZM84.8866 26.6449C84.8866 26.6449 84.8781 26.6449 84.8738 26.6449C84.5207 26.6378 84.2389 26.3459 84.246 25.9914C84.246 25.9402 84.2488 25.8889 84.2502 25.8377C84.2616 25.4846 84.5592 25.207 84.9122 25.2184C85.2653 25.2298 85.5429 25.5259 85.5315 25.8804C85.5301 25.926 85.5287 25.9715 85.5273 26.0171C85.5201 26.3659 85.2354 26.6449 84.8866 26.6449ZM224.556 24.2034C224.269 24.2034 224.008 24.0083 223.935 23.7165C223.924 23.6723 223.913 23.6296 223.901 23.5855C223.81 23.2438 224.014 22.8922 224.357 22.8025C224.698 22.7128 225.05 22.915 225.14 23.258C225.153 23.3079 225.165 23.3577 225.178 23.4075C225.264 23.7506 225.054 24.098 224.711 24.1834C224.66 24.1962 224.607 24.2019 224.556 24.2019V24.2034ZM85.3664 23.6453C85.3037 23.6453 85.2411 23.6367 85.177 23.6168C84.8382 23.5129 84.6489 23.1541 84.7528 22.8167C84.7684 22.7669 84.7841 22.7185 84.7998 22.6687C84.9094 22.3327 85.2696 22.1476 85.607 22.2558C85.9429 22.3654 86.128 22.7256 86.0198 23.063C86.0056 23.1057 85.9928 23.1499 85.9785 23.1926C85.8931 23.4673 85.6397 23.6453 85.3664 23.6453ZM223.413 21.3888C223.192 21.3888 222.977 21.2749 222.858 21.0685C222.835 21.03 222.812 20.9902 222.789 20.9517C222.607 20.6485 222.707 20.2542 223.01 20.0734C223.313 19.8911 223.708 19.9908 223.888 20.294C223.915 20.3382 223.941 20.3823 223.967 20.4264C224.145 20.7325 224.039 21.124 223.733 21.302C223.632 21.3603 223.521 21.3888 223.413 21.3888ZM86.6605 20.8948C86.5395 20.8948 86.4185 20.8606 86.3103 20.7894C86.0141 20.5958 85.9316 20.1986 86.1252 19.9025C86.1537 19.8598 86.1821 19.8171 86.2106 19.7744C86.4085 19.4811 86.8057 19.4028 87.1004 19.6007C87.3936 19.7986 87.472 20.1958 87.2741 20.4905C87.2484 20.5289 87.2228 20.5674 87.1986 20.6044C87.0762 20.7923 86.8712 20.8934 86.6619 20.8934L86.6605 20.8948ZM221.535 18.9999C221.376 18.9999 221.215 18.9401 221.091 18.8206C221.058 18.7892 221.025 18.7579 220.993 18.7266C220.735 18.4846 220.721 18.0788 220.963 17.8211C221.205 17.5635 221.611 17.5492 221.868 17.7913C221.905 17.8268 221.944 17.8624 221.981 17.898C222.236 18.1429 222.243 18.5486 221.998 18.8035C221.873 18.9344 221.705 18.9999 221.537 18.9999H221.535ZM88.6621 18.607C88.4827 18.607 88.3034 18.5315 88.1767 18.3849C87.9446 18.1173 87.9745 17.713 88.2421 17.4809C88.2806 17.4467 88.3204 17.414 88.3589 17.3812C88.6294 17.1535 89.0337 17.189 89.2615 17.4595C89.4893 17.73 89.4537 18.1344 89.1832 18.3621C89.149 18.392 89.1134 18.4205 89.0792 18.4504C88.9582 18.5558 88.8088 18.607 88.6607 18.607H88.6621ZM219.072 17.2175C218.971 17.2175 218.869 17.1933 218.772 17.1421C218.732 17.1207 218.692 17.0994 218.652 17.0794C218.338 16.9186 218.212 16.5328 218.373 16.2167C218.534 15.9021 218.92 15.7768 219.236 15.9377C219.282 15.9619 219.328 15.9846 219.374 16.0089C219.686 16.1754 219.805 16.5626 219.639 16.8744C219.524 17.0908 219.301 17.2147 219.072 17.2147V17.2175ZM91.2147 16.9598C90.9727 16.9598 90.7406 16.8218 90.6324 16.5883C90.4844 16.2665 90.6239 15.8864 90.9442 15.7384C90.9912 15.717 91.0368 15.6956 91.0837 15.6743C91.4069 15.5305 91.7856 15.6743 91.9294 15.9975C92.0732 16.3206 91.9294 16.6993 91.6062 16.8431C91.5649 16.8616 91.5236 16.8801 91.4824 16.9001C91.3955 16.9399 91.3044 16.9598 91.2133 16.9598H91.2147ZM216.215 16.1868C216.172 16.1868 216.128 16.1825 216.084 16.1726C216.04 16.164 215.994 16.1541 215.95 16.1455C215.603 16.0786 215.376 15.7412 215.443 15.3938C215.51 15.0465 215.848 14.8201 216.195 14.887C216.245 14.897 216.296 14.9069 216.346 14.9169C216.692 14.9895 216.915 15.3283 216.843 15.6743C216.78 15.9761 216.514 16.184 216.216 16.184L216.215 16.1868ZM94.1218 16.0829C93.8114 16.0829 93.5381 15.8565 93.4897 15.539C93.4356 15.1888 93.6762 14.8628 94.0264 14.8087C94.0762 14.8016 94.1275 14.7931 94.1773 14.7859C94.529 14.7361 94.8521 14.981 94.9005 15.3312C94.9504 15.6814 94.7055 16.006 94.3553 16.0544C94.3097 16.0601 94.2642 16.0672 94.2186 16.0743C94.1859 16.08 94.1531 16.0815 94.1204 16.0815L94.1218 16.0829ZM213.181 15.9562H213.036C212.682 15.9562 212.395 15.67 212.395 15.3155C212.395 14.961 212.682 14.6749 213.036 14.6749H213.181C213.536 14.6749 213.822 14.961 213.822 15.3155C213.822 15.67 213.536 15.9562 213.181 15.9562ZM210.133 15.9562H209.988C209.633 15.9562 209.347 15.67 209.347 15.3155C209.347 14.961 209.633 14.6749 209.988 14.6749H210.133C210.488 14.6749 210.774 14.961 210.774 15.3155C210.774 15.67 210.488 15.9562 210.133 15.9562ZM207.084 15.9562H206.939C206.584 15.9562 206.298 15.67 206.298 15.3155C206.298 14.961 206.584 14.6749 206.939 14.6749H207.084C207.438 14.6749 207.724 14.961 207.724 15.3155C207.724 15.67 207.438 15.9562 207.084 15.9562ZM204.034 15.9562H203.889C203.535 15.9562 203.248 15.67 203.248 15.3155C203.248 14.961 203.535 14.6749 203.889 14.6749H204.034C204.389 14.6749 204.675 14.961 204.675 15.3155C204.675 15.67 204.389 15.9562 204.034 15.9562ZM200.985 15.9562H200.84C200.485 15.9562 200.199 15.67 200.199 15.3155C200.199 14.961 200.485 14.6749 200.84 14.6749H200.985C201.339 14.6749 201.625 14.961 201.625 15.3155C201.625 15.67 201.339 15.9562 200.985 15.9562ZM197.935 15.9562H197.79C197.436 15.9562 197.15 15.67 197.15 15.3155C197.15 14.961 197.436 14.6749 197.79 14.6749H197.935C198.29 14.6749 198.576 14.961 198.576 15.3155C198.576 15.67 198.29 15.9562 197.935 15.9562ZM194.886 15.9562H194.741C194.386 15.9562 194.1 15.67 194.1 15.3155C194.1 14.961 194.386 14.6749 194.741 14.6749H194.886C195.24 14.6749 195.527 14.961 195.527 15.3155C195.527 15.67 195.24 15.9562 194.886 15.9562ZM191.836 15.9562H191.691C191.337 15.9562 191.051 15.67 191.051 15.3155C191.051 14.961 191.337 14.6749 191.691 14.6749H191.836C192.191 14.6749 192.477 14.961 192.477 15.3155C192.477 15.67 192.19 15.9562 191.836 15.9562ZM188.788 15.9562H188.643C188.289 15.9562 188.003 15.67 188.003 15.3155C188.003 14.961 188.289 14.6749 188.643 14.6749H188.788C189.143 14.6749 189.429 14.961 189.429 15.3155C189.429 15.67 189.143 15.9562 188.788 15.9562ZM185.739 15.9562H185.594C185.239 15.9562 184.953 15.67 184.953 15.3155C184.953 14.961 185.239 14.6749 185.594 14.6749H185.739C186.094 14.6749 186.38 14.961 186.38 15.3155C186.38 15.67 186.094 15.9562 185.739 15.9562ZM182.69 15.9562H182.544C182.19 15.9562 181.904 15.67 181.904 15.3155C181.904 14.961 182.19 14.6749 182.544 14.6749H182.69C183.044 14.6749 183.33 14.961 183.33 15.3155C183.33 15.67 183.044 15.9562 182.69 15.9562ZM179.64 15.9562H179.495C179.14 15.9562 178.854 15.67 178.854 15.3155C178.854 14.961 179.14 14.6749 179.495 14.6749H179.64C179.995 14.6749 180.281 14.961 180.281 15.3155C180.281 15.67 179.995 15.9562 179.64 15.9562ZM176.591 15.9562H176.445C176.091 15.9562 175.805 15.67 175.805 15.3155C175.805 14.961 176.091 14.6749 176.445 14.6749H176.591C176.945 14.6749 177.231 14.961 177.231 15.3155C177.231 15.67 176.945 15.9562 176.591 15.9562ZM173.541 15.9562H173.396C173.042 15.9562 172.755 15.67 172.755 15.3155C172.755 14.961 173.042 14.6749 173.396 14.6749H173.541C173.896 14.6749 174.182 14.961 174.182 15.3155C174.182 15.67 173.896 15.9562 173.541 15.9562ZM170.492 15.9562H170.347C169.992 15.9562 169.706 15.67 169.706 15.3155C169.706 14.961 169.992 14.6749 170.347 14.6749H170.492C170.846 14.6749 171.132 14.961 171.132 15.3155C171.132 15.67 170.846 15.9562 170.492 15.9562ZM167.444 15.9562H167.299C166.944 15.9562 166.658 15.67 166.658 15.3155C166.658 14.961 166.944 14.6749 167.299 14.6749H167.444C167.798 14.6749 168.084 14.961 168.084 15.3155C168.084 15.67 167.798 15.9562 167.444 15.9562ZM164.394 15.9562H164.249C163.895 15.9562 163.608 15.67 163.608 15.3155C163.608 14.961 163.895 14.6749 164.249 14.6749H164.394C164.749 14.6749 165.035 14.961 165.035 15.3155C165.035 15.67 164.749 15.9562 164.394 15.9562ZM161.345 15.9562H161.2C160.845 15.9562 160.559 15.67 160.559 15.3155C160.559 14.961 160.845 14.6749 161.2 14.6749H161.345C161.699 14.6749 161.986 14.961 161.986 15.3155C161.986 15.67 161.699 15.9562 161.345 15.9562ZM158.295 15.9562H158.15C157.796 15.9562 157.51 15.67 157.51 15.3155C157.51 14.961 157.796 14.6749 158.15 14.6749H158.295C158.65 14.6749 158.936 14.961 158.936 15.3155C158.936 15.67 158.65 15.9562 158.295 15.9562ZM155.246 15.9562H155.101C154.746 15.9562 154.46 15.67 154.46 15.3155C154.46 14.961 154.746 14.6749 155.101 14.6749H155.246C155.6 14.6749 155.887 14.961 155.887 15.3155C155.887 15.67 155.6 15.9562 155.246 15.9562ZM152.197 15.9562H152.051C151.697 15.9562 151.411 15.67 151.411 15.3155C151.411 14.961 151.697 14.6749 152.051 14.6749H152.197C152.551 14.6749 152.837 14.961 152.837 15.3155C152.837 15.67 152.551 15.9562 152.197 15.9562ZM149.147 15.9562H149.002C148.647 15.9562 148.361 15.67 148.361 15.3155C148.361 14.961 148.647 14.6749 149.002 14.6749H149.147C149.502 14.6749 149.788 14.961 149.788 15.3155C149.788 15.67 149.502 15.9562 149.147 15.9562ZM146.099 15.9562H145.954C145.599 15.9562 145.313 15.67 145.313 15.3155C145.313 14.961 145.599 14.6749 145.954 14.6749H146.099C146.454 14.6749 146.74 14.961 146.74 15.3155C146.74 15.67 146.454 15.9562 146.099 15.9562ZM143.05 15.9562H142.904C142.55 15.9562 142.264 15.67 142.264 15.3155C142.264 14.961 142.55 14.6749 142.904 14.6749H143.05C143.404 14.6749 143.69 14.961 143.69 15.3155C143.69 15.67 143.404 15.9562 143.05 15.9562ZM140 15.9562H139.855C139.5 15.9562 139.214 15.67 139.214 15.3155C139.214 14.961 139.5 14.6749 139.855 14.6749H140C140.355 14.6749 140.641 14.961 140.641 15.3155C140.641 15.67 140.355 15.9562 140 15.9562ZM136.951 15.9562H136.806C136.451 15.9562 136.165 15.67 136.165 15.3155C136.165 14.961 136.451 14.6749 136.806 14.6749H136.951C137.305 14.6749 137.591 14.961 137.591 15.3155C137.591 15.67 137.305 15.9562 136.951 15.9562ZM133.901 15.9562H133.756C133.402 15.9562 133.115 15.67 133.115 15.3155C133.115 14.961 133.402 14.6749 133.756 14.6749H133.901C134.256 14.6749 134.542 14.961 134.542 15.3155C134.542 15.67 134.256 15.9562 133.901 15.9562ZM130.852 15.9562H130.707C130.352 15.9562 130.066 15.67 130.066 15.3155C130.066 14.961 130.352 14.6749 130.707 14.6749H130.852C131.206 14.6749 131.492 14.961 131.492 15.3155C131.492 15.67 131.206 15.9562 130.852 15.9562ZM127.802 15.9562H127.657C127.303 15.9562 127.017 15.67 127.017 15.3155C127.017 14.961 127.303 14.6749 127.657 14.6749H127.802C128.157 14.6749 128.443 14.961 128.443 15.3155C128.443 15.67 128.157 15.9562 127.802 15.9562ZM124.754 15.9562H124.609C124.255 15.9562 123.969 15.67 123.969 15.3155C123.969 14.961 124.255 14.6749 124.609 14.6749H124.754C125.109 14.6749 125.395 14.961 125.395 15.3155C125.395 15.67 125.109 15.9562 124.754 15.9562ZM121.705 15.9562H121.56C121.205 15.9562 120.919 15.67 120.919 15.3155C120.919 14.961 121.205 14.6749 121.56 14.6749H121.705C122.059 14.6749 122.346 14.961 122.346 15.3155C122.346 15.67 122.059 15.9562 121.705 15.9562ZM118.655 15.9562H118.51C118.156 15.9562 117.87 15.67 117.87 15.3155C117.87 14.961 118.156 14.6749 118.51 14.6749H118.655C119.01 14.6749 119.296 14.961 119.296 15.3155C119.296 15.67 119.01 15.9562 118.655 15.9562ZM115.606 15.9562H115.461C115.106 15.9562 114.82 15.67 114.82 15.3155C114.82 14.961 115.106 14.6749 115.461 14.6749H115.606C115.961 14.6749 116.247 14.961 116.247 15.3155C116.247 15.67 115.961 15.9562 115.606 15.9562ZM112.557 15.9562H112.411C112.057 15.9562 111.771 15.67 111.771 15.3155C111.771 14.961 112.057 14.6749 112.411 14.6749H112.557C112.911 14.6749 113.197 14.961 113.197 15.3155C113.197 15.67 112.911 15.9562 112.557 15.9562ZM109.507 15.9562H109.362C109.007 15.9562 108.721 15.67 108.721 15.3155C108.721 14.961 109.007 14.6749 109.362 14.6749H109.507C109.862 14.6749 110.148 14.961 110.148 15.3155C110.148 15.67 109.862 15.9562 109.507 15.9562ZM106.458 15.9562H106.312C105.958 15.9562 105.672 15.67 105.672 15.3155C105.672 14.961 105.958 14.6749 106.312 14.6749H106.458C106.812 14.6749 107.098 14.961 107.098 15.3155C107.098 15.67 106.812 15.9562 106.458 15.9562ZM103.41 15.9562H103.264C102.91 15.9562 102.624 15.67 102.624 15.3155C102.624 14.961 102.91 14.6749 103.264 14.6749H103.41C103.764 14.6749 104.05 14.961 104.05 15.3155C104.05 15.67 103.764 15.9562 103.41 15.9562ZM100.36 15.9562H100.215C99.8605 15.9562 99.5743 15.67 99.5743 15.3155C99.5743 14.961 99.8605 14.6749 100.215 14.6749H100.36C100.715 14.6749 101.001 14.961 101.001 15.3155C101.001 15.67 100.715 15.9562 100.36 15.9562ZM97.3108 15.9562H97.1655C96.8111 15.9562 96.5249 15.67 96.5249 15.3155C96.5249 14.961 96.8111 14.6749 97.1655 14.6749H97.3108C97.6653 14.6749 97.9514 14.961 97.9514 15.3155C97.9514 15.67 97.6653 15.9562 97.3108 15.9562Z" fill="#612E86"/>
<path d="M224.882 51.557C224.528 51.557 224.242 51.2709 224.242 50.9164V50.8452C224.242 50.4907 224.528 50.2045 224.882 50.2045C225.237 50.2045 225.523 50.4907 225.523 50.8452V50.9164C225.523 51.2709 225.237 51.557 224.882 51.557Z" fill="#612E86"/>
<path d="M86.7629 41.1783C86.7629 42.2161 85.9216 43.0575 84.8837 43.0575C83.8459 43.0575 83.0045 42.2161 83.0045 41.1783C83.0045 40.1405 83.8459 39.2991 84.8837 39.2991C85.9216 39.2991 86.7629 40.1405 86.7629 41.1783Z" fill="#612E86"/>
<path d="M146.798 4.01586H165.34C170.466 4.01586 174.627 8.17718 174.627 13.3037V17.3269C174.627 22.4535 170.466 26.6148 165.34 26.6148H146.798C141.671 26.6148 137.51 22.4535 137.51 17.3269V13.3037C137.51 8.17718 141.671 4.01586 146.798 4.01586Z" fill="#FFACAC"/>
<path d="M147.544 25.0485V32.5995C147.544 33.2145 147.947 33.6074 148.283 33.3213L157.834 25.1496L147.544 25.0471V25.0485Z" fill="#FFACAC"/>
<path d="M167.644 9.90095H144.494C144.376 9.90095 144.281 9.80556 144.281 9.6874C144.281 9.56924 144.376 9.47385 144.494 9.47385H167.644C167.762 9.47385 167.858 9.56924 167.858 9.6874C167.858 9.80556 167.762 9.90095 167.644 9.90095Z" fill="white"/>
<path d="M167.644 13.7714H144.494C144.376 13.7714 144.281 13.676 144.281 13.5579C144.281 13.4397 144.376 13.3443 144.494 13.3443H167.644C167.762 13.3443 167.858 13.4397 167.858 13.5579C167.858 13.676 167.762 13.7714 167.644 13.7714Z" fill="white"/>
<path d="M167.644 17.6454H144.494C144.376 17.6454 144.281 17.55 144.281 17.4319C144.281 17.3137 144.376 17.2183 144.494 17.2183H167.644C167.762 17.2183 167.858 17.3137 167.858 17.4319C167.858 17.55 167.762 17.6454 167.644 17.6454Z" fill="white"/>
<path d="M151.64 21.263H144.494C144.376 21.263 144.281 21.1676 144.281 21.0494C144.281 20.9313 144.376 20.8359 144.494 20.8359H151.64C151.758 20.8359 151.853 20.9313 151.853 21.0494C151.853 21.1676 151.758 21.263 151.64 21.263Z" fill="white"/>
<path d="M171.383 43.8923H158.491C157.114 43.8923 155.998 45.0084 155.998 46.3851V56.9229C155.998 58.2996 157.114 59.4157 158.491 59.4157H171.383C172.76 59.4157 173.876 58.2996 173.876 56.9229V46.3851C173.876 45.0084 172.76 43.8923 171.383 43.8923Z" fill="#FA3F80"/>
<path d="M161.551 58.5558L163.957 61.9113C164.438 62.5819 165.436 62.5819 165.918 61.9113L168.297 58.5943L161.551 58.5572V58.5558Z" fill="#FA3F80"/>
<path d="M161.126 53.3374C160.012 53.3374 159.107 52.432 159.107 51.3187C159.107 50.2054 160.012 49.2999 161.126 49.2999C162.239 49.2999 163.144 50.2054 163.144 51.3187C163.144 51.7045 163.035 52.0803 162.827 52.4049C162.722 52.5701 162.501 52.6185 162.336 52.5131C162.171 52.4078 162.122 52.1871 162.228 52.022C162.361 51.8127 162.433 51.5692 162.433 51.3187C162.433 50.5983 161.846 50.0118 161.126 50.0118C160.405 50.0118 159.819 50.5983 159.819 51.3187C159.819 52.039 160.405 52.6256 161.126 52.6256C161.322 52.6256 161.482 52.785 161.482 52.9815C161.482 53.178 161.322 53.3374 161.126 53.3374Z" fill="#FFB6E4"/>
<path d="M168.748 53.3372C168.551 53.3372 168.392 53.1778 168.392 52.9813C168.392 52.7849 168.551 52.6254 168.748 52.6254C169.468 52.6254 170.055 52.0389 170.055 51.3185C170.055 50.5981 169.468 50.0116 168.748 50.0116C168.027 50.0116 167.441 50.5981 167.441 51.3185C167.441 51.5691 167.512 51.8111 167.646 52.0218C167.751 52.1869 167.703 52.4076 167.538 52.5129C167.373 52.6183 167.152 52.5699 167.047 52.4047C166.839 52.0802 166.729 51.7043 166.729 51.3185C166.729 50.2052 167.634 49.2998 168.748 49.2998C169.861 49.2998 170.767 50.2052 170.767 51.3185C170.767 52.4318 169.861 53.3372 168.748 53.3372Z" fill="#FFB6E4"/>
<path d="M164.958 55.4619C163.601 55.4619 162.679 54.7501 162.341 54.4411C162.196 54.3087 162.188 54.0824 162.32 53.9386C162.453 53.7934 162.679 53.7848 162.823 53.9172C163.1 54.1721 163.868 54.7686 164.995 54.7501C166.083 54.7373 166.825 54.1635 167.092 53.9172C167.237 53.7848 167.462 53.7934 167.595 53.9386C167.727 54.0838 167.719 54.3087 167.573 54.4411C167.244 54.743 166.336 55.4462 165.002 55.4619C164.987 55.4619 164.971 55.4619 164.957 55.4619H164.958Z" fill="#FFB6E4"/>
<path d="M30.6926 98.2077C30.3381 98.2077 30.052 97.9215 30.052 97.5671V97.4959C30.052 97.1414 30.3381 96.8552 30.6926 96.8552C31.0471 96.8552 31.3333 97.1414 31.3333 97.4959V97.5671C31.3333 97.9215 31.0471 98.2077 30.6926 98.2077Z" fill="#612E86"/>
<path d="M30.6926 95.4701C30.3381 95.4701 30.052 95.1839 30.052 94.8294V94.6956C30.052 94.3411 30.3381 94.055 30.6926 94.055C31.0471 94.055 31.3333 94.3411 31.3333 94.6956V94.8294C31.3333 95.1839 31.0471 95.4701 30.6926 95.4701ZM30.6926 92.6683C30.3381 92.6683 30.052 92.3822 30.052 92.0277V91.8939C30.052 91.5394 30.3381 91.2532 30.6926 91.2532C31.0471 91.2532 31.3333 91.5394 31.3333 91.8939V92.0277C31.3333 92.3822 31.0471 92.6683 30.6926 92.6683Z" fill="#612E86"/>
<path d="M30.6926 89.868C30.3381 89.868 30.052 89.5818 30.052 89.2273V89.0935C30.052 88.739 30.3381 88.4529 30.6926 88.4529C31.0471 88.4529 31.3333 88.739 31.3333 89.0935V89.2273C31.3333 89.5818 31.0471 89.868 30.6926 89.868ZM30.6926 87.0677C30.3381 87.0677 30.052 86.7815 30.052 86.427V86.2932C30.052 85.9387 30.3381 85.6526 30.6926 85.6526C31.0471 85.6526 31.3333 85.9387 31.3333 86.2932V86.427C31.3333 86.7815 31.0471 87.0677 30.6926 87.0677ZM30.6926 84.2659C30.3381 84.2659 30.052 83.9798 30.052 83.6253V83.4915C30.052 83.137 30.3381 82.8508 30.6926 82.8508C31.0471 82.8508 31.3333 83.137 31.3333 83.4915V83.6253C31.3333 83.9798 31.0471 84.2659 30.6926 84.2659ZM30.6926 81.4656C30.3381 81.4656 30.052 81.1795 30.052 80.825V80.6912C30.052 80.3367 30.3381 80.0505 30.6926 80.0505C31.0471 80.0505 31.3333 80.3367 31.3333 80.6912V80.825C31.3333 81.1795 31.0471 81.4656 30.6926 81.4656ZM30.6926 78.6639C30.3381 78.6639 30.052 78.3777 30.052 78.0232V77.8894C30.052 77.5349 30.3381 77.2488 30.6926 77.2488C31.0471 77.2488 31.3333 77.5349 31.3333 77.8894V78.0232C31.3333 78.3777 31.0471 78.6639 30.6926 78.6639ZM30.6926 75.8622C30.3381 75.8622 30.052 75.576 30.052 75.2215V75.0877C30.052 74.7332 30.3381 74.447 30.6926 74.447C31.0471 74.447 31.3333 74.7332 31.3333 75.0877V75.2215C31.3333 75.576 31.0471 75.8622 30.6926 75.8622ZM30.6926 73.0604C30.3381 73.0604 30.052 72.7743 30.052 72.4198V72.286C30.052 71.9315 30.3381 71.6453 30.6926 71.6453C31.0471 71.6453 31.3333 71.9315 31.3333 72.286V72.4198C31.3333 72.7743 31.0471 73.0604 30.6926 73.0604ZM30.7752 70.263C30.751 70.263 30.7254 70.2615 30.6997 70.2587C30.3481 70.2174 30.0961 69.8999 30.1374 69.5483C30.1431 69.5013 30.1488 69.4558 30.1545 69.4088C30.1986 69.0571 30.5189 68.8094 30.8706 68.855C31.2222 68.8991 31.4699 69.2208 31.4244 69.5711L31.4087 69.6963C31.3703 70.0224 31.0941 70.263 30.7738 70.263H30.7752ZM31.423 67.5452C31.3489 67.5452 31.2749 67.5324 31.2023 67.5054C30.8706 67.3829 30.6997 67.0142 30.8222 66.6825C30.8393 66.6384 30.8549 66.5942 30.872 66.5501C30.9987 66.2198 31.3689 66.0547 31.6991 66.18C32.0294 66.3067 32.1946 66.6768 32.0693 67.0071C32.0551 67.0455 32.0394 67.0854 32.0252 67.1252C31.9298 67.3843 31.6849 67.5452 31.4244 67.5452H31.423ZM32.69 65.0538C32.5676 65.0538 32.4437 65.0183 32.3341 64.9456C32.0394 64.7492 31.9611 64.352 32.1576 64.0573C32.1832 64.0189 32.2102 63.979 32.2359 63.9406C32.4352 63.6487 32.8338 63.5733 33.1256 63.774C33.4175 63.9733 33.4929 64.3719 33.2922 64.6638L33.221 64.7691C33.0972 64.9542 32.895 65.0538 32.6872 65.0538H32.69ZM34.5037 62.9269C34.3315 62.9269 34.1606 62.8586 34.0339 62.7219C33.7933 62.4628 33.8076 62.0571 34.0667 61.8165C34.1008 61.7837 34.1364 61.7524 34.1706 61.7211C34.4325 61.4833 34.8383 61.5033 35.076 61.7652C35.3138 62.0272 35.2938 62.4329 35.0319 62.6707C35.0006 62.6991 34.9707 62.7276 34.9394 62.7561C34.8155 62.8714 34.6589 62.9269 34.5037 62.9269ZM36.7588 61.2783C36.5353 61.2783 36.3174 61.1616 36.2007 60.9523C36.027 60.6448 36.1352 60.2533 36.4442 60.0796C36.484 60.0569 36.5253 60.0341 36.5666 60.0113C36.8769 59.8405 37.2656 59.9543 37.4364 60.2633C37.6073 60.5736 37.4934 60.9623 37.1844 61.1331L37.0748 61.1943C36.9752 61.2499 36.867 61.2769 36.7602 61.2769L36.7588 61.2783ZM39.3356 60.2021C39.0565 60.2021 38.8003 60.0184 38.7191 59.7365C38.6223 59.3963 38.8202 59.0418 39.1605 58.945C39.206 58.9322 39.2502 58.9194 39.2957 58.9065C39.636 58.814 39.989 59.0147 40.0816 59.3564C40.1741 59.6981 39.9734 60.0497 39.6317 60.1423C39.5918 60.1537 39.5505 60.165 39.5107 60.1764C39.4523 60.1935 39.3925 60.2006 39.3356 60.2006V60.2021ZM42.0946 59.7579C41.7529 59.7579 41.4696 59.4888 41.4554 59.1443C41.4397 58.7912 41.7145 58.4923 42.069 58.4766C42.116 58.4752 42.1615 58.4723 42.2085 58.4709C42.5616 58.4553 42.8577 58.7371 42.8691 59.0916C42.8804 59.4447 42.6028 59.7408 42.2484 59.7522L42.1231 59.7565C42.1145 59.7565 42.1046 59.7565 42.096 59.7565L42.0946 59.7579ZM53.4325 59.7479H53.2987C52.9442 59.7479 52.658 59.4618 52.658 59.1073C52.658 58.7528 52.9442 58.4666 53.2987 58.4666H53.4325C53.787 58.4666 54.0731 58.7528 54.0731 59.1073C54.0731 59.4618 53.787 59.7479 53.4325 59.7479ZM50.6308 59.7479H50.4969C50.1425 59.7479 49.8563 59.4618 49.8563 59.1073C49.8563 58.7528 50.1425 58.4666 50.4969 58.4666H50.6308C50.9853 58.4666 51.2714 58.7528 51.2714 59.1073C51.2714 59.4618 50.9853 59.7479 50.6308 59.7479ZM47.8305 59.7479H47.6966C47.3421 59.7479 47.056 59.4618 47.056 59.1073C47.056 58.7528 47.3421 58.4666 47.6966 58.4666H47.8305C48.1849 58.4666 48.4711 58.7528 48.4711 59.1073C48.4711 59.4618 48.1849 59.7479 47.8305 59.7479ZM45.0287 59.7479H44.8949C44.5404 59.7479 44.2543 59.4618 44.2543 59.1073C44.2543 58.7528 44.5404 58.4666 44.8949 58.4666H45.0287C45.3832 58.4666 45.6694 58.7528 45.6694 59.1073C45.6694 59.4618 45.3832 59.7479 45.0287 59.7479Z" fill="#612E86"/>
<path d="M56.1774 59.7479H56.1062C55.7517 59.7479 55.4656 59.4618 55.4656 59.1073C55.4656 58.7528 55.7517 58.4666 56.1062 58.4666H56.1774C56.5319 58.4666 56.818 58.7528 56.818 59.1073C56.818 59.4618 56.5319 59.7479 56.1774 59.7479Z" fill="#612E86"/>
<path d="M32.5719 97.5684C32.5719 98.6062 31.7305 99.4476 30.6927 99.4476C29.6549 99.4476 28.8135 98.6062 28.8135 97.5684C28.8135 96.5306 29.6549 95.6892 30.6927 95.6892C31.7305 95.6892 32.5719 96.5306 32.5719 97.5684Z" fill="#612E86"/>
<path d="M113.122 40.9688V65.3402C113.122 65.7858 112.635 66.146 112.033 66.146H57.735C57.1328 66.146 56.6459 65.7858 56.6459 65.3402V40.9688C56.6459 40.5261 57.1328 40.163 57.735 40.163H112.033C112.634 40.163 113.122 40.5261 113.122 40.9688Z" fill="#C1C5FF"/>
<path d="M109.792 64.0321V69.9943C109.792 70.5367 109.166 70.8385 108.741 70.5011L98.5794 64.0335H109.792V64.0321Z" fill="#C1C5FF"/>
<path d="M82.3128 53.1536C82.3128 55.5425 81.4757 57.7378 80.0776 59.4561C78.2454 61.7154 75.4465 63.1576 72.3088 63.1576C69.1711 63.1576 66.3722 61.7154 64.54 59.4561C63.142 57.7378 62.3049 55.5439 62.3049 53.1536C62.3049 47.627 66.7822 43.1497 72.3088 43.1497C77.8354 43.1497 82.3128 47.627 82.3128 53.1536Z" fill="#78CFFF"/>
<path d="M66.7223 57.4706C64.8531 55.2298 65.1933 53.1399 67.3573 51.6564C65.32 45.3127 71.3079 43.331 74.0142 45.2116C75.4422 46.2053 75.2585 47.2759 75.949 49.9495C76.6394 52.6245 74.0142 57.4692 74.0142 57.4692H66.7223V57.4706Z" fill="#0D2070"/>
<path d="M80.0776 59.4543C78.2453 61.7136 75.4465 63.1558 72.3087 63.1558C69.171 63.1558 66.3721 61.7136 64.5399 59.4543C64.977 58.4606 66.2867 56.4248 69.9711 55.2716V55.2688C70.2174 55.1933 70.4765 55.1193 70.747 55.051H73.8691C78.1471 56.1443 79.6092 58.3923 80.0762 59.4543H80.0776Z" fill="#93B746"/>
<path d="M73.8704 55.051H70.7483C70.4778 55.1193 70.2187 55.1933 69.9725 55.2688V55.2716C69.9767 55.3471 70.5746 57.4712 72.3101 57.4712C74.0455 57.4712 74.642 55.3471 74.6477 55.2716V55.2688C74.4014 55.1933 74.1423 55.1193 73.8718 55.051H73.8704Z" fill="#F6A191"/>
<path d="M74.013 55.989H70.6062L70.7941 53.6998L70.9194 52.185H73.6998L73.8236 53.6926L74.013 55.989Z" fill="#F6A191"/>
<path d="M73.8235 53.6947L73.8448 53.951C71.8304 54.7696 70.7954 53.9424 70.7954 53.9424L70.7926 53.7018L70.9178 52.1885H73.6982L73.8221 53.6947H73.8235Z" fill="#F47386"/>
<path d="M75.9475 49.952C75.9475 52.106 74.3189 53.8514 72.3087 53.8514C70.2985 53.8514 68.6699 52.106 68.6699 49.952C68.6699 47.798 68.6699 46.0527 72.3087 46.0527C75.9475 46.0527 75.9475 47.798 75.9475 49.952Z" fill="#F6A191"/>
<path d="M69.5199 50.1781C69.7192 50.8202 69.5825 51.4338 69.2152 51.5477C68.8479 51.6616 68.3881 51.2331 68.1888 50.591C67.9895 49.9489 68.1261 49.3353 68.4934 49.2215C68.8607 49.1076 69.3206 49.5361 69.5199 50.1781Z" fill="#F6A191"/>
<path d="M75.0991 50.1781C74.8998 50.8202 75.0364 51.4338 75.4037 51.5477C75.771 51.6616 76.2309 51.2331 76.4302 50.591C76.6295 49.9489 76.4928 49.3353 76.1255 49.2215C75.7582 49.1076 75.2984 49.5361 75.0991 50.1781Z" fill="#F6A191"/>
<path d="M77.9064 47.9974C77.6572 47.2984 76.8059 46.2506 75.7894 45.6512C75.1773 45.2896 74.2476 45.0262 73.8447 44.9565C71.1085 44.4824 69.4926 44.9864 68.8548 46.0541C68.2171 47.1218 68.6783 49.2075 68.6783 49.2075L68.9588 50.0972C68.9588 50.0972 69.3147 48.9455 70.2643 48.7234C70.7412 48.611 71.6082 48.5227 72.3698 48.3547C73.0275 49.2345 74.3046 50.5784 76.0656 50.7564C78.7107 51.024 78.2139 48.853 77.9078 47.9959L77.9064 47.9974Z" fill="#0D2070"/>
<path d="M108.785 44.5941H85.1672V44.8788H108.785V44.5941Z" fill="white"/>
<path d="M108.785 47.885H85.1672V48.1698H108.785V47.885Z" fill="white"/>
<path d="M108.785 51.1795H85.1672V51.4642H108.785V51.1795Z" fill="white"/>
<path d="M108.785 54.474H85.1672V54.7587H108.785V54.474Z" fill="white"/>
<path d="M108.785 57.7684H85.1672V58.0532H108.785V57.7684Z" fill="white"/>
<path d="M108.785 61.0629H85.1672V61.3476H108.785V61.0629Z" fill="white"/>
<path d="M108.786 44.9479H85.1674C85.0492 44.9479 84.9539 44.8525 84.9539 44.7343C84.9539 44.6162 85.0492 44.5208 85.1674 44.5208H108.786C108.904 44.5208 108.999 44.6162 108.999 44.7343C108.999 44.8525 108.904 44.9479 108.786 44.9479Z" fill="white"/>
<path d="M108.786 48.2423H85.1674C85.0492 48.2423 84.9539 48.147 84.9539 48.0288C84.9539 47.9106 85.0492 47.8153 85.1674 47.8153H108.786C108.904 47.8153 108.999 47.9106 108.999 48.0288C108.999 48.147 108.904 48.2423 108.786 48.2423Z" fill="white"/>
<path d="M108.786 51.5368H85.1674C85.0492 51.5368 84.9539 51.4414 84.9539 51.3233C84.9539 51.2051 85.0492 51.1097 85.1674 51.1097H108.786C108.904 51.1097 108.999 51.2051 108.999 51.3233C108.999 51.4414 108.904 51.5368 108.786 51.5368Z" fill="white"/>
<path d="M108.786 54.8313H85.1674C85.0492 54.8313 84.9539 54.7359 84.9539 54.6177C84.9539 54.4996 85.0492 54.4042 85.1674 54.4042H108.786C108.904 54.4042 108.999 54.4996 108.999 54.6177C108.999 54.7359 108.904 54.8313 108.786 54.8313Z" fill="white"/>
<path d="M108.786 58.1257H85.1674C85.0492 58.1257 84.9539 58.0304 84.9539 57.9122C84.9539 57.794 85.0492 57.6987 85.1674 57.6987H108.786C108.904 57.6987 108.999 57.794 108.999 57.9122C108.999 58.0304 108.904 58.1257 108.786 58.1257Z" fill="white"/>
<path d="M108.786 61.4202H85.1674C85.0492 61.4202 84.9539 61.3248 84.9539 61.2067C84.9539 61.0885 85.0492 60.9931 85.1674 60.9931H108.786C108.904 60.9931 108.999 61.0885 108.999 61.2067C108.999 61.3248 108.904 61.4202 108.786 61.4202Z" fill="white"/>
<path d="M122.004 157.136H121.933C121.578 157.136 121.292 156.849 121.292 156.495C121.292 156.14 121.578 155.854 121.933 155.854H122.004C122.358 155.854 122.645 156.14 122.645 156.495C122.645 156.849 122.358 157.136 122.004 157.136Z" fill="#612E86"/>
<path d="M119.033 157.136H118.887C118.533 157.136 118.247 156.849 118.247 156.495C118.247 156.14 118.533 155.854 118.887 155.854H119.033C119.387 155.854 119.673 156.14 119.673 156.495C119.673 156.849 119.387 157.136 119.033 157.136ZM115.987 157.136H115.842C115.488 157.136 115.202 156.849 115.202 156.495C115.202 156.14 115.488 155.854 115.842 155.854H115.987C116.342 155.854 116.628 156.14 116.628 156.495C116.628 156.849 116.342 157.136 115.987 157.136Z" fill="#612E86"/>
<path d="M112.942 157.134H112.797C112.443 157.134 112.156 156.848 112.156 156.493C112.156 156.139 112.443 155.853 112.797 155.853H112.942C113.297 155.853 113.583 156.139 113.583 156.493C113.583 156.848 113.297 157.134 112.942 157.134ZM109.897 157.134H109.752C109.397 157.134 109.111 156.848 109.111 156.493C109.111 156.139 109.397 155.853 109.752 155.853H109.897C110.252 155.853 110.538 156.139 110.538 156.493C110.538 156.848 110.252 157.134 109.897 157.134ZM106.852 157.134H106.707C106.352 157.134 106.066 156.848 106.066 156.493C106.066 156.139 106.352 155.853 106.707 155.853H106.852C107.206 155.853 107.493 156.139 107.493 156.493C107.493 156.848 107.206 157.134 106.852 157.134ZM103.807 157.134H103.662C103.307 157.134 103.021 156.848 103.021 156.493C103.021 156.139 103.307 155.853 103.662 155.853H103.807C104.161 155.853 104.447 156.139 104.447 156.493C104.447 156.848 104.161 157.134 103.807 157.134ZM100.762 157.134H100.616C100.262 157.134 99.9757 156.848 99.9757 156.493C99.9757 156.139 100.262 155.853 100.616 155.853H100.762C101.116 155.853 101.402 156.139 101.402 156.493C101.402 156.848 101.116 157.134 100.762 157.134ZM97.7164 157.134H97.5712C97.2167 157.134 96.9305 156.848 96.9305 156.493C96.9305 156.139 97.2167 155.853 97.5712 155.853H97.7164C98.0709 155.853 98.357 156.139 98.357 156.493C98.357 156.848 98.0709 157.134 97.7164 157.134ZM94.6712 157.134H94.526C94.1715 157.134 93.8853 156.848 93.8853 156.493C93.8853 156.139 94.1715 155.853 94.526 155.853H94.6712C95.0257 155.853 95.3118 156.139 95.3118 156.493C95.3118 156.848 95.0257 157.134 94.6712 157.134ZM91.626 157.134H91.4808C91.1263 157.134 90.8402 156.848 90.8402 156.493C90.8402 156.139 91.1263 155.853 91.4808 155.853H91.626C91.9805 155.853 92.2667 156.139 92.2667 156.493C92.2667 156.848 91.9805 157.134 91.626 157.134ZM88.5808 157.134H88.4356C88.0811 157.134 87.795 156.848 87.795 156.493C87.795 156.139 88.0811 155.853 88.4356 155.853H88.5808C88.9353 155.853 89.2215 156.139 89.2215 156.493C89.2215 156.848 88.9353 157.134 88.5808 157.134ZM85.5357 157.134H85.3904C85.036 157.134 84.7498 156.848 84.7498 156.493C84.7498 156.139 85.036 155.853 85.3904 155.853H85.5357C85.8901 155.853 86.1763 156.139 86.1763 156.493C86.1763 156.848 85.8901 157.134 85.5357 157.134ZM82.4905 157.134H82.3453C81.9908 157.134 81.7046 156.848 81.7046 156.493C81.7046 156.139 81.9908 155.853 82.3453 155.853H82.4905C82.845 155.853 83.1311 156.139 83.1311 156.493C83.1311 156.848 82.845 157.134 82.4905 157.134ZM79.4453 157.134H79.3001C78.9456 157.134 78.6595 156.848 78.6595 156.493C78.6595 156.139 78.9456 155.853 79.3001 155.853H79.4453C79.7998 155.853 80.086 156.139 80.086 156.493C80.086 156.848 79.7998 157.134 79.4453 157.134ZM76.4001 157.134H76.2549C75.9004 157.134 75.6143 156.848 75.6143 156.493C75.6143 156.139 75.9004 155.853 76.2549 155.853H76.4001C76.7546 155.853 77.0408 156.139 77.0408 156.493C77.0408 156.848 76.7546 157.134 76.4001 157.134ZM73.355 157.134H73.2098C72.8553 157.134 72.5691 156.848 72.5691 156.493C72.5691 156.139 72.8553 155.853 73.2098 155.853H73.355C73.7094 155.853 73.9956 156.139 73.9956 156.493C73.9956 156.848 73.7094 157.134 73.355 157.134ZM70.3098 157.134H70.1646C69.8101 157.134 69.5239 156.848 69.5239 156.493C69.5239 156.139 69.8101 155.853 70.1646 155.853H70.3098C70.6643 155.853 70.9504 156.139 70.9504 156.493C70.9504 156.848 70.6643 157.134 70.3098 157.134ZM67.2646 157.134H67.1194C66.7649 157.134 66.4788 156.848 66.4788 156.493C66.4788 156.139 66.7649 155.853 67.1194 155.853H67.2646C67.6191 155.853 67.9052 156.139 67.9052 156.493C67.9052 156.848 67.6191 157.134 67.2646 157.134ZM64.2194 157.134H64.0742C63.7197 157.134 63.4336 156.848 63.4336 156.493C63.4336 156.139 63.7197 155.853 64.0742 155.853H64.2194C64.5739 155.853 64.8601 156.139 64.8601 156.493C64.8601 156.848 64.5739 157.134 64.2194 157.134ZM61.1743 157.134H61.029C60.6746 157.134 60.3884 156.848 60.3884 156.493C60.3884 156.139 60.6746 155.853 61.029 155.853H61.1743C61.5287 155.853 61.8149 156.139 61.8149 156.493C61.8149 156.848 61.5287 157.134 61.1743 157.134ZM58.1291 157.134H57.9839C57.6294 157.134 57.3432 156.848 57.3432 156.493C57.3432 156.139 57.6294 155.853 57.9839 155.853H58.1291C58.4836 155.853 58.7697 156.139 58.7697 156.493C58.7697 156.848 58.4836 157.134 58.1291 157.134ZM55.0839 157.134H54.9387C54.5842 157.134 54.298 156.848 54.298 156.493C54.298 156.139 54.5842 155.853 54.9387 155.853H55.0839C55.4384 155.853 55.7245 156.139 55.7245 156.493C55.7245 156.848 55.4384 157.134 55.0839 157.134ZM52.0387 157.134H51.8935C51.539 157.134 51.2529 156.848 51.2529 156.493C51.2529 156.139 51.539 155.853 51.8935 155.853H52.0387C52.3932 155.853 52.6794 156.139 52.6794 156.493C52.6794 156.848 52.3932 157.134 52.0387 157.134ZM48.9935 157.134H48.8483C48.4939 157.134 48.2077 156.848 48.2077 156.493C48.2077 156.139 48.4939 155.853 48.8483 155.853H48.9935C49.348 155.853 49.6342 156.139 49.6342 156.493C49.6342 156.848 49.348 157.134 48.9935 157.134ZM45.9484 157.134H45.8032C45.4487 157.134 45.1625 156.848 45.1625 156.493C45.1625 156.139 45.4487 155.853 45.8032 155.853H45.9484C46.3029 155.853 46.589 156.139 46.589 156.493C46.589 156.848 46.3029 157.134 45.9484 157.134ZM42.9032 157.134H42.758C42.4035 157.134 42.1173 156.848 42.1173 156.493C42.1173 156.139 42.4035 155.853 42.758 155.853H42.9032C43.2577 155.853 43.5438 156.139 43.5438 156.493C43.5438 156.848 43.2577 157.134 42.9032 157.134ZM39.858 157.134H39.7128C39.3583 157.134 39.0722 156.848 39.0722 156.493C39.0722 156.139 39.3583 155.853 39.7128 155.853H39.858C40.2125 155.853 40.4987 156.139 40.4987 156.493C40.4987 156.848 40.2125 157.134 39.858 157.134ZM36.8157 157.1C36.7943 157.1 36.773 157.1 36.7502 157.097C36.6975 157.091 36.6449 157.086 36.5936 157.08C36.242 157.037 35.9928 156.718 36.0355 156.367C36.0782 156.015 36.3986 155.766 36.7488 155.809C36.7929 155.814 36.8356 155.819 36.8798 155.823C37.2314 155.858 37.4877 156.173 37.4521 156.525C37.4193 156.855 37.1403 157.101 36.8157 157.101V157.1ZM33.9527 156.137C33.8389 156.137 33.7235 156.108 33.6182 156.043C33.5741 156.016 33.5285 155.988 33.4844 155.959C33.1868 155.769 33.0986 155.373 33.2893 155.075C33.4801 154.778 33.8759 154.69 34.1748 154.88C34.2118 154.905 34.2503 154.927 34.2873 154.952C34.5891 155.137 34.6831 155.531 34.4994 155.833C34.3784 156.029 34.1677 156.139 33.9527 156.139V156.137ZM31.7902 154.032C31.581 154.032 31.3745 153.929 31.2521 153.74C31.2236 153.696 31.1951 153.652 31.1681 153.608C30.9816 153.307 31.0727 152.913 31.3731 152.725C31.6735 152.538 32.0693 152.63 32.2558 152.93C32.2785 152.967 32.3027 153.004 32.3269 153.041C32.5191 153.337 32.4351 153.734 32.139 153.927C32.0308 153.996 31.9098 154.03 31.7902 154.03V154.032ZM30.7481 151.199C30.4306 151.199 30.1545 150.962 30.1132 150.639C30.1061 150.587 30.1004 150.535 30.0947 150.483C30.0562 150.131 30.3111 149.815 30.6627 149.777C31.0158 149.74 31.3304 149.993 31.3688 150.345C31.3731 150.389 31.3788 150.433 31.3845 150.476C31.4286 150.827 31.1809 151.148 30.8307 151.193C30.8036 151.196 30.7752 151.199 30.7481 151.199ZM30.6926 148.155C30.3381 148.155 30.052 147.869 30.052 147.514V147.369C30.052 147.015 30.3381 146.729 30.6926 146.729C31.0471 146.729 31.3332 147.015 31.3332 147.369V147.514C31.3332 147.869 31.0471 148.155 30.6926 148.155ZM30.6926 145.111C30.3381 145.111 30.052 144.825 30.052 144.471V144.325C30.052 143.971 30.3381 143.685 30.6926 143.685C31.0471 143.685 31.3332 143.971 31.3332 144.325V144.471C31.3332 144.825 31.0471 145.111 30.6926 145.111ZM30.6926 142.066C30.3381 142.066 30.052 141.78 30.052 141.425V141.28C30.052 140.926 30.3381 140.64 30.6926 140.64C31.0471 140.64 31.3332 140.926 31.3332 141.28V141.425C31.3332 141.78 31.0471 142.066 30.6926 142.066ZM30.6926 139.021C30.3381 139.021 30.052 138.735 30.052 138.38V138.235C30.052 137.881 30.3381 137.594 30.6926 137.594C31.0471 137.594 31.3332 137.881 31.3332 138.235V138.38C31.3332 138.735 31.0471 139.021 30.6926 139.021ZM30.6926 135.976C30.3381 135.976 30.052 135.69 30.052 135.335V135.19C30.052 134.835 30.3381 134.549 30.6926 134.549C31.0471 134.549 31.3332 134.835 31.3332 135.19V135.335C31.3332 135.69 31.0471 135.976 30.6926 135.976ZM30.6926 132.931C30.3381 132.931 30.052 132.644 30.052 132.29V132.145C30.052 131.79 30.3381 131.504 30.6926 131.504C31.0471 131.504 31.3332 131.79 31.3332 132.145V132.29C31.3332 132.644 31.0471 132.931 30.6926 132.931ZM30.6926 129.885C30.3381 129.885 30.052 129.599 30.052 129.245V129.1C30.052 128.745 30.3381 128.459 30.6926 128.459C31.0471 128.459 31.3332 128.745 31.3332 129.1V129.245C31.3332 129.599 31.0471 129.885 30.6926 129.885Z" fill="#612E86"/>
<path d="M30.6926 126.833C30.3381 126.833 30.052 126.547 30.052 126.192V126.121C30.052 125.767 30.3381 125.481 30.6926 125.481C31.0471 125.481 31.3332 125.767 31.3332 126.121V126.192C31.3332 126.547 31.0471 126.833 30.6926 126.833Z" fill="#612E86"/>
<path d="M122.004 154.614C123.042 154.614 123.883 155.456 123.883 156.494C123.883 157.532 123.042 158.373 122.004 158.373C120.966 158.373 120.125 157.532 120.125 156.494C120.125 155.456 120.966 154.614 122.004 154.614Z" fill="#612E86"/>
<path d="M261.732 151.577H261.589C261.235 151.577 260.949 151.291 260.949 150.937C260.949 150.582 261.235 150.296 261.589 150.296H261.732C262.086 150.296 262.372 150.582 262.372 150.937C262.372 151.291 262.086 151.577 261.732 151.577ZM258.742 151.577H258.6C258.245 151.577 257.959 151.291 257.959 150.937C257.959 150.582 258.245 150.296 258.6 150.296H258.742C259.097 150.296 259.383 150.582 259.383 150.937C259.383 151.291 259.097 151.577 258.742 151.577ZM255.752 151.577H255.61C255.256 151.577 254.969 151.291 254.969 150.937C254.969 150.582 255.256 150.296 255.61 150.296H255.752C256.107 150.296 256.393 150.582 256.393 150.937C256.393 151.291 256.107 151.577 255.752 151.577ZM252.763 151.577H252.62C252.266 151.577 251.98 151.291 251.98 150.937C251.98 150.582 252.266 150.296 252.62 150.296H252.763C253.117 150.296 253.403 150.582 253.403 150.937C253.403 151.291 253.117 151.577 252.763 151.577ZM249.773 151.577H249.631C249.276 151.577 248.99 151.291 248.99 150.937C248.99 150.582 249.276 150.296 249.631 150.296H249.773C250.128 150.296 250.414 150.582 250.414 150.937C250.414 151.291 250.128 151.577 249.773 151.577ZM246.783 151.577H246.641C246.287 151.577 246 151.291 246 150.937C246 150.582 246.287 150.296 246.641 150.296H246.783C247.138 150.296 247.424 150.582 247.424 150.937C247.424 151.291 247.138 151.577 246.783 151.577ZM243.794 151.577H243.651C243.297 151.577 243.011 151.291 243.011 150.937C243.011 150.582 243.297 150.296 243.651 150.296H243.794C244.148 150.296 244.434 150.582 244.434 150.937C244.434 151.291 244.148 151.577 243.794 151.577ZM240.804 151.577H240.662C240.307 151.577 240.021 151.291 240.021 150.937C240.021 150.582 240.307 150.296 240.662 150.296H240.804C241.159 150.296 241.445 150.582 241.445 150.937C241.445 151.291 241.159 151.577 240.804 151.577ZM237.814 151.577H237.672C237.318 151.577 237.031 151.291 237.031 150.937C237.031 150.582 237.318 150.296 237.672 150.296H237.814C238.169 150.296 238.455 150.582 238.455 150.937C238.455 151.291 238.169 151.577 237.814 151.577ZM234.825 151.577H234.682C234.328 151.577 234.042 151.291 234.042 150.937C234.042 150.582 234.328 150.296 234.682 150.296H234.825C235.179 150.296 235.465 150.582 235.465 150.937C235.465 151.291 235.179 151.577 234.825 151.577ZM231.835 151.577H231.693C231.338 151.577 231.052 151.291 231.052 150.937C231.052 150.582 231.338 150.296 231.693 150.296H231.835C232.19 150.296 232.476 150.582 232.476 150.937C232.476 151.291 232.19 151.577 231.835 151.577ZM228.845 151.577H228.703C228.349 151.577 228.062 151.291 228.062 150.937C228.062 150.582 228.349 150.296 228.703 150.296H228.845C229.2 150.296 229.486 150.582 229.486 150.937C229.486 151.291 229.2 151.577 228.845 151.577ZM225.856 151.577H225.713C225.359 151.577 225.073 151.291 225.073 150.937C225.073 150.582 225.359 150.296 225.713 150.296H225.856C226.21 150.296 226.496 150.582 226.496 150.937C226.496 151.291 226.21 151.577 225.856 151.577ZM222.866 151.577H222.724C222.369 151.577 222.083 151.291 222.083 150.937C222.083 150.582 222.369 150.296 222.724 150.296H222.866C223.221 150.296 223.507 150.582 223.507 150.937C223.507 151.291 223.221 151.577 222.866 151.577ZM219.877 151.577H219.734C219.38 151.577 219.094 151.291 219.094 150.937C219.094 150.582 219.38 150.296 219.734 150.296H219.877C220.231 150.296 220.517 150.582 220.517 150.937C220.517 151.291 220.231 151.577 219.877 151.577ZM216.887 151.577H216.745C216.39 151.577 216.104 151.291 216.104 150.937C216.104 150.582 216.39 150.296 216.745 150.296H216.887C217.241 150.296 217.528 150.582 217.528 150.937C217.528 151.291 217.241 151.577 216.887 151.577ZM213.897 151.577H213.755C213.4 151.577 213.114 151.291 213.114 150.937C213.114 150.582 213.4 150.296 213.755 150.296H213.897C214.252 150.296 214.538 150.582 214.538 150.937C214.538 151.291 214.252 151.577 213.897 151.577ZM210.908 151.577H210.765C210.411 151.577 210.125 151.291 210.125 150.937C210.125 150.582 210.411 150.296 210.765 150.296H210.908C211.262 150.296 211.548 150.582 211.548 150.937C211.548 151.291 211.262 151.577 210.908 151.577ZM207.918 151.577H207.776C207.421 151.577 207.135 151.291 207.135 150.937C207.135 150.582 207.421 150.296 207.776 150.296H207.918C208.272 150.296 208.559 150.582 208.559 150.937C208.559 151.291 208.272 151.577 207.918 151.577ZM204.928 151.577H204.786C204.431 151.577 204.145 151.291 204.145 150.937C204.145 150.582 204.431 150.296 204.786 150.296H204.928C205.283 150.296 205.569 150.582 205.569 150.937C205.569 151.291 205.283 151.577 204.928 151.577ZM201.939 151.577H201.796C201.442 151.577 201.156 151.291 201.156 150.937C201.156 150.582 201.442 150.296 201.796 150.296H201.939C202.293 150.296 202.579 150.582 202.579 150.937C202.579 151.291 202.293 151.577 201.939 151.577ZM198.949 151.577H198.807C198.452 151.577 198.166 151.291 198.166 150.937C198.166 150.582 198.452 150.296 198.807 150.296H198.949C199.303 150.296 199.59 150.582 199.59 150.937C199.59 151.291 199.303 151.577 198.949 151.577ZM195.959 151.577H195.817C195.462 151.577 195.176 151.291 195.176 150.937C195.176 150.582 195.462 150.296 195.817 150.296H195.959C196.314 150.296 196.6 150.582 196.6 150.937C196.6 151.291 196.314 151.577 195.959 151.577ZM192.97 151.577H192.827C192.473 151.577 192.187 151.291 192.187 150.937C192.187 150.582 192.473 150.296 192.827 150.296H192.97C193.324 150.296 193.61 150.582 193.61 150.937C193.61 151.291 193.324 151.577 192.97 151.577ZM189.98 151.577H189.838C189.483 151.577 189.197 151.291 189.197 150.937C189.197 150.582 189.483 150.296 189.838 150.296H189.98C190.334 150.296 190.621 150.582 190.621 150.937C190.621 151.291 190.334 151.577 189.98 151.577ZM186.99 151.577H186.848C186.493 151.577 186.207 151.291 186.207 150.937C186.207 150.582 186.493 150.296 186.848 150.296H186.99C187.345 150.296 187.631 150.582 187.631 150.937C187.631 151.291 187.345 151.577 186.99 151.577ZM184.001 151.577H183.858C183.504 151.577 183.218 151.291 183.218 150.937C183.218 150.582 183.504 150.296 183.858 150.296H184.001C184.355 150.296 184.641 150.582 184.641 150.937C184.641 151.291 184.355 151.577 184.001 151.577ZM181.011 151.577H180.869C180.514 151.577 180.228 151.291 180.228 150.937C180.228 150.582 180.514 150.296 180.869 150.296H181.011C181.366 150.296 181.652 150.582 181.652 150.937C181.652 151.291 181.366 151.577 181.011 151.577ZM178.021 151.577H177.879C177.525 151.577 177.238 151.291 177.238 150.937C177.238 150.582 177.525 150.296 177.879 150.296H178.021C178.376 150.296 178.662 150.582 178.662 150.937C178.662 151.291 178.376 151.577 178.021 151.577ZM175.032 151.577H174.889C174.535 151.577 174.249 151.291 174.249 150.937C174.249 150.582 174.535 150.296 174.889 150.296H175.032C175.386 150.296 175.672 150.582 175.672 150.937C175.672 151.291 175.386 151.577 175.032 151.577ZM172.042 151.577H171.9C171.545 151.577 171.259 151.291 171.259 150.937C171.259 150.582 171.545 150.296 171.9 150.296H172.042C172.397 150.296 172.683 150.582 172.683 150.937C172.683 151.291 172.397 151.577 172.042 151.577ZM169.052 151.577H168.91C168.556 151.577 168.269 151.291 168.269 150.937C168.269 150.582 168.556 150.296 168.91 150.296H169.052C169.407 150.296 169.693 150.582 169.693 150.937C169.693 151.291 169.407 151.577 169.052 151.577ZM166.063 151.577H165.92C165.566 151.577 165.28 151.291 165.28 150.937C165.28 150.582 165.566 150.296 165.92 150.296H166.063C166.417 150.296 166.703 150.582 166.703 150.937C166.703 151.291 166.417 151.577 166.063 151.577ZM163.073 151.577H162.931C162.576 151.577 162.29 151.291 162.29 150.937C162.29 150.582 162.576 150.296 162.931 150.296H163.073C163.428 150.296 163.714 150.582 163.714 150.937C163.714 151.291 163.428 151.577 163.073 151.577ZM264.572 151.453C264.259 151.453 263.984 151.223 263.938 150.902C263.889 150.552 264.132 150.228 264.482 150.178C264.526 150.172 264.57 150.165 264.616 150.158C264.965 150.104 265.292 150.343 265.346 150.693C265.4 151.043 265.161 151.369 264.811 151.424C264.761 151.431 264.711 151.439 264.663 151.445C264.633 151.449 264.602 151.452 264.572 151.452V151.453ZM267.453 150.68C267.2 150.68 266.959 150.528 266.858 150.279C266.726 149.95 266.885 149.577 267.213 149.445C267.254 149.428 267.297 149.41 267.338 149.393C267.665 149.258 268.04 149.412 268.175 149.739C268.31 150.065 268.157 150.441 267.829 150.576C267.784 150.595 267.737 150.615 267.691 150.633C267.613 150.665 267.532 150.68 267.452 150.68H267.453ZM270.066 149.24C269.866 149.24 269.671 149.147 269.546 148.973C269.338 148.687 269.404 148.286 269.69 148.079C269.727 148.052 269.762 148.027 269.799 148C270.084 147.789 270.486 147.85 270.695 148.135C270.906 148.42 270.844 148.821 270.56 149.03C270.52 149.06 270.48 149.089 270.439 149.119C270.325 149.201 270.194 149.24 270.064 149.24H270.066ZM272.258 147.22C272.111 147.22 271.963 147.17 271.842 147.066C271.573 146.837 271.541 146.432 271.771 146.163C271.8 146.129 271.83 146.095 271.858 146.061C272.084 145.789 272.489 145.752 272.761 145.978C273.033 146.204 273.07 146.609 272.843 146.881C272.811 146.919 272.779 146.958 272.746 146.995C272.62 147.143 272.44 147.22 272.26 147.22H272.258ZM273.91 144.738C273.813 144.738 273.715 144.717 273.622 144.67C273.306 144.51 273.179 144.126 273.337 143.81L273.397 143.687C273.554 143.37 273.937 143.239 274.254 143.396C274.572 143.552 274.703 143.935 274.546 144.253L274.48 144.385C274.368 144.609 274.142 144.738 273.908 144.738H273.91ZM274.92 141.934C274.873 141.934 274.825 141.928 274.777 141.918C274.432 141.84 274.216 141.495 274.295 141.151C274.305 141.106 274.315 141.064 274.324 141.02C274.398 140.674 274.741 140.454 275.085 140.528C275.431 140.602 275.651 140.944 275.577 141.29C275.567 141.338 275.555 141.388 275.544 141.437C275.476 141.733 275.212 141.935 274.92 141.935V141.934ZM275.232 138.968C274.878 138.968 274.591 138.682 274.591 138.327V138.185C274.591 137.831 274.878 137.544 275.232 137.544C275.587 137.544 275.873 137.831 275.873 138.185V138.327C275.873 138.682 275.587 138.968 275.232 138.968ZM275.232 135.978C274.878 135.978 274.591 135.692 274.591 135.338V135.195C274.591 134.841 274.878 134.555 275.232 134.555C275.587 134.555 275.873 134.841 275.873 135.195V135.338C275.873 135.692 275.587 135.978 275.232 135.978ZM275.232 132.989C274.878 132.989 274.591 132.703 274.591 132.348V132.206C274.591 131.851 274.878 131.565 275.232 131.565C275.587 131.565 275.873 131.851 275.873 132.206V132.348C275.873 132.703 275.587 132.989 275.232 132.989ZM275.232 129.999C274.878 129.999 274.591 129.713 274.591 129.358V129.216C274.591 128.862 274.878 128.575 275.232 128.575C275.587 128.575 275.873 128.862 275.873 129.216V129.358C275.873 129.713 275.587 129.999 275.232 129.999ZM275.232 127.009C274.878 127.009 274.591 126.723 274.591 126.369V126.226C274.591 125.872 274.878 125.586 275.232 125.586C275.587 125.586 275.873 125.872 275.873 126.226V126.369C275.873 126.723 275.587 127.009 275.232 127.009ZM275.232 124.02C274.878 124.02 274.591 123.734 274.591 123.379V123.237C274.591 122.882 274.878 122.596 275.232 122.596C275.587 122.596 275.873 122.882 275.873 123.237V123.379C275.873 123.734 275.587 124.02 275.232 124.02ZM275.232 121.03C274.878 121.03 274.591 120.744 274.591 120.39V120.247C274.591 119.893 274.878 119.607 275.232 119.607C275.587 119.607 275.873 119.893 275.873 120.247V120.39C275.873 120.744 275.587 121.03 275.232 121.03ZM275.232 118.04C274.878 118.04 274.591 117.754 274.591 117.4V117.257C274.591 116.903 274.878 116.617 275.232 116.617C275.587 116.617 275.873 116.903 275.873 117.257V117.4C275.873 117.754 275.587 118.04 275.232 118.04Z" fill="#612E86"/>
<path d="M157.662 163.86H111.505C111.426 163.86 111.362 163.796 111.362 163.718V156.599C111.362 155.486 112.266 154.582 113.379 154.582H155.788C156.902 154.582 157.806 155.486 157.806 156.599V163.718C157.806 163.796 157.742 163.86 157.663 163.86H157.662Z" fill="#33004F"/>
<path d="M128.684 251.389H131.493L134.986 163.86H131.384L128.684 251.389Z" fill="#6B18B2"/>
<path d="M103.426 251.389H106.234L120.109 163.86H116.509L103.426 251.389Z" fill="#6B18B2"/>
<path d="M166.146 251.389H163.337L149.462 163.86H153.062L166.146 251.389Z" fill="#6B18B2"/>
<path d="M109.61 219.585H159.21V215.851H109.61V219.585Z" fill="#6B18B2"/>
<path d="M131.377 193.459L141.411 201.161C141.411 201.161 162.769 169.067 165.657 163.815L160.941 153.721L156.903 145.084L135.984 153.57C135.984 153.57 138.407 154.642 141.135 155.748C143.663 156.778 146.454 157.831 147.8 158.083L131.376 193.459H131.377Z" fill="#4B74B6"/>
<path d="M135.984 153.57C135.984 153.57 138.407 154.642 141.135 155.748L151.384 150.383C153.609 149.217 156.002 148.173 157.824 149.904L160.942 153.977V153.721L156.905 145.084L135.986 153.57H135.984Z" fill="#4B74B6"/>
<path d="M135.087 196.295L134.962 196.227C135.109 195.96 149.604 169.565 152.027 164.951C152.656 163.752 153.382 162.478 154.151 161.129C156.345 157.279 158.614 153.297 158.614 151.023H158.757C158.757 153.335 156.477 157.333 154.275 161.199C153.508 162.546 152.782 163.82 152.154 165.016C149.731 169.631 135.234 196.029 135.087 196.295Z" fill="#8F4C00"/>
<path d="M149.116 92.6249C149.116 92.6249 154.541 90.9322 153.958 83.8724C153.374 76.8111 150.369 74.5361 150.369 74.5361C149.815 72.2597 154.002 67.1246 154.002 67.1246C154.002 67.1246 151.099 67.5915 148.356 60.5303C145.614 53.469 137.196 50.8438 132.681 54.0527C128.341 53.469 122.609 57.8453 122.908 63.6224C123.207 69.3996 123.44 71.266 120.58 73.5723C117.722 75.8772 114.393 80.4456 118.042 85.1479C120.595 88.438 122.908 89.8531 122.908 89.8531L149.116 92.6249Z" fill="#33004F"/>
<path d="M145.38 87.9014C145.38 87.9014 148.472 88.4267 150.807 93.3867C153.142 98.3466 156.351 115.62 156.351 115.62L150.865 128.05L144.388 108.91L145.38 87.9028V87.9014Z" fill="#FB8C5E"/>
<path d="M196.6 200.49C196.6 200.49 197.85 200.665 200.086 201.891C202.004 202.942 202.77 204.254 202.77 204.254C202.77 204.254 203.295 205.567 200.552 205.772C197.81 205.976 192.934 205.549 192.934 205.549C192.934 205.549 189.499 202.738 186.418 201.746L186.197 203.731C184.453 203.424 180.668 202.374 180.581 202.308C180.494 202.243 177.473 198.413 177.823 193.577L196.599 200.492L196.6 200.49Z" fill="#33004F"/>
<path d="M129.158 196.26L125.207 202.708L128.429 206.559L130.413 204.866C130.413 204.866 130.559 209.768 130.822 210.819C131.084 211.869 139.488 219.076 140.917 219.951C142.346 220.827 143.864 219.573 143.018 217.938C142.173 216.304 140.043 212.745 140.043 212.745L129.161 196.26H129.158Z" fill="#33004F"/>
<path d="M126.051 85.15C126.051 85.15 126.517 90.3207 132.683 91.0496C138.844 91.7785 139.283 87.2855 139.31 85.5629C139.31 85.5629 138.283 85.3877 137.364 85.15V78.708L128.4 73.5715V84.1947C128.138 84.3983 126.051 85.15 126.051 85.15Z" fill="#FB8C5E"/>
<path d="M139.311 85.5635C142.52 85.9137 145.614 87.7232 145.614 87.7232C145.614 87.7232 149.028 96.1995 149.114 99.7003C149.201 103.201 144.738 113.048 143.571 116.024C142.403 118.999 143.629 126.177 146.78 128.861H118.304C119.705 124.368 118.479 112.113 116.903 108.729C115.327 105.345 114.394 90.0565 119.703 86.2639L126.048 85.1478C127.8 88.4521 131.52 90.2458 134.451 90.159C137.384 90.0722 139.09 87.6207 139.308 85.5635H139.311Z" fill="#F18083"/>
<path d="M119.45 86.4603C119.45 86.4603 120.727 86.7023 121.135 91.8673C121.544 97.0323 117.751 107.943 116.03 111.911C114.309 115.878 114.046 116.287 113.929 117.191C113.812 118.095 124.841 118.971 127.992 119.204C131.142 119.438 134.089 119.641 135.752 121.481C137.415 123.318 140.866 127.382 141.653 129.504C142.44 131.627 141.499 131.722 140.887 130.291C140.275 128.862 139.246 127.359 139.246 127.359C139.246 127.359 140.471 130.072 140.252 130.904C140.033 131.735 139.267 131.151 138.961 130.007C138.655 128.862 137.735 127.447 137.735 127.447C137.735 127.447 138.938 130.532 138.457 131.036C137.976 131.54 136.75 128.103 136.181 127.535C136.181 127.535 137.537 130.637 137.033 131.297C136.529 131.956 135.939 129.177 134.691 127.557C133.444 125.938 131.518 123.29 130.294 123.071C129.068 122.851 124.911 124.427 117.952 124.865C110.993 125.302 108.324 125.346 106.223 124.995C104.121 124.645 103.422 121.976 104.121 118.868C104.822 115.76 108.965 100.035 111.008 94.6662C113.051 89.2976 115.566 87.5109 117.186 86.7664C118.805 86.0218 119.447 86.4589 119.447 86.4589L119.45 86.4603Z" fill="#FB8C5E"/>
<path d="M129.115 69.4165C129.115 69.4165 128.328 73.1807 130.21 76.2002C132.092 79.2198 136.512 81.452 140.101 80.2704C143.69 79.0888 146.36 72.8746 145.265 66.7913C141.458 66.0041 138.7 62.546 138.7 62.546C138.7 62.546 131.26 62.0648 129.116 69.4165H129.115Z" fill="#FB8C5E"/>
<path d="M129.508 69.6955C129.508 69.6955 128.632 68.1494 126.853 68.9951C125.073 69.8407 125.724 75.672 128.95 75.7061H130.645L129.508 69.6955Z" fill="#FB8C5E"/>
<path d="M118.305 128.864C118.305 128.864 110.519 142.453 117.168 150.776C125.209 160.841 149.52 148.803 155.233 146.727C155.861 146.499 156.554 146.807 156.808 147.424L173.537 188.239L186.841 181.411L171.666 134.304C171.205 132.872 169.957 131.834 168.465 131.643L146.781 128.864H118.305Z" fill="#4B74B6"/>
<path d="M185.947 181.867C185.947 181.867 191.75 193.665 194.047 196.843C195.816 199.289 196.6 200.49 196.6 200.49C196.6 200.49 195.374 201.628 192.618 200.49C189.861 199.353 181.108 194.012 177.825 193.575C178 191.299 177.584 188.832 176.239 186.849L185.947 181.867Z" fill="#FB8C5E"/>
<path d="M140.413 200.396C140.413 200.396 139.429 209.624 140.042 212.746C139.049 213.709 137.241 212.017 134.878 209.304C132.515 206.59 129.159 196.262 129.159 196.262L131.609 192.959L140.413 200.396Z" fill="#FB8C5E"/>
<path d="M148.516 129.086H182.376L190.253 108.866H156.351L148.516 129.086Z" fill="#33004F"/>
<path d="M132.811 131.956H180.407C181.057 131.956 181.63 131.531 181.82 130.909L182.376 129.086H132.811C132.018 129.086 131.376 129.728 131.376 130.521C131.376 131.314 132.018 131.956 132.811 131.956Z" fill="#33004F"/>
<path d="M178.614 132.698C177.13 133.252 172.918 134.368 171.783 134.666L171.666 134.301C171.308 133.186 170.469 132.378 169.413 131.954C169.911 131.687 171.918 130.567 172.32 130.51C172.78 130.445 171.839 132.129 171.991 132.129C172.143 132.129 175.601 130.597 175.93 130.86C176.259 131.122 174.835 132.413 174.835 132.413C174.835 132.413 178.14 131.145 178.577 131.145C179.014 131.145 179.408 131.276 177.591 132.348C177.591 132.348 180.333 132.056 178.612 132.698H178.614Z" fill="#FB8C5E"/>
<path d="M167.068 121.141C166.581 123.08 167.793 124.653 169.774 124.653C171.756 124.653 173.758 123.081 174.245 121.141C174.732 119.202 173.52 117.629 171.538 117.629C169.557 117.629 167.555 119.201 167.068 121.141Z" fill="#702A94"/>
<path d="M134.36 64.7977C134.337 65.0539 135.184 65.3386 136.252 65.4326C137.32 65.5266 138.202 65.3942 138.225 65.1365C138.248 64.8802 137.401 64.5955 136.333 64.5015C135.265 64.4076 134.383 64.54 134.36 64.7977Z" fill="#33004F"/>
<path d="M141.945 67.1465C141.922 67.4028 142.543 67.6676 143.33 67.7374C144.117 67.8071 144.775 67.6548 144.798 67.3971C144.821 67.1409 144.2 66.8761 143.413 66.8063C142.625 66.7365 141.968 66.8889 141.945 67.1465Z" fill="#33004F"/>
<path d="M135.988 68.3201C135.934 68.938 136.267 69.4719 136.733 69.5117C137.199 69.553 137.62 69.0846 137.674 68.4682C137.728 67.8518 137.395 67.3165 136.929 67.2766C136.464 67.2353 136.043 67.7037 135.988 68.3201Z" fill="#33004F"/>
<path d="M142.534 69.7502C142.436 70.3624 142.672 70.9091 143.061 70.9717C143.45 71.0343 143.844 70.5887 143.942 69.9766C144.041 69.3644 143.804 68.8177 143.416 68.7551C143.027 68.6924 142.633 69.138 142.534 69.7502Z" fill="#33004F"/>
<path d="M141.946 74.3189C141.847 74.3189 141.731 74.3061 141.602 74.2776L141.633 74.1381C142.243 74.2762 142.432 74.0029 142.475 73.9203L142.018 72.686C140.966 69.5525 141.988 68.3937 142.032 68.3453L142.137 68.4421C142.127 68.4535 141.131 69.5967 142.153 72.639L142.628 73.9217L142.62 73.9459C142.614 73.9644 142.482 74.3189 141.948 74.3189H141.946Z" fill="#E76744"/>
<path d="M139.661 75.7018C139.617 74.9729 136.882 73.5066 135.526 73.0681C134.169 72.631 136.248 75.541 137.714 76.1531C139.18 76.7653 139.661 75.7004 139.661 75.7004V75.7018Z" fill="#FF5238"/>
<path d="M179.081 185.382C178.947 185.034 165.654 150.411 163.462 144.545C161.232 138.58 160.081 136.98 157.861 136.762C155.032 136.482 149.292 138.109 140.797 141.591C131.562 145.377 124.351 146.249 121.014 143.983C119.692 143.084 119.03 141.746 119.05 140.007C119.098 135.75 125.093 128.884 125.153 128.815L125.26 128.909C125.2 128.978 119.241 135.804 119.192 140.008C119.172 141.696 119.813 142.993 121.094 143.865C122.294 144.679 124.007 145.082 126.142 145.082C129.874 145.082 134.898 143.855 140.743 141.459C149.26 137.968 155.024 136.341 157.874 136.62C160.165 136.845 161.341 138.463 163.594 144.494C165.787 150.358 179.079 184.981 179.213 185.33L179.081 185.381V185.382Z" fill="#8F4C00"/>
<path d="M137.364 80.5627C135.805 80.5926 133.397 79.9648 131.823 78.3376C132.056 80.3307 132.681 81.2703 134.619 81.5621C136.245 81.807 137.365 80.5627 137.365 80.5627H137.364Z" fill="#E76744"/>
<path d="M275.548 16.7874H275.477C275.123 16.7874 274.836 16.5013 274.836 16.1468C274.836 15.7923 275.123 15.5061 275.477 15.5061H275.548C275.903 15.5061 276.189 15.7923 276.189 16.1468C276.189 16.5013 275.903 16.7874 275.548 16.7874Z" fill="#612E86"/>
<path d="M272.576 16.7874H272.43C272.076 16.7874 271.79 16.5013 271.79 16.1468C271.79 15.7923 272.076 15.5061 272.43 15.5061H272.576C272.93 15.5061 273.216 15.7923 273.216 16.1468C273.216 16.5013 272.93 16.7874 272.576 16.7874ZM269.529 16.7874H269.384C269.029 16.7874 268.743 16.5013 268.743 16.1468C268.743 15.7923 269.029 15.5061 269.384 15.5061H269.529C269.884 15.5061 270.17 15.7923 270.17 16.1468C270.17 16.5013 269.884 16.7874 269.529 16.7874Z" fill="#612E86"/>
<path d="M239.288 47.1552C238.934 47.1552 238.647 46.869 238.647 46.5145V46.3693C238.647 46.0148 238.934 45.7287 239.288 45.7287C239.643 45.7287 239.929 46.0148 239.929 46.3693V46.5145C239.929 46.869 239.643 47.1552 239.288 47.1552ZM239.288 44.1086C238.934 44.1086 238.647 43.8224 238.647 43.4679V43.3227C238.647 42.9682 238.934 42.6821 239.288 42.6821C239.643 42.6821 239.929 42.9682 239.929 43.3227V43.4679C239.929 43.8224 239.643 44.1086 239.288 44.1086ZM239.288 41.062C238.934 41.062 238.647 40.7758 238.647 40.4213V40.2761C238.647 39.9216 238.934 39.6355 239.288 39.6355C239.643 39.6355 239.929 39.9216 239.929 40.2761V40.4213C239.929 40.7758 239.643 41.062 239.288 41.062ZM239.288 38.0154C238.934 38.0154 238.647 37.7292 238.647 37.3747V37.2295C238.647 36.875 238.934 36.5889 239.288 36.5889C239.643 36.5889 239.929 36.875 239.929 37.2295V37.3747C239.929 37.7292 239.643 38.0154 239.288 38.0154ZM239.288 34.9688C238.934 34.9688 238.647 34.6826 238.647 34.3281V34.1829C238.647 33.8284 238.934 33.5423 239.288 33.5423C239.643 33.5423 239.929 33.8284 239.929 34.1829V34.3281C239.929 34.6826 239.643 34.9688 239.288 34.9688ZM239.288 31.9222C238.934 31.9222 238.647 31.636 238.647 31.2815V31.1363C238.647 30.7818 238.934 30.4957 239.288 30.4957C239.643 30.4957 239.929 30.7818 239.929 31.1363V31.2815C239.929 31.636 239.643 31.9222 239.288 31.9222ZM239.328 28.877C239.312 28.877 239.295 28.877 239.28 28.8756C238.926 28.8485 238.662 28.541 238.689 28.1894C238.693 28.1381 238.697 28.0869 238.701 28.0356C238.733 27.684 239.043 27.4235 239.396 27.4548C239.749 27.4861 240.008 27.7979 239.977 28.1495C239.973 28.1951 239.969 28.2392 239.966 28.2848C239.94 28.6207 239.66 28.877 239.328 28.877ZM239.913 25.8945C239.848 25.8945 239.782 25.8845 239.717 25.8631C239.379 25.7549 239.195 25.3933 239.304 25.0574C239.319 25.009 239.335 24.962 239.351 24.9136C239.463 24.5776 239.826 24.3968 240.161 24.5078C240.497 24.6203 240.678 24.9819 240.566 25.3179L240.524 25.4503C240.436 25.7222 240.185 25.8945 239.914 25.8945H239.913ZM241.172 23.1283C241.059 23.1283 240.945 23.0984 240.841 23.0358C240.538 22.8536 240.441 22.4592 240.623 22.156C240.649 22.1118 240.676 22.0691 240.703 22.0264C240.89 21.726 241.285 21.6335 241.586 21.82C241.886 22.0065 241.979 22.4008 241.792 22.7027C241.768 22.7411 241.744 22.781 241.721 22.8194C241.6 23.0187 241.389 23.1283 241.172 23.1283ZM243.034 20.7266C242.873 20.7266 242.71 20.6654 242.585 20.5444C242.332 20.2967 242.328 19.891 242.575 19.639C242.611 19.602 242.646 19.5664 242.683 19.5308C242.934 19.2802 243.34 19.2816 243.589 19.5308C243.838 19.7813 243.838 20.1871 243.589 20.4362C243.556 20.4689 243.525 20.5017 243.492 20.533C243.367 20.6611 243.2 20.7252 243.034 20.7252V20.7266ZM245.397 18.8161C245.185 18.8161 244.977 18.7108 244.854 18.5171C244.665 18.2182 244.755 17.8224 245.054 17.633C245.097 17.606 245.139 17.579 245.182 17.5519C245.482 17.3654 245.878 17.4594 246.063 17.7598C246.25 18.0601 246.156 18.4559 245.855 18.641L245.737 18.715C245.63 18.7819 245.512 18.8147 245.395 18.8147L245.397 18.8161ZM248.136 17.4978C247.87 17.4978 247.622 17.3312 247.531 17.065C247.416 16.7305 247.594 16.366 247.928 16.2507C247.977 16.2336 248.025 16.2179 248.073 16.2023C248.409 16.0912 248.772 16.2735 248.883 16.6095C248.994 16.9454 248.812 17.3085 248.476 17.4195C248.432 17.4337 248.388 17.4494 248.345 17.4636C248.276 17.4878 248.206 17.4992 248.137 17.4992L248.136 17.4978ZM251.106 16.8515C250.78 16.8515 250.501 16.6038 250.469 16.2735C250.435 15.9218 250.693 15.6072 251.044 15.573C251.094 15.5688 251.146 15.5631 251.195 15.5588C251.548 15.5275 251.859 15.788 251.89 16.1411C251.921 16.4941 251.661 16.8045 251.308 16.8358C251.262 16.8401 251.215 16.8444 251.17 16.8486C251.148 16.85 251.127 16.8515 251.106 16.8515ZM266.483 16.7874H266.337C265.983 16.7874 265.697 16.5013 265.697 16.1468C265.697 15.7923 265.983 15.5061 266.337 15.5061H266.483C266.837 15.5061 267.123 15.7923 267.123 16.1468C267.123 16.5013 266.837 16.7874 266.483 16.7874ZM263.436 16.7874H263.291C262.936 16.7874 262.65 16.5013 262.65 16.1468C262.65 15.7923 262.936 15.5061 263.291 15.5061H263.436C263.79 15.5061 264.077 15.7923 264.077 16.1468C264.077 16.5013 263.79 16.7874 263.436 16.7874ZM260.389 16.7874H260.244C259.89 16.7874 259.603 16.5013 259.603 16.1468C259.603 15.7923 259.89 15.5061 260.244 15.5061H260.389C260.744 15.5061 261.03 15.7923 261.03 16.1468C261.03 16.5013 260.744 16.7874 260.389 16.7874ZM257.343 16.7874H257.197C256.843 16.7874 256.557 16.5013 256.557 16.1468C256.557 15.7923 256.843 15.5061 257.197 15.5061H257.343C257.697 15.5061 257.983 15.7923 257.983 16.1468C257.983 16.5013 257.697 16.7874 257.343 16.7874ZM254.296 16.7874H254.151C253.796 16.7874 253.51 16.5013 253.51 16.1468C253.51 15.7923 253.796 15.5061 254.151 15.5061H254.296C254.651 15.5061 254.937 15.7923 254.937 16.1468C254.937 16.5013 254.651 16.7874 254.296 16.7874Z" fill="#612E86"/>
<path d="M239.288 50.1334C238.934 50.1334 238.647 49.8472 238.647 49.4928V49.4216C238.647 49.0671 238.934 48.7809 239.288 48.7809C239.643 48.7809 239.929 49.0671 239.929 49.4216V49.4928C239.929 49.8472 239.643 50.1334 239.288 50.1334Z" fill="#612E86"/>
<path d="M275.548 18.0247C276.586 18.0247 277.428 17.1834 277.428 16.1455C277.428 15.1077 276.586 14.2663 275.548 14.2663C274.51 14.2663 273.669 15.1077 273.669 16.1455C273.669 17.1834 274.51 18.0247 275.548 18.0247Z" fill="#612E86"/>
<path d="M252.623 37.116H196.31C195.261 37.116 194.412 37.9656 194.412 39.0137V73.1698C194.412 74.2178 195.261 75.0675 196.31 75.0675H252.623C253.671 75.0675 254.521 74.2178 254.521 73.1698V39.0137C254.521 37.9656 253.671 37.116 252.623 37.116Z" fill="#CFFFE6"/>
<path d="M249.229 70.7915H198.691V44.4669C203.401 44.4669 203.893 48.0872 203.812 50.143C203.73 52.2001 204.47 52.5546 206.61 52.1731C208.748 51.7887 213.576 50.5273 216.975 53.1597C220.375 55.792 219.499 61.33 219.993 63.0839C220.487 64.8407 221.688 65.5439 223.336 64.7851C226.689 63.2433 234.6 61.0011 242.422 64.8407C245.423 66.3113 247.641 68.5692 249.229 70.7901V70.7915Z" fill="#98B643"/>
<path d="M228.194 50.3052C230.957 50.4376 230.134 57.6768 232.109 59.5831C234.083 61.4894 236.058 62.5315 235.289 63.7373C234.522 64.9446 229.092 68.1791 225.8 64.2854C222.51 60.3917 224.649 53.8102 224.649 53.8102L228.194 50.3052Z" fill="#0F2466"/>
<path d="M221.028 60.1997C221.028 60.1997 222.015 59.4324 222.18 57.4991C222.345 55.5657 222.217 55.0945 222.217 55.0945L224.278 54.8254L225.8 59.5833L224.483 62.6413L221.028 62.2099V60.2011V60.1997Z" fill="#F48CB3"/>
<path d="M215.681 70.6491C215.681 70.6491 215.557 64.0676 221.028 60.201C221.028 60.201 221.275 61.8467 223.127 60.9413C224.978 60.0358 225.8 59.5845 225.8 59.5845C225.8 59.5845 230.449 62.4631 230.984 70.6491H215.683H215.681Z" fill="#3925C3"/>
<path d="M227.015 53.7995C226.667 55.2872 225.52 56.4645 224.034 56.819C223.292 56.9955 222.478 57.0995 221.75 56.9899C219.748 56.688 218.514 53.398 219.502 50.2987C220.489 47.1994 223.944 46.6784 226.413 47.6393C228.003 48.2586 227.543 51.543 227.015 53.7995Z" fill="#F48CB3"/>
<path d="M224.483 52.1219C224.128 51.8642 223.853 53.1526 223.332 52.9619C222.811 52.7711 219.383 51.9055 218.396 50.1374C217.409 48.3692 219.753 43.7623 224.977 44.7489C230.201 45.7355 227.509 54.3741 227.509 54.3741C227.509 54.3741 226.149 54.0652 225.8 53.2224C225.452 52.3796 224.483 52.1219 224.483 52.1219Z" fill="#0F2466"/>
<path d="M238.518 42.493H249.397C249.864 42.493 250.243 42.8717 250.243 43.3387V45.5553C250.243 46.0222 249.864 46.4009 249.397 46.4009H238.518C238.051 46.4009 237.672 46.0222 237.672 45.5553V43.3387C237.672 42.8717 238.051 42.493 238.518 42.493Z" fill="#98B643"/>
<path d="M241.096 45.1947C241.509 44.781 241.509 44.1104 241.096 43.6968C240.682 43.2831 240.011 43.2831 239.598 43.6967C239.184 44.1104 239.184 44.781 239.598 45.1947C240.011 45.6083 240.682 45.6083 241.096 45.1947Z" fill="#FFFB86"/>
<path d="M244.363 45.425C244.903 45.2012 245.16 44.5815 244.936 44.0411C244.712 43.5007 244.093 43.244 243.552 43.4679C243.012 43.6917 242.755 44.3113 242.979 44.8518C243.203 45.3922 243.822 45.6489 244.363 45.425Z" fill="#FFFB86"/>
<path d="M248.317 45.1982C248.731 44.7845 248.731 44.1139 248.317 43.7003C247.904 43.2866 247.233 43.2866 246.819 43.7003C246.406 44.1139 246.406 44.7845 246.819 45.1982C247.233 45.6118 247.904 45.6118 248.317 45.1982Z" fill="#FFFB86"/>
<path d="M304.707 1.85599V28.7814C304.707 29.664 303.989 30.3816 303.107 30.3816H274.743C273.861 30.3816 273.143 29.664 273.143 28.7814V1.85599C273.143 0.971911 273.861 0.254395 274.743 0.254395H303.107C303.989 0.254395 304.707 0.971911 304.707 1.85599Z" fill="#FFFC9E"/>
<path d="M304.707 1.85599V2.99633H273.143V1.85599C273.143 0.971911 273.861 0.254395 274.743 0.254395H303.107C303.989 0.254395 304.707 0.971911 304.707 1.85599Z" fill="#FAB23C"/>
<path d="M289.369 14.5382L283.704 5.96927C288.545 3.26149 294.747 4.71076 297.855 9.41164C298.981 11.1157 299.588 13.0604 299.628 15.0763L289.37 14.5382H289.369Z" fill="#28A29F"/>
<path d="M294.828 24.2424C292.667 25.6717 290.118 26.2597 287.573 25.9322L289.571 16.1475L299.542 16.67C299.146 19.7379 297.424 22.5269 294.828 24.2424Z" fill="#F4433D"/>
<path d="M286.008 25.6157C283.539 24.921 281.425 23.382 279.995 21.2195C276.888 16.5201 277.984 10.2432 282.372 6.85066L288.076 15.4794L286.008 25.6143V25.6157Z" fill="#3C34CD"/>
<path d="M276.17 1.84239C276.17 2.18549 275.891 2.46452 275.548 2.46452C275.205 2.46452 274.926 2.18549 274.926 1.84239C274.926 1.49929 275.205 1.22026 275.548 1.22026C275.891 1.22026 276.17 1.49929 276.17 1.84239Z" fill="#F4433D"/>
<path d="M278.291 1.84239C278.291 2.18549 278.012 2.46452 277.669 2.46452C277.326 2.46452 277.047 2.18549 277.047 1.84239C277.047 1.49929 277.326 1.22026 277.669 1.22026C278.012 1.22026 278.291 1.49929 278.291 1.84239Z" fill="#FFEB09"/>
<path d="M280.412 1.84239C280.412 2.18549 280.133 2.46452 279.79 2.46452C279.447 2.46452 279.168 2.18549 279.168 1.84239C279.168 1.49929 279.447 1.22026 279.79 1.22026C280.133 1.22026 280.412 1.49929 280.412 1.84239Z" fill="#4EC932"/>
<path d="M275.548 101.637C275.194 101.637 274.908 101.35 274.908 100.996V100.854C274.908 100.499 275.194 100.213 275.548 100.213C275.903 100.213 276.189 100.499 276.189 100.854V100.996C276.189 101.35 275.903 101.637 275.548 101.637ZM275.548 98.647C275.194 98.647 274.908 98.3608 274.908 98.0063V97.864C274.908 97.5095 275.194 97.2233 275.548 97.2233C275.903 97.2233 276.189 97.5095 276.189 97.864V98.0063C276.189 98.3608 275.903 98.647 275.548 98.647ZM275.548 95.6573C275.194 95.6573 274.908 95.3712 274.908 95.0167V94.8743C274.908 94.5198 275.194 94.2337 275.548 94.2337C275.903 94.2337 276.189 94.5198 276.189 94.8743V95.0167C276.189 95.3712 275.903 95.6573 275.548 95.6573ZM275.548 92.6677C275.194 92.6677 274.908 92.3815 274.908 92.027V91.8847C274.908 91.5302 275.194 91.244 275.548 91.244C275.903 91.244 276.189 91.5302 276.189 91.8847V92.027C276.189 92.3815 275.903 92.6677 275.548 92.6677ZM275.548 89.678C275.194 89.678 274.908 89.3919 274.908 89.0374V88.895C274.908 88.5405 275.194 88.2544 275.548 88.2544C275.903 88.2544 276.189 88.5405 276.189 88.895V89.0374C276.189 89.3919 275.903 89.678 275.548 89.678ZM275.548 86.6884C275.194 86.6884 274.908 86.4022 274.908 86.0477V85.9053C274.908 85.5509 275.194 85.2647 275.548 85.2647C275.903 85.2647 276.189 85.5509 276.189 85.9053V86.0477C276.189 86.4022 275.903 86.6884 275.548 86.6884ZM275.548 83.6987C275.194 83.6987 274.908 83.4125 274.908 83.0581V82.9157C274.908 82.5612 275.194 82.2751 275.548 82.2751C275.903 82.2751 276.189 82.5612 276.189 82.9157V83.0581C276.189 83.4125 275.903 83.6987 275.548 83.6987ZM275.548 80.709C275.194 80.709 274.908 80.4229 274.908 80.0684V79.926C274.908 79.5716 275.194 79.2854 275.548 79.2854C275.903 79.2854 276.189 79.5716 276.189 79.926V80.0684C276.189 80.4229 275.903 80.709 275.548 80.709ZM275.548 77.7194C275.194 77.7194 274.908 77.4332 274.908 77.0788V76.9364C274.908 76.5819 275.194 76.2957 275.548 76.2957C275.903 76.2957 276.189 76.5819 276.189 76.9364V77.0788C276.189 77.4332 275.903 77.7194 275.548 77.7194ZM276.007 74.7824C275.937 74.7824 275.864 74.771 275.794 74.7468C275.46 74.6301 275.285 74.2642 275.402 73.9297C275.419 73.8812 275.436 73.8343 275.453 73.7859C275.575 73.4542 275.943 73.2833 276.276 73.4058C276.607 73.5282 276.778 73.8969 276.656 74.2286C276.64 74.2699 276.626 74.3112 276.612 74.3525C276.519 74.6159 276.271 74.781 276.007 74.781V74.7824ZM277.479 72.1999C277.333 72.1999 277.188 72.1515 277.067 72.0504C276.795 71.8227 276.76 71.4198 276.987 71.1479C277.02 71.108 277.054 71.0695 277.089 71.0297C277.321 70.7635 277.726 70.735 277.993 70.967C278.259 71.1991 278.287 71.6048 278.055 71.8711C278.027 71.9038 277.998 71.9366 277.971 71.9693C277.845 72.1202 277.662 72.1985 277.48 72.1985L277.479 72.1999ZM279.771 70.3065C279.546 70.3065 279.328 70.1883 279.211 69.9776C279.039 69.6687 279.149 69.2786 279.458 69.1063C279.502 69.0821 279.547 69.0565 279.591 69.0323C279.903 68.8643 280.292 68.9811 280.46 69.2928C280.628 69.6046 280.511 69.9933 280.199 70.1613C280.161 70.1826 280.121 70.204 280.082 70.2253C279.983 70.2809 279.876 70.3065 279.771 70.3065ZM282.585 69.3498C282.272 69.3498 281.999 69.1206 281.952 68.8017C281.9 68.4515 282.144 68.1269 282.494 68.0756C282.544 68.0685 282.595 68.0614 282.646 68.0543C282.995 68.0101 283.318 68.2564 283.364 68.6081C283.41 68.9583 283.16 69.28 282.81 69.3256C282.766 69.3313 282.723 69.337 282.681 69.3441C282.649 69.3484 282.618 69.3512 282.588 69.3512L282.585 69.3498ZM294.682 69.2644H294.54C294.185 69.2644 293.899 68.9782 293.899 68.6237C293.899 68.2692 294.185 67.9831 294.54 67.9831H294.682C295.036 67.9831 295.323 68.2692 295.323 68.6237C295.323 68.9782 295.036 69.2644 294.682 69.2644ZM291.692 69.2644H291.55C291.195 69.2644 290.909 68.9782 290.909 68.6237C290.909 68.2692 291.195 67.9831 291.55 67.9831H291.692C292.047 67.9831 292.333 68.2692 292.333 68.6237C292.333 68.9782 292.047 69.2644 291.692 69.2644ZM288.703 69.2644H288.56C288.206 69.2644 287.92 68.9782 287.92 68.6237C287.92 68.2692 288.206 67.9831 288.56 67.9831H288.703C289.057 67.9831 289.343 68.2692 289.343 68.6237C289.343 68.9782 289.057 69.2644 288.703 69.2644ZM285.713 69.2644H285.571C285.216 69.2644 284.93 68.9782 284.93 68.6237C284.93 68.2692 285.216 67.9831 285.571 67.9831H285.713C286.067 67.9831 286.354 68.2692 286.354 68.6237C286.354 68.9782 286.067 69.2644 285.713 69.2644Z" fill="#612E86"/>
<path d="M352.944 49.214V85.4728C352.944 86.2657 352.107 86.9092 351.072 86.9092H296.554C295.52 86.9092 294.682 86.2672 294.682 85.4728V49.214C294.682 48.421 295.519 47.7775 296.554 47.7775H351.072C352.106 47.7775 352.944 48.4196 352.944 49.214Z" fill="#CFF2FF"/>
<path d="M352.944 49.372V53.4721H294.682V49.372C294.682 48.4907 295.395 47.7775 296.276 47.7775H351.35C352.231 47.7775 352.944 48.4907 352.944 49.372Z" fill="#32CADB"/>
<path d="M305.22 51.7748C305.817 51.7748 306.302 51.2904 306.302 50.6928C306.302 50.0953 305.817 49.6109 305.22 49.6109C304.622 49.6109 304.138 50.0953 304.138 50.6928C304.138 51.2904 304.622 51.7748 305.22 51.7748Z" fill="#FDFF00"/>
<path d="M301.886 51.7748C302.483 51.7748 302.968 51.2904 302.968 50.6928C302.968 50.0953 302.483 49.6109 301.886 49.6109C301.288 49.6109 300.804 50.0953 300.804 50.6928C300.804 51.2904 301.288 51.7748 301.886 51.7748Z" fill="#00B639"/>
<path d="M298.551 51.7748C299.149 51.7748 299.633 51.2904 299.633 50.6928C299.633 50.0953 299.149 49.6109 298.551 49.6109C297.954 49.6109 297.469 50.0953 297.469 50.6928C297.469 51.2904 297.954 51.7748 298.551 51.7748Z" fill="#FE000C"/>
<path d="M300.843 63.5135C303.078 60.6035 306.548 58.8482 310.209 58.7742V70.4011L300.843 63.512V63.5135Z" fill="#FAA700"/>
<path d="M310.689 58.7742C316.765 58.8952 321.881 63.6103 322.489 69.6522L310.689 70.616V58.7742Z" fill="#A52AB2"/>
<path d="M310.47 82.9571C303.796 82.9571 298.366 77.5273 298.366 70.8533C298.366 68.332 299.131 65.926 300.58 63.8774L310.4 71.0996L322.548 70.1073C322.565 70.3735 322.574 70.6198 322.574 70.8533C322.574 77.5273 317.144 82.9571 310.47 82.9571Z" fill="#0C9FB4"/>
<path d="M349.626 58.9888H331.89C331.772 58.9888 331.677 58.8934 331.677 58.7752C331.677 58.657 331.772 58.5617 331.89 58.5617H349.626C349.744 58.5617 349.839 58.657 349.839 58.7752C349.839 58.8934 349.744 58.9888 349.626 58.9888Z" fill="white"/>
<path d="M330.562 58.9888H327.313C327.195 58.9888 327.1 58.8934 327.1 58.7752C327.1 58.657 327.195 58.5617 327.313 58.5617H330.562C330.68 58.5617 330.775 58.657 330.775 58.7752C330.775 58.8934 330.68 58.9888 330.562 58.9888Z" fill="white"/>
<path d="M349.626 62.2727H331.89C331.772 62.2727 331.677 62.1773 331.677 62.0591C331.677 61.941 331.772 61.8456 331.89 61.8456H349.626C349.744 61.8456 349.839 61.941 349.839 62.0591C349.839 62.1773 349.744 62.2727 349.626 62.2727Z" fill="white"/>
<path d="M330.562 62.2727H327.313C327.195 62.2727 327.1 62.1773 327.1 62.0591C327.1 61.941 327.195 61.8456 327.313 61.8456H330.562C330.68 61.8456 330.775 61.941 330.775 62.0591C330.775 62.1773 330.68 62.2727 330.562 62.2727Z" fill="white"/>
<path d="M349.626 65.5566H327.313C327.195 65.5566 327.1 65.4612 327.1 65.3431C327.1 65.2249 327.195 65.1295 327.313 65.1295H349.626C349.744 65.1295 349.839 65.2249 349.839 65.3431C349.839 65.4612 349.744 65.5566 349.626 65.5566Z" fill="white"/>
<path d="M349.626 68.837H327.313C327.195 68.837 327.1 68.7416 327.1 68.6235C327.1 68.5053 327.195 68.4099 327.313 68.4099H349.626C349.744 68.4099 349.839 68.5053 349.839 68.6235C349.839 68.7416 349.744 68.837 349.626 68.837Z" fill="white"/>
<path d="M349.626 72.121H327.313C327.195 72.121 327.1 72.0256 327.1 71.9074C327.1 71.7893 327.195 71.6939 327.313 71.6939H349.626C349.744 71.6939 349.839 71.7893 349.839 71.9074C349.839 72.0256 349.744 72.121 349.626 72.121Z" fill="white"/>
<path d="M349.626 75.4049H327.313C327.195 75.4049 327.1 75.3095 327.1 75.1913C327.1 75.0732 327.195 74.9778 327.313 74.9778H349.626C349.744 74.9778 349.839 75.0732 349.839 75.1913C349.839 75.3095 349.744 75.4049 349.626 75.4049Z" fill="white"/>
<path d="M349.626 78.6888H327.313C327.195 78.6888 327.1 78.5934 327.1 78.4753C327.1 78.3571 327.195 78.2617 327.313 78.2617H349.626C349.744 78.2617 349.839 78.3571 349.839 78.4753C349.839 78.5934 349.744 78.6888 349.626 78.6888Z" fill="white"/>
<path d="M349.626 81.9692H327.313C327.195 81.9692 327.1 81.8739 327.1 81.7557C327.1 81.6375 327.195 81.5421 327.313 81.5421H349.626C349.744 81.5421 349.839 81.6375 349.839 81.7557C349.839 81.8739 349.744 81.9692 349.626 81.9692Z" fill="white"/>
<path d="M287.36 97.5682H263.09C262.776 97.5682 262.521 97.8232 262.521 98.1377V125.885C262.521 126.199 262.776 126.454 263.09 126.454H287.36C287.675 126.454 287.93 126.199 287.93 125.885V98.1377C287.93 97.8232 287.675 97.5682 287.36 97.5682Z" fill="#BEFFDE"/>
<path d="M279.523 107.074L275.232 105.743L270.941 107.074C270.941 107.074 267.083 113.681 270.941 118.119H279.523C283.381 113.68 279.523 107.074 279.523 107.074Z" fill="#9AB942"/>
<path d="M281.177 115.874C280.093 114.387 275.227 113.681 275.227 113.681C275.227 113.681 270.359 114.387 269.276 115.874C268.434 117.028 267.563 120.41 267.214 121.872C267.13 122.222 267.397 122.557 267.757 122.557H282.698C283.058 122.557 283.323 122.221 283.24 121.872C282.892 120.412 282.02 117.029 281.179 115.874H281.177Z" fill="#00B075"/>
<path d="M276.227 113.755L276.259 111.763H274.192L274.186 113.755C274.186 113.755 271.998 114.146 271.554 114.553C271.122 114.949 275.225 116.857 275.225 116.857C275.225 116.857 279.425 114.976 278.897 114.553C278.364 114.128 276.227 113.755 276.227 113.755Z" fill="#FE824D"/>
<path d="M281.166 105.778C280.333 102.136 277.988 103.415 277.988 103.415C277.156 101.462 275.232 101.462 275.232 101.462C275.232 101.462 273.309 101.462 272.476 103.415C272.476 103.415 270.131 102.136 269.298 105.778C268.749 108.181 271.521 110.022 271.521 110.022H278.942C278.942 110.022 281.714 108.181 281.165 105.778H281.166Z" fill="#9AB942"/>
<path d="M278.944 109.046C278.944 111.606 277.282 113.68 275.234 113.68C273.185 113.68 271.524 111.606 271.524 109.046C271.524 106.486 271.524 104.412 275.234 104.412C278.944 104.412 278.944 106.486 278.944 109.046Z" fill="#FE824D"/>
<path d="M271.909 108.119C271.909 108.119 271.309 107.34 270.736 108.119C270.056 109.046 271.645 110.351 271.909 110.521V108.119Z" fill="#FE824D"/>
<path d="M278.555 108.119C278.555 108.119 279.156 107.34 279.728 108.119C280.409 109.046 278.82 110.351 278.555 110.521V108.119Z" fill="#FE824D"/>
<path d="M275.232 103.73C271.522 103.73 271.239 106.851 271.538 107.826C272.312 108.433 273.592 107.248 273.611 106.33C273.951 107.077 275.232 107.058 275.232 107.058C275.232 107.058 276.512 107.076 276.854 106.33C276.872 107.247 278.152 108.433 278.927 107.826C279.226 106.851 278.944 103.73 275.232 103.73Z" fill="#9AB942"/>
<path d="M60.9837 94.2527V129.58C60.9837 130.225 60.4612 130.748 59.8163 130.748H1.56928C0.924364 130.748 0.401894 130.225 0.401894 129.58V94.2527C0.401894 93.6106 0.924364 93.0853 1.56928 93.0853H59.8163C60.4612 93.0853 60.9837 93.6106 60.9837 94.2527Z" fill="#B9BEFF"/>
<path d="M56.5077 128.253V135.289C56.5077 135.93 55.7674 136.286 55.2677 135.887L43.2749 128.253H56.5092H56.5077Z" fill="#B9BEFF"/>
<path d="M60.9835 94.2527V96.7996H0.400345V94.2527C0.400345 93.6106 0.922824 93.0853 1.56774 93.0853H59.8147C60.4596 93.0853 60.9821 93.6106 60.9821 94.2527H60.9835Z" fill="#292F71"/>
<path d="M3.39994 94.9371C3.39994 95.4283 3.00131 95.8283 2.50873 95.8283C2.01615 95.8283 1.61753 95.4297 1.61753 94.9371C1.61753 94.4446 2.01615 94.0459 2.50873 94.0459C3.00131 94.0459 3.39994 94.4446 3.39994 94.9371Z" fill="#FC0F00"/>
<path d="M6.43515 94.9371C6.43515 95.4283 6.03654 95.8283 5.54395 95.8283C5.05137 95.8283 4.65275 95.4297 4.65275 94.9371C4.65275 94.4446 5.05137 94.0459 5.54395 94.0459C6.03654 94.0459 6.43515 94.4446 6.43515 94.9371Z" fill="#95FF00"/>
<path d="M9.47191 94.9371C9.47191 95.4283 9.07329 95.8283 8.5807 95.8283C8.08812 95.8283 7.68951 95.4297 7.68951 94.9371C7.68951 94.4446 8.08812 94.0459 8.5807 94.0459C9.07329 94.0459 9.47191 94.4446 9.47191 94.9371Z" fill="#FFF200"/>
<path d="M29.2733 113.815C29.2733 116.754 28.2425 119.455 26.5228 121.569C24.2692 124.348 20.8239 126.123 16.9644 126.123C13.1049 126.123 9.65971 124.348 7.40608 121.569C5.68632 119.455 4.6556 116.754 4.6556 113.815C4.6556 107.015 10.1651 101.506 16.9644 101.506C23.7638 101.506 29.2733 107.015 29.2733 113.815Z" fill="#78CFFF"/>
<path d="M22.3458 113.581C23.0221 112.999 23.9076 112.123 23.7937 108.936C23.6343 104.483 20.7471 102.741 16.9659 102.741C13.1847 102.741 10.2975 104.483 10.1381 108.936C10.0242 112.123 10.9097 113 11.5859 113.581C9.57434 115.389 9.36221 118.058 10.7076 122.507H23.2271C24.571 118.058 24.3603 115.389 22.3487 113.581H22.3458Z" fill="#0D2070"/>
<path d="M26.5228 121.567C24.2692 124.346 20.8239 126.122 16.9644 126.122C13.1049 126.122 9.65972 124.346 7.40609 121.567C7.9428 120.344 9.55437 117.839 14.0887 116.419V116.417C14.3919 116.323 14.7108 116.233 15.0439 116.148H18.8864C24.151 117.493 25.9491 120.259 26.5242 121.566L26.5228 121.567Z" fill="#AF4473"/>
<path d="M18.8864 116.151H15.044C14.7109 116.235 14.3934 116.326 14.0888 116.42V116.423C14.0944 116.517 14.829 119.129 16.9645 119.129C19.1 119.129 19.8346 116.516 19.8403 116.423V116.42C19.537 116.326 19.2181 116.237 18.885 116.151H18.8864Z" fill="#F6A191"/>
<path d="M19.0615 117.306H14.8689L15.0995 114.488L15.2533 112.625H18.6757L18.8281 114.478L19.0615 117.306Z" fill="#F6A191"/>
<path d="M18.8281 114.478L18.8538 114.794C16.3752 115.802 15.1025 114.783 15.1025 114.783L15.0996 114.487L15.2548 112.625H18.6772L18.8296 114.478H18.8281Z" fill="#F47386"/>
<path d="M21.4419 109.878C21.4419 112.528 19.4374 114.676 16.9645 114.676C14.4917 114.676 12.4872 112.528 12.4872 109.878C12.4872 107.229 12.4872 105.081 16.9645 105.081C21.4419 105.081 21.4419 107.229 21.4419 109.878Z" fill="#F6A191"/>
<path d="M13.5321 110.153C13.7769 110.943 13.609 111.698 13.1577 111.839C12.7049 111.98 12.1398 111.453 11.8949 110.663C11.65 109.873 11.818 109.118 12.2693 108.977C12.722 108.836 13.2872 109.363 13.5321 110.153Z" fill="#F6A191"/>
<path d="M20.3969 110.153C20.152 110.943 20.32 111.698 20.7713 111.839C21.224 111.98 21.7892 111.453 22.0341 110.663C22.2789 109.873 22.1109 109.118 21.6597 108.977C21.2069 108.836 20.6417 109.363 20.3969 110.153Z" fill="#F6A191"/>
<path d="M12.4957 108.959L12.8402 110.055C12.8402 110.055 13.2787 108.639 14.4461 108.364C15.6135 108.091 18.68 107.925 18.8537 106.903C19.0089 108.035 20.0154 108.523 20.3955 108.965C20.7756 109.406 20.8696 110.603 20.9066 110.404C20.9436 110.205 21.4718 108.673 21.8562 108.363C22.2391 108.052 22.2221 104.311 18.8551 103.727C15.4882 103.143 13.4994 103.764 12.715 105.078C11.9305 106.392 12.4971 108.958 12.4971 108.958L12.4957 108.959Z" fill="#0D2070"/>
<path d="M56.508 102.599H30.693V102.884H56.508V102.599Z" fill="white"/>
<path d="M56.508 106.494H30.693V106.779H56.508V106.494Z" fill="white"/>
<path d="M56.508 110.393H30.693V110.678H56.508V110.393Z" fill="white"/>
<path d="M56.508 114.288H30.693V114.573H56.508V114.288Z" fill="white"/>
<path d="M56.508 118.187H30.693V118.471H56.508V118.187Z" fill="white"/>
<path d="M56.508 122.082H30.693V122.366H56.508V122.082Z" fill="white"/>
<path d="M56.508 125.98H30.693V126.265H56.508V125.98Z" fill="white"/>
<path d="M56.5079 102.956H30.693C30.5748 102.956 30.4795 102.861 30.4795 102.743C30.4795 102.624 30.5748 102.529 30.693 102.529H56.5079C56.6261 102.529 56.7215 102.624 56.7215 102.743C56.7215 102.861 56.6261 102.956 56.5079 102.956Z" fill="white"/>
<path d="M56.5079 106.851H30.693C30.5748 106.851 30.4795 106.756 30.4795 106.638C30.4795 106.52 30.5748 106.424 30.693 106.424H56.5079C56.6261 106.424 56.7215 106.52 56.7215 106.638C56.7215 106.756 56.6261 106.851 56.5079 106.851Z" fill="white"/>
<path d="M56.5079 110.746H30.693C30.5748 110.746 30.4795 110.651 30.4795 110.533C30.4795 110.415 30.5748 110.319 30.693 110.319H56.5079C56.6261 110.319 56.7215 110.415 56.7215 110.533C56.7215 110.651 56.6261 110.746 56.5079 110.746Z" fill="white"/>
<path d="M56.5079 114.645H30.693C30.5748 114.645 30.4795 114.549 30.4795 114.431C30.4795 114.313 30.5748 114.218 30.693 114.218H56.5079C56.6261 114.218 56.7215 114.313 56.7215 114.431C56.7215 114.549 56.6261 114.645 56.5079 114.645Z" fill="white"/>
<path d="M56.5079 118.543H30.693C30.5748 118.543 30.4795 118.448 30.4795 118.33C30.4795 118.212 30.5748 118.116 30.693 118.116H56.5079C56.6261 118.116 56.7215 118.212 56.7215 118.33C56.7215 118.448 56.6261 118.543 56.5079 118.543Z" fill="white"/>
<path d="M56.5079 122.439H30.693C30.5748 122.439 30.4795 122.343 30.4795 122.225C30.4795 122.107 30.5748 122.011 30.693 122.011H56.5079C56.6261 122.011 56.7215 122.107 56.7215 122.225C56.7215 122.343 56.6261 122.439 56.5079 122.439Z" fill="white"/>
<path d="M56.5079 126.337H30.693C30.5748 126.337 30.4795 126.242 30.4795 126.124C30.4795 126.005 30.5748 125.91 30.693 125.91H56.5079C56.6261 125.91 56.7215 126.005 56.7215 126.124C56.7215 126.242 56.6261 126.337 56.5079 126.337Z" fill="white"/>
<path d="M210.385 124.388H210.243C209.888 124.388 209.602 124.101 209.602 123.747C209.602 123.392 209.888 123.106 210.243 123.106H210.385C210.74 123.106 211.026 123.392 211.026 123.747C211.026 124.101 210.74 124.388 210.385 124.388ZM207.395 124.388H207.253C206.899 124.388 206.612 124.101 206.612 123.747C206.612 123.392 206.899 123.106 207.253 123.106H207.395C207.75 123.106 208.036 123.392 208.036 123.747C208.036 124.101 207.75 124.388 207.395 124.388ZM204.406 124.388H204.263C203.909 124.388 203.623 124.101 203.623 123.747C203.623 123.392 203.909 123.106 204.263 123.106H204.406C204.76 123.106 205.046 123.392 205.046 123.747C205.046 124.101 204.76 124.388 204.406 124.388ZM201.416 124.388H201.274C200.919 124.388 200.633 124.101 200.633 123.747C200.633 123.392 200.919 123.106 201.274 123.106H201.416C201.771 123.106 202.057 123.392 202.057 123.747C202.057 124.101 201.771 124.388 201.416 124.388ZM198.426 124.388H198.284C197.93 124.388 197.643 124.101 197.643 123.747C197.643 123.392 197.93 123.106 198.284 123.106H198.426C198.781 123.106 199.067 123.392 199.067 123.747C199.067 124.101 198.781 124.388 198.426 124.388ZM195.437 124.388H195.294C194.94 124.388 194.654 124.101 194.654 123.747C194.654 123.392 194.94 123.106 195.294 123.106H195.437C195.791 123.106 196.077 123.392 196.077 123.747C196.077 124.101 195.791 124.388 195.437 124.388ZM192.447 124.388H192.305C191.95 124.388 191.664 124.101 191.664 123.747C191.664 123.392 191.95 123.106 192.305 123.106H192.447C192.802 123.106 193.088 123.392 193.088 123.747C193.088 124.101 192.802 124.388 192.447 124.388ZM189.457 124.388H189.315C188.961 124.388 188.674 124.101 188.674 123.747C188.674 123.392 188.961 123.106 189.315 123.106H189.457C189.812 123.106 190.098 123.392 190.098 123.747C190.098 124.101 189.812 124.388 189.457 124.388ZM186.468 124.388H186.325C185.971 124.388 185.685 124.101 185.685 123.747C185.685 123.392 185.971 123.106 186.325 123.106H186.468C186.822 123.106 187.108 123.392 187.108 123.747C187.108 124.101 186.822 124.388 186.468 124.388ZM213.232 124.366C212.895 124.366 212.612 124.103 212.593 123.761C212.573 123.408 212.844 123.105 213.197 123.086L213.332 123.078C213.681 123.054 213.99 123.321 214.014 123.674C214.037 124.027 213.77 124.332 213.417 124.356C213.368 124.359 213.318 124.362 213.268 124.365C213.257 124.365 213.244 124.365 213.232 124.365V124.366ZM216.172 123.869C215.895 123.869 215.638 123.687 215.557 123.405C215.459 123.065 215.655 122.711 215.996 122.612C216.04 122.599 216.082 122.587 216.125 122.574C216.464 122.473 216.821 122.665 216.922 123.004C217.023 123.343 216.831 123.7 216.492 123.801C216.444 123.815 216.397 123.829 216.35 123.844C216.29 123.861 216.231 123.869 216.172 123.869ZM218.928 122.728C218.703 122.728 218.484 122.608 218.367 122.397C218.197 122.088 218.308 121.698 218.618 121.526C218.658 121.505 218.696 121.482 218.736 121.461C219.044 121.285 219.435 121.394 219.61 121.701C219.785 122.009 219.677 122.4 219.37 122.574C219.327 122.598 219.283 122.622 219.24 122.646C219.142 122.701 219.035 122.726 218.93 122.726L218.928 122.728ZM221.358 120.999C221.182 120.999 221.008 120.927 220.882 120.786C220.645 120.522 220.668 120.117 220.931 119.882L221.032 119.791C221.293 119.553 221.699 119.57 221.938 119.832C222.176 120.094 222.157 120.498 221.897 120.737L221.787 120.837C221.665 120.947 221.512 121.001 221.36 121.001L221.358 120.999ZM223.346 118.776C223.218 118.776 223.088 118.737 222.976 118.657C222.687 118.452 222.62 118.052 222.825 117.765C222.85 117.728 222.878 117.691 222.903 117.654C223.105 117.363 223.504 117.292 223.794 117.493C224.085 117.695 224.156 118.094 223.955 118.384C223.927 118.425 223.898 118.465 223.87 118.506C223.745 118.682 223.548 118.776 223.347 118.776H223.346ZM224.791 116.166C224.71 116.166 224.626 116.15 224.546 116.118C224.219 115.982 224.065 115.608 224.2 115.281L224.251 115.154C224.384 114.826 224.757 114.667 225.086 114.799C225.413 114.932 225.572 115.305 225.44 115.632C225.422 115.679 225.403 115.725 225.383 115.77C225.281 116.017 225.043 116.166 224.791 116.166ZM225.617 113.297C225.581 113.297 225.545 113.295 225.51 113.289C225.161 113.23 224.925 112.9 224.983 112.551L225.004 112.416C225.06 112.067 225.387 111.828 225.736 111.882C226.086 111.938 226.324 112.265 226.27 112.614L226.246 112.761C226.193 113.074 225.923 113.296 225.615 113.296L225.617 113.297ZM225.8 110.319C225.446 110.319 225.16 110.033 225.16 109.678V109.536C225.16 109.182 225.446 108.895 225.8 108.895C226.155 108.895 226.441 109.182 226.441 109.536V109.678C226.441 110.033 226.155 110.319 225.8 110.319ZM225.8 107.329C225.446 107.329 225.16 107.043 225.16 106.689V106.546C225.16 106.192 225.446 105.906 225.8 105.906C226.155 105.906 226.441 106.192 226.441 106.546V106.689C226.441 107.043 226.155 107.329 225.8 107.329ZM225.8 104.34C225.446 104.34 225.16 104.054 225.16 103.699V103.557C225.16 103.202 225.446 102.916 225.8 102.916C226.155 102.916 226.441 103.202 226.441 103.557V103.699C226.441 104.054 226.155 104.34 225.8 104.34ZM225.8 101.35C225.446 101.35 225.16 101.064 225.16 100.71V100.567C225.16 100.213 225.446 99.9265 225.8 99.9265C226.155 99.9265 226.441 100.213 226.441 100.567V100.71C226.441 101.064 226.155 101.35 225.8 101.35ZM225.8 98.3605C225.446 98.3605 225.16 98.0743 225.16 97.7199V97.5775C225.16 97.223 225.446 96.9369 225.8 96.9369C226.155 96.9369 226.441 97.223 226.441 97.5775V97.7199C226.441 98.0743 226.155 98.3605 225.8 98.3605ZM225.8 95.3708C225.446 95.3708 225.16 95.0847 225.16 94.7302V94.5878C225.16 94.2334 225.446 93.9472 225.8 93.9472C226.155 93.9472 226.441 94.2334 226.441 94.5878V94.7302C226.441 95.0847 226.155 95.3708 225.8 95.3708ZM225.8 92.3812C225.446 92.3812 225.16 92.095 225.16 91.7405V91.5982C225.16 91.2437 225.446 90.9575 225.8 90.9575C226.155 90.9575 226.441 91.2437 226.441 91.5982V91.7405C226.441 92.095 226.155 92.3812 225.8 92.3812ZM225.8 89.3915C225.446 89.3915 225.16 89.1054 225.16 88.7509V88.6085C225.16 88.254 225.446 87.9679 225.8 87.9679C226.155 87.9679 226.441 88.254 226.441 88.6085V88.7509C226.441 89.1054 226.155 89.3915 225.8 89.3915ZM225.8 86.4019C225.446 86.4019 225.16 86.1157 225.16 85.7612V85.6189C225.16 85.2644 225.446 84.9782 225.8 84.9782C226.155 84.9782 226.441 85.2644 226.441 85.6189V85.7612C226.441 86.1157 226.155 86.4019 225.8 86.4019ZM225.8 83.4122C225.446 83.4122 225.16 83.1261 225.16 82.7716V82.6292C225.16 82.2747 225.446 81.9886 225.8 81.9886C226.155 81.9886 226.441 82.2747 226.441 82.6292V82.7716C226.441 83.1261 226.155 83.4122 225.8 83.4122ZM225.8 80.4226C225.446 80.4226 225.16 80.1364 225.16 79.7819V79.6396C225.16 79.2851 225.446 78.9989 225.8 78.9989C226.155 78.9989 226.441 79.2851 226.441 79.6396V79.7819C226.441 80.1364 226.155 80.4226 225.8 80.4226ZM225.8 77.4329C225.446 77.4329 225.16 77.1468 225.16 76.7923V76.6499C225.16 76.2954 225.446 76.0093 225.8 76.0093C226.155 76.0093 226.441 76.2954 226.441 76.6499V76.7923C226.441 77.1468 226.155 77.4329 225.8 77.4329ZM225.8 74.4433C225.446 74.4433 225.16 74.1571 225.16 73.8026V73.6603C225.16 73.3058 225.446 73.0196 225.8 73.0196C226.155 73.0196 226.441 73.3058 226.441 73.6603V73.8026C226.441 74.1571 226.155 74.4433 225.8 74.4433Z" fill="#612E86"/>
</svg>
