<svg width="272" height="234" viewBox="0 0 272 234" fill="none" xmlns="http://www.w3.org/2000/svg">
<g clip-path="url(#clip0_1_8577)">
<path d="M241.818 94.773C239.837 94.9941 238.257 96.3532 237.651 98.1298L202.356 92.1204C202.413 91.5473 202.405 90.966 202.339 90.3765C201.815 85.6689 197.558 82.263 192.85 82.7869C192.629 82.8115 192.416 82.8525 192.204 82.8934C189.772 74.3214 185.965 60.837 183.091 50.6521C184.958 49.7679 186.161 47.7702 185.924 45.6006C185.621 42.8742 183.157 40.8929 180.422 41.1958C177.696 41.4988 175.714 43.9631 176.017 46.6977C176.32 49.424 178.785 51.4053 181.519 51.1024C182.747 55.458 184.663 62.2534 186.587 69.0488C188.036 74.1658 189.477 79.2746 190.64 83.3519C187.136 84.7437 184.835 88.3461 185.269 92.2759C185.359 93.0783 185.564 93.8397 185.85 94.552L156.958 108.896C154.788 105.245 150.629 102.993 146.142 103.492C144.513 103.673 143.015 104.205 141.688 104.991L111.952 62.3434C116.185 59.044 118.666 53.7141 118.035 48.0076C117.307 41.4087 112.624 36.1935 106.614 34.4496L112.19 10.6247C112.476 10.6411 112.763 10.6411 113.066 10.6084C115.792 10.3054 117.773 7.84109 117.471 5.10655C117.168 2.37202 114.703 0.3989 111.969 0.701827C109.234 1.00475 107.261 3.46911 107.564 6.20364C107.769 8.06214 108.98 9.56859 110.601 10.2481L105.026 34.073C103.544 33.8028 102.005 33.7373 100.433 33.9092C91.689 34.8753 85.3684 42.7842 86.3427 51.5199C86.3918 51.9375 86.4655 52.355 86.5474 52.7644L51.5061 61.3692C50.2125 57.6767 46.5037 55.2124 42.4592 55.6627C37.7515 56.1867 34.3456 60.4358 34.8696 65.1517C35.3936 69.8593 39.6428 73.2652 44.3586 72.7412C49.0663 72.2172 52.4721 67.9599 51.9482 63.2604C51.94 63.1622 51.9154 63.0639 51.899 62.9657L86.9404 54.3609C89.11 61.5902 96.2001 66.4862 103.962 65.6183C106.418 65.3482 108.669 64.5131 110.626 63.285L140.362 105.932C137.521 108.249 135.875 111.901 136.301 115.806C136.776 120.055 139.592 123.486 143.326 124.951L136.031 148.571C135.171 148.391 134.263 148.342 133.346 148.44C128.638 148.964 125.232 153.222 125.756 157.929C125.822 158.535 125.953 159.125 126.141 159.681L108.596 167.418C107.597 165.904 105.812 164.987 103.888 165.2C101.162 165.503 99.1803 167.967 99.4832 170.701C99.7861 173.436 102.25 175.409 104.985 175.106C107.72 174.803 109.693 172.339 109.39 169.604C109.365 169.367 109.316 169.146 109.259 168.925L126.804 161.188C128.441 164.102 131.716 165.92 135.245 165.527C137.415 165.29 139.306 164.242 140.665 162.735L161.69 178.332C161.256 179.175 161.059 180.141 161.166 181.148C161.469 183.875 163.933 185.856 166.668 185.553C169.394 185.25 171.375 182.786 171.072 180.051C170.769 177.317 168.305 175.344 165.57 175.646C164.432 175.769 163.434 176.277 162.664 177.014L141.639 161.409C142.581 159.845 143.047 157.978 142.835 156.03C142.474 152.82 140.387 150.217 137.603 149.054L144.898 125.426C146.085 125.704 147.338 125.794 148.623 125.655C154.731 124.976 159.152 119.458 158.472 113.342C158.358 112.294 158.087 111.295 157.703 110.362L186.628 96.0011C188.347 98.6374 191.442 100.234 194.774 99.8655C198.319 99.4725 201.128 96.959 202.069 93.7333L237.413 99.7509C237.413 99.9228 237.422 100.103 237.446 100.283C237.749 103.018 240.213 104.991 242.948 104.688C245.674 104.385 247.656 101.921 247.353 99.186C247.05 96.4596 244.585 94.4783 241.851 94.7812L241.818 94.773ZM180.594 42.8169C182.428 42.6122 184.082 43.9386 184.286 45.7725C184.491 47.6064 183.165 49.2603 181.331 49.4649C179.497 49.6696 177.843 48.3433 177.638 46.5094C177.434 44.6754 178.76 43.0216 180.594 42.8169ZM115.833 5.2703C116.038 7.10424 114.711 8.75806 112.877 8.96274C111.044 9.16742 109.39 7.84109 109.185 6.00715C108.98 4.17321 110.307 2.51939 112.141 2.31471C113.975 2.11003 115.628 3.43636 115.833 5.2703ZM50.2943 63.4242C50.7201 67.2312 47.961 70.678 44.1539 71.1038C40.3469 71.5295 36.9 68.7704 36.4743 64.9634C36.0486 61.1563 38.8077 57.7095 42.6147 57.2837C46.4218 56.858 49.8686 59.6171 50.2943 63.4242ZM87.9556 51.3234C87.0877 43.4801 92.7615 36.3899 100.605 35.5221C108.448 34.6543 115.538 40.328 116.406 48.1714C117.274 56.0147 111.6 63.1049 103.757 63.9727C95.9136 64.8406 88.8234 59.1668 87.9556 51.3234ZM107.736 169.76C107.941 171.594 106.614 173.248 104.78 173.452C102.946 173.657 101.293 172.331 101.088 170.497C100.883 168.663 102.21 167.009 104.043 166.804C105.877 166.6 107.531 167.926 107.736 169.76ZM135.04 163.873C131.233 164.299 127.786 161.54 127.361 157.733C126.935 153.926 129.694 150.479 133.501 150.053C137.308 149.627 140.755 152.387 141.181 156.194C141.606 160.001 138.847 163.448 135.04 163.873ZM165.726 177.251C167.56 177.046 169.214 178.373 169.418 180.207C169.623 182.041 168.297 183.695 166.463 183.899C164.629 184.104 162.975 182.778 162.77 180.944C162.566 179.11 163.892 177.456 165.726 177.251ZM156.818 113.505C157.4 118.721 153.625 123.428 148.41 124.01C143.195 124.591 138.487 120.817 137.906 115.601C137.325 110.386 141.099 105.678 146.314 105.097C151.529 104.516 156.237 108.29 156.818 113.497V113.505ZM186.89 92.0876C186.464 88.2806 189.223 84.8338 193.03 84.408C196.838 83.9823 200.284 86.7414 200.71 90.5484C201.136 94.3555 198.377 97.8023 194.57 98.2281C190.763 98.6538 187.316 95.8947 186.89 92.0876ZM239.043 100.095C238.838 98.2608 240.164 96.607 241.998 96.4023C243.832 96.1976 245.486 97.524 245.691 99.3579C245.895 101.192 244.569 102.846 242.735 103.05C240.901 103.255 239.247 101.929 239.043 100.095Z" fill="#407BFF"/>
<g opacity="0.7">
<path d="M241.818 94.7727C239.837 94.9937 238.257 96.3528 237.651 98.1294L202.356 92.12C202.413 91.5469 202.405 90.9656 202.339 90.3761C201.815 85.6685 197.558 82.2626 192.85 82.7866C192.629 82.8111 192.416 82.8521 192.204 82.893C189.772 74.321 185.965 60.8366 183.091 50.6517C184.958 49.7675 186.161 47.7698 185.924 45.6002C185.621 42.8739 183.157 40.8925 180.422 41.1955C177.696 41.4984 175.714 43.9628 176.017 46.6973C176.32 49.4236 178.785 51.4049 181.519 51.102C182.747 55.4576 184.663 62.253 186.587 69.0484C188.036 74.1654 189.477 79.2743 190.64 83.3515C187.136 84.7433 184.835 88.3457 185.269 92.2756C185.359 93.0779 185.564 93.8393 185.85 94.5516L156.958 108.896C154.788 105.244 150.629 102.993 146.142 103.492C144.513 103.672 143.015 104.204 141.688 104.99L111.952 62.3431C116.185 59.0436 118.666 53.7137 118.035 48.0072C117.307 41.4083 112.624 36.1931 106.614 34.4492L112.19 10.6244C112.476 10.6407 112.763 10.6407 113.066 10.608C115.792 10.3051 117.773 7.84071 117.471 5.10618C117.168 2.37165 114.703 0.398526 111.969 0.701454C109.234 1.00438 107.261 3.46874 107.564 6.20327C107.769 8.06177 108.98 9.56822 110.601 10.2478L105.026 34.0726C103.544 33.8024 102.005 33.7369 100.433 33.9088C91.689 34.8749 85.3684 42.7838 86.3427 51.5196C86.3918 51.9371 86.4655 52.3547 86.5474 52.764L51.5061 61.3688C50.2125 57.6764 46.5037 55.212 42.4592 55.6623C37.7515 56.1863 34.3456 60.4355 34.8696 65.1513C35.3936 69.8589 39.6428 73.2648 44.3586 72.7409C49.0663 72.2169 52.4721 67.9595 51.9482 63.26C51.94 63.1618 51.9154 63.0636 51.899 62.9653L86.9404 54.3605C89.11 61.5898 96.2001 66.4858 103.962 65.618C106.418 65.3478 108.669 64.5127 110.626 63.2846L140.362 105.932C137.521 108.249 135.875 111.9 136.301 115.806C136.776 120.055 139.592 123.485 143.326 124.951L136.031 148.571C135.171 148.391 134.263 148.342 133.346 148.44C128.638 148.964 125.232 153.221 125.756 157.929C125.822 158.535 125.953 159.124 126.141 159.681L108.596 167.418C107.597 165.903 105.812 164.986 103.888 165.199C101.162 165.502 99.1803 167.966 99.4832 170.701C99.7861 173.436 102.25 175.409 104.985 175.106C107.72 174.803 109.693 172.338 109.39 169.604C109.365 169.367 109.316 169.145 109.259 168.924L126.804 161.187C128.441 164.102 131.716 165.92 135.245 165.527C137.415 165.289 139.306 164.241 140.665 162.735L161.69 178.332C161.256 179.175 161.059 180.141 161.166 181.148C161.469 183.874 163.933 185.856 166.668 185.553C169.394 185.25 171.375 182.785 171.072 180.051C170.769 177.316 168.305 175.343 165.57 175.646C164.432 175.769 163.434 176.277 162.664 177.013L141.639 161.409C142.581 159.845 143.047 157.978 142.835 156.03C142.474 152.82 140.387 150.217 137.603 149.054L144.898 125.426C146.085 125.704 147.338 125.794 148.623 125.655C154.731 124.975 159.152 119.457 158.472 113.341C158.358 112.293 158.087 111.295 157.703 110.361L186.628 96.0008C188.347 98.637 191.442 100.234 194.774 99.8651C198.319 99.4721 201.128 96.9587 202.069 93.7329L237.413 99.7505C237.413 99.9224 237.422 100.103 237.446 100.283C237.749 103.017 240.213 104.99 242.948 104.687C245.674 104.384 247.656 101.92 247.353 99.1856C247.05 96.4592 244.585 94.4779 241.851 94.7809L241.818 94.7727ZM180.594 42.8165C182.428 42.6119 184.082 43.9382 184.286 45.7721C184.491 47.6061 183.165 49.2599 181.331 49.4646C179.497 49.6693 177.843 48.3429 177.638 46.509C177.434 44.675 178.76 43.0212 180.594 42.8165ZM115.833 5.26993C116.038 7.10386 114.711 8.75768 112.877 8.96237C111.044 9.16705 109.39 7.84071 109.185 6.00678C108.98 4.17284 110.307 2.51902 112.141 2.31434C113.975 2.10966 115.628 3.43599 115.833 5.26993ZM50.2943 63.4238C50.7201 67.2309 47.961 70.6777 44.1539 71.1034C40.3469 71.5291 36.9 68.7701 36.4743 64.963C36.0486 61.1559 38.8077 57.7091 42.6147 57.2834C46.4218 56.8576 49.8686 59.6167 50.2943 63.4238ZM87.9556 51.3231C87.0877 43.4797 92.7615 36.3896 100.605 35.5217C108.448 34.6539 115.538 40.3276 116.406 48.171C117.274 56.0144 111.6 63.1045 103.757 63.9723C95.9136 64.8402 88.8234 59.1664 87.9556 51.3231ZM107.736 169.759C107.941 171.593 106.614 173.247 104.78 173.452C102.946 173.657 101.293 172.33 101.088 170.496C100.883 168.662 102.21 167.009 104.043 166.804C105.877 166.599 107.531 167.926 107.736 169.759ZM135.04 163.873C131.233 164.299 127.786 161.54 127.361 157.732C126.935 153.925 129.694 150.479 133.501 150.053C137.308 149.627 140.755 152.386 141.181 156.193C141.606 160 138.847 163.447 135.04 163.873ZM165.726 177.251C167.56 177.046 169.214 178.372 169.418 180.206C169.623 182.04 168.297 183.694 166.463 183.899C164.629 184.104 162.975 182.777 162.77 180.943C162.566 179.109 163.892 177.455 165.726 177.251ZM156.818 113.505C157.4 118.72 153.625 123.428 148.41 124.009C143.195 124.591 138.487 120.816 137.906 115.601C137.325 110.386 141.099 105.678 146.314 105.097C151.529 104.515 156.237 108.29 156.818 113.497V113.505ZM186.89 92.0873C186.464 88.2802 189.223 84.8334 193.03 84.4077C196.838 83.9819 200.284 86.741 200.71 90.5481C201.136 94.3551 198.377 97.8019 194.57 98.2277C190.763 98.6534 187.316 95.8943 186.89 92.0873ZM239.043 100.094C238.838 98.2604 240.164 96.6066 241.998 96.4019C243.832 96.1973 245.486 97.5236 245.691 99.3575C245.895 101.191 244.569 102.845 242.735 103.05C240.901 103.255 239.247 101.928 239.043 100.094Z" fill="white"/>
</g>
<path d="M251.659 187.452H198.548C195.265 187.452 192.826 184.791 193.12 181.5L206.842 24.657C207.129 21.3739 210.027 18.7048 213.318 18.7048H266.429C269.72 18.7048 272.152 21.3657 271.857 24.657L258.135 181.5C257.849 184.791 254.95 187.452 251.659 187.452Z" fill="#407BFF"/>
<path opacity="0.6" d="M251.659 187.452H198.548C195.265 187.452 192.826 184.791 193.12 181.5L206.842 24.657C207.129 21.3739 210.027 18.7048 213.318 18.7048H266.429C269.72 18.7048 272.152 21.3657 271.857 24.657L258.135 181.5C257.849 184.791 254.95 187.452 251.659 187.452Z" fill="white"/>
<path d="M245.936 187.452H192.825C189.534 187.452 187.103 184.791 187.397 181.5L201.119 24.657C201.406 21.3739 204.304 18.7048 207.595 18.7048H260.706C263.989 18.7048 266.429 21.3657 266.134 24.657L252.412 181.5C252.125 184.791 249.227 187.452 245.936 187.452Z" fill="#407BFF"/>
<path opacity="0.8" d="M245.936 187.452H192.825C189.534 187.452 187.103 184.791 187.397 181.5L201.119 24.657C201.406 21.3739 204.304 18.7048 207.595 18.7048H260.706C263.989 18.7048 266.429 21.3657 266.134 24.657L252.412 181.5C252.125 184.791 249.227 187.452 245.936 187.452Z" fill="white"/>
<path d="M263.964 24.3484L250.218 181.486C250.103 182.779 249.301 183.786 248.4 183.786H190.828C190.001 183.786 189.469 182.87 189.567 181.682L203.346 24.1601C203.436 23.1285 204.042 22.2279 204.754 22.2279H219.147C219.557 22.2279 219.892 22.6127 219.991 23.1613L220.4 25.2818C220.506 25.8303 220.842 26.2069 221.243 26.2069H245.748C246.157 26.2069 246.558 25.8467 246.755 25.2982L247.541 23.1695C247.737 22.6209 248.146 22.2279 248.548 22.2279H262.736C263.522 22.2279 264.062 23.2104 263.964 24.3484Z" fill="#263238"/>
<path d="M263.293 32.0569L261.614 51.2478L261.533 52.1566L260.19 67.524L260.141 68.0889L259.928 70.5041L259.453 75.9486L259.085 80.1159L259.036 80.6809L258.724 84.2914L258.233 89.9079L257.259 101.059L257.177 101.959L251.495 166.892H190.869L202.666 32.0569H263.293Z" fill="#407BFF"/>
<path opacity="0.6" d="M209.65 28.5668H210.395L210.518 27.1259H209.773L209.65 28.5668Z" fill="white"/>
<path opacity="0.6" d="M208.422 28.5692H209.176L209.339 26.6534H208.594L208.422 28.5692Z" fill="white"/>
<path opacity="0.6" d="M207.202 28.5686H207.955L208.168 26.1698H207.415L207.202 28.5686Z" fill="white"/>
<path opacity="0.6" d="M205.982 28.568H206.736L206.989 25.6861H206.236L205.982 28.568Z" fill="white"/>
<path opacity="0.6" d="M256.776 28.0458H256.334L256.457 26.6049H256.907L256.776 28.0458Z" fill="white"/>
<path opacity="0.6" d="M257.038 28.5692H260.575L260.796 26.0803H257.259L257.038 28.5692Z" fill="white"/>
<path opacity="0.6" d="M233.802 22.4443C233.745 23.1075 233.327 23.6479 232.869 23.6479C232.41 23.6479 232.083 23.1075 232.14 22.4443C232.198 21.7812 232.615 21.2408 233.074 21.2408C233.532 21.2408 233.86 21.7812 233.802 22.4443Z" fill="#263238"/>
<path opacity="0.6" d="M235.489 22.4457C235.448 22.8714 235.186 23.2153 234.891 23.2153C234.596 23.2153 234.392 22.8714 234.424 22.4457C234.465 22.02 234.727 21.6761 235.022 21.6761C235.317 21.6761 235.521 22.02 235.489 22.4457Z" fill="#263238"/>
<g opacity="0.2">
<path d="M261.614 51.2439L261.533 52.1527L260.19 67.5201L260.141 68.085L259.928 70.5003L259.453 75.9448L259.085 80.1121L259.036 80.677L258.724 84.2876L258.233 89.904L257.259 101.055L257.177 101.956H217.731V51.2439H261.614Z" fill="black"/>
</g>
<g opacity="0.2">
<path d="M261.532 52.1532L260.19 67.5206L260.141 68.0855L259.928 70.5007L259.453 75.9452L259.084 80.1125L259.035 80.6775L258.724 84.288L258.233 89.9045L257.259 101.055H218.631V52.1532H261.532Z" fill="white"/>
</g>
<path opacity="0.2" d="M255.408 80.6793V84.2899H258.724L258.233 89.9063H250.357V84.2899H254.844V80.1144H259.085L259.035 80.6793H255.408Z" fill="black"/>
<path opacity="0.2" d="M255.851 70.5012H259.928L259.453 75.9457H255.851V70.5012Z" fill="black"/>
<path opacity="0.2" d="M260.19 67.5204L260.141 68.0853H251.364L249.293 70.1567L247.229 68.0853H234.073V71.655H242.857V78.9252H234.073V87.0961H238.821V92.4096H228.751V87.0961H233.508V78.9252H227.089V71.655H233.508V67.5204H247.581L249.014 66.0876V63.4923H242.014V58.4735H256.571V63.4923H249.579V66.0876L251.012 67.5204H260.19Z" fill="black"/>
<path d="M207.939 68.2908C207.939 68.2908 203.755 70.6242 206.064 75.995C206.064 75.995 202.994 78.2301 204.328 82.8477C205.663 87.4653 208.414 87.5963 208.414 87.5963C208.414 87.5963 206.613 90.8466 207.791 94.7683C208.889 98.3952 212.049 98.8947 212.049 98.8947C212.049 98.8947 209.126 104.446 213.989 108.212C224.207 116.129 237.568 110.995 241.695 107.368C248.007 101.826 244.994 96.2502 244.994 96.2502C244.994 96.2502 247.966 92.2057 242.186 85.6068C242.186 85.6068 245.649 80.6208 240.54 74.7014C240.54 74.7014 243.046 66.5551 233.941 64.5165C233.941 64.5165 232.705 60.6194 228.824 59.5469C223.765 58.1468 221.857 60.6194 221.857 60.6194C215.013 58.3106 213.482 62.8381 213.482 62.8381C213.482 62.8381 207.628 62.7644 207.931 68.2826L207.939 68.2908Z" fill="#263238"/>
<path d="M214.112 108.802C214.112 109.981 214.088 111.004 214.022 112.093C213.965 113.166 213.883 114.23 213.785 115.286C213.588 117.407 213.277 119.519 212.925 121.623C212.197 125.831 211.165 130.015 209.634 134.084L209.347 134.845C209.241 135.116 209.2 135.279 208.963 135.803C208.57 136.688 207.866 137.588 207.006 138.219C206.154 138.865 205.221 139.185 204.394 139.365C203.559 139.537 202.806 139.561 202.11 139.537C200.718 139.463 199.531 139.201 198.401 138.865C197.279 138.53 196.231 138.12 195.208 137.686C191.18 135.861 187.635 133.658 184.229 131.063L186.145 128.05C187.921 128.902 189.78 129.753 191.614 130.514C193.44 131.3 195.298 131.996 197.124 132.537C198.917 133.085 200.808 133.486 202.175 133.429C202.855 133.413 203.232 133.167 203.117 133.167C203.076 133.167 203.027 133.233 203.035 133.167C203.011 133.224 203.117 132.889 203.182 132.676L203.395 131.98C204.525 128.271 205.287 124.407 205.884 120.51C206.171 118.561 206.367 116.588 206.556 114.623C206.646 113.641 206.727 112.658 206.777 111.676C206.834 110.71 206.883 109.678 206.908 108.81H214.112V108.802Z" fill="#E9B376"/>
<path d="M208.602 100.561C205.761 101.51 204.599 113.57 204.599 113.57L212.974 118.417C212.974 118.417 219.753 105.841 217.289 102.82C214.726 99.6765 212.745 99.1771 208.602 100.561Z" fill="#407BFF"/>
<g opacity="0.7">
<path d="M208.602 100.561C205.761 101.51 204.599 113.57 204.599 113.57L212.974 118.417C212.974 118.417 219.753 105.841 217.289 102.82C214.726 99.6763 212.745 99.1769 208.602 100.561Z" fill="white"/>
</g>
<path opacity="0.2" d="M209.053 103.203L207.702 115.377L212.409 118.087L209.053 103.203Z" fill="black"/>
<path d="M186.038 131.606L177.45 131.148L182.116 125.719C182.116 125.719 186.546 126.653 187.364 129.461L186.038 131.614V131.606Z" fill="#EBB376"/>
<path d="M172.988 128.396L176.598 124.417L182.117 125.711L177.45 131.147L172.988 128.396Z" fill="#EBB376"/>
<path d="M243.57 140.645C238.06 141.046 226.36 141.897 215.037 142.716C205.336 101.985 208.602 100.56 208.602 100.56C208.602 100.56 209.65 100.265 211.255 99.8559C213.58 99.2664 217.084 98.4395 220.343 97.8991C224.535 97.2032 228.481 97.0722 233.303 96.9576C236.406 96.8757 239.493 97.064 241.785 97.2605C244.045 97.457 245.535 97.6699 245.535 97.6699C241.711 121.904 242.252 129.068 243.57 140.645Z" fill="#407BFF"/>
<g opacity="0.7">
<path d="M242.89 118.891C242.236 127.905 242.751 133.415 243.578 140.645C238.068 141.046 226.369 141.897 215.046 142.716C205.344 101.984 208.611 100.56 208.611 100.56C208.611 100.56 209.659 100.265 211.263 99.8558C213.588 99.2663 217.093 98.4394 220.351 97.8991C224.543 97.2032 228.489 97.0722 233.311 96.9575C236.414 96.8757 239.501 97.064 241.793 97.2605C244.053 97.457 245.543 97.6698 245.543 97.6698C244.7 103 244.069 107.503 243.611 111.408C243.292 114.175 243.054 116.648 242.89 118.891Z" fill="white"/>
</g>
<path d="M249.178 166.892C248.261 156.2 247.049 146.719 243.57 140.644L222.57 142.167L215.037 142.715C215.037 142.715 214.726 153.26 214.554 166.884H249.178V166.892Z" fill="#263238"/>
<path opacity="0.2" d="M249.178 166.892C248.261 156.2 247.049 146.719 243.57 140.644L222.57 142.167L215.037 142.715C215.037 142.715 214.726 153.26 214.554 166.884H249.178V166.892Z" fill="white"/>
<path d="M229.316 83.2845C228.8 87.5091 228.538 95.2133 231.657 97.7759C231.657 97.7759 230.822 102.091 223.077 102.647C214.562 103.27 218.697 98.7174 218.697 98.7174C223.265 97.2683 222.897 93.8297 221.849 90.653L229.308 83.2845H229.316Z" fill="#EBB376"/>
<path opacity="0.2" d="M226.279 86.2912L221.866 90.6469C222.12 91.4001 222.324 92.1697 222.431 92.9147C224.191 92.5299 226.483 90.4012 226.541 88.5264C226.565 87.593 226.467 86.7006 226.279 86.2831V86.2912Z" fill="black"/>
<path d="M229.128 73.0917C229.938 80.0344 230.429 82.9573 227.597 87.1082C223.331 93.3469 214.628 92.8229 211.754 86.2649C209.175 80.3619 208.283 69.9969 214.514 66.0588C220.654 62.1781 228.317 66.1571 229.128 73.0998V73.0917Z" fill="#EBB376"/>
<path d="M210.199 68.9053C209.127 72.6796 234.114 76.2574 229.562 69.9369C225.01 63.6163 212.999 59.0479 210.199 68.9053Z" fill="#263238"/>
<path d="M223.47 72.255C224.084 75.5544 229.537 77.7568 229.537 77.7568C229.537 77.7568 233.409 71.9602 229.34 71.0842C225.271 70.2082 223.478 72.255 223.478 72.255H223.47Z" fill="#263238"/>
<path d="M218.075 77.0261C218.173 77.5828 217.96 78.0904 217.592 78.1559C217.223 78.2214 216.847 77.8202 216.749 77.2635C216.65 76.7068 216.863 76.1992 217.232 76.1337C217.6 76.0682 217.977 76.4693 218.075 77.0261Z" fill="#263238"/>
<path d="M211.755 78.1682C211.853 78.7249 211.64 79.2325 211.272 79.298C210.903 79.3635 210.526 78.9623 210.428 78.4056C210.33 77.8489 210.543 77.3413 210.911 77.2758C211.28 77.2103 211.656 77.6115 211.755 78.1682Z" fill="#263238"/>
<path d="M211.083 77.2711L209.667 77.1237C209.667 77.1237 210.543 78.0488 211.083 77.2711Z" fill="#263238"/>
<path d="M214.309 78.6676C214.309 78.6676 213.793 81.2466 212.958 82.5975C213.818 83.1542 215.021 82.6138 215.021 82.6138L214.317 78.6676H214.309Z" fill="#D58745"/>
<path d="M232.116 79.0483C231.871 80.4729 230.987 81.66 229.996 82.3232C228.514 83.3302 227.204 82.1431 227.139 80.4483C227.081 78.9255 227.777 76.5594 229.496 76.2237C231.191 75.8962 232.395 77.4108 232.116 79.0401V79.0483Z" fill="#EBB376"/>
<path d="M220.384 75.2905C220.253 75.3396 220.097 75.2905 220.007 75.1759C219.082 73.9396 217.093 73.9887 217.068 73.9887C216.888 73.9887 216.732 73.8495 216.724 73.6694C216.724 73.4893 216.863 73.3338 217.043 73.3256C217.142 73.3256 219.401 73.2683 220.531 74.7747C220.646 74.9221 220.613 75.1349 220.466 75.2414C220.433 75.2659 220.408 75.2823 220.376 75.2905H220.384Z" fill="#263238"/>
<path d="M209.331 75.5867C209.225 75.6277 209.102 75.6031 209.004 75.5294C208.864 75.4066 208.848 75.202 208.963 75.0628C210.158 73.6546 211.689 73.8347 211.754 73.8429C211.935 73.8674 212.066 74.0312 212.041 74.2195C212.016 74.3996 211.853 74.5306 211.673 74.506C211.623 74.506 210.428 74.375 209.478 75.4967C209.438 75.5458 209.388 75.5786 209.331 75.5949V75.5867Z" fill="#263238"/>
<path d="M217.404 76.1364L215.987 75.989C215.987 75.989 216.863 76.9142 217.404 76.1364Z" fill="#263238"/>
<path d="M216.691 84.4895C217.543 85.1527 218.787 86.5854 218.787 86.5854C218.935 86.4954 219.09 86.4053 219.229 86.3071C221.235 85.0462 221.743 83.7936 221.71 82.7948C221.685 82.2462 221.489 81.7714 221.284 81.4111C221.047 80.9936 220.785 80.7479 220.785 80.7479C220.122 82.0497 218.345 83.376 217.363 84.0392C216.953 84.3258 216.683 84.4813 216.683 84.4813L216.691 84.4895Z" fill="#263238"/>
<path d="M217.371 84.0541L218.001 84.6599C219.884 83.4646 221.055 82.3757 221.284 81.426C221.047 81.0084 220.785 80.7628 220.785 80.7628C220.122 82.0646 218.345 83.3909 217.363 84.0541H217.371Z" fill="white"/>
<path d="M219.237 86.3176C221.243 85.0567 221.751 83.8041 221.718 82.8053C221.055 83.2637 220.302 83.886 219.769 84.6474C219.36 85.2287 219.237 85.81 219.237 86.3176Z" fill="#DE5753"/>
<path d="M243.881 138.941L244.798 141.438C244.913 141.626 244.692 141.847 244.364 141.872L214.997 144.009C214.743 144.025 214.513 143.919 214.489 143.755L214.047 141.217C214.014 141.045 214.227 140.873 214.513 140.857L243.406 138.752C243.619 138.736 243.816 138.81 243.889 138.933L243.881 138.941Z" fill="white"/>
<path d="M240.23 142.451L241.007 142.394C241.163 142.386 241.269 142.296 241.253 142.197L240.647 138.906C240.631 138.808 240.492 138.742 240.336 138.751L239.558 138.808C239.403 138.816 239.296 138.906 239.313 139.004L239.919 142.296C239.935 142.394 240.074 142.459 240.23 142.451Z" fill="#263238"/>
<path d="M217.191 144.122L217.968 144.064C218.124 144.056 218.23 143.966 218.214 143.868L217.608 140.576C217.592 140.478 217.453 140.413 217.297 140.421L216.519 140.478C216.364 140.486 216.257 140.576 216.274 140.675L216.879 143.966C216.896 144.064 217.035 144.13 217.191 144.122Z" fill="#263238"/>
<path d="M228.71 143.288L229.488 143.231C229.643 143.223 229.75 143.133 229.734 143.034L229.128 139.743C229.111 139.645 228.972 139.579 228.817 139.588L228.039 139.645C227.883 139.653 227.777 139.743 227.793 139.841L228.399 143.133C228.415 143.231 228.555 143.296 228.71 143.288Z" fill="#263238"/>
<g opacity="0.2">
<path d="M240.23 142.451L241.007 142.394C241.163 142.386 241.269 142.296 241.253 142.197L240.647 138.906C240.631 138.808 240.492 138.742 240.336 138.75L239.558 138.808C239.403 138.816 239.296 138.906 239.313 139.004L239.919 142.296C239.935 142.394 240.074 142.459 240.23 142.451Z" fill="white"/>
<path d="M217.191 144.121L217.968 144.064C218.124 144.056 218.23 143.966 218.214 143.868L217.608 140.576C217.592 140.478 217.453 140.413 217.297 140.421L216.519 140.478C216.364 140.486 216.257 140.576 216.274 140.675L216.879 143.966C216.896 144.064 217.035 144.13 217.191 144.121Z" fill="white"/>
<path d="M228.71 143.288L229.488 143.231C229.643 143.223 229.75 143.133 229.734 143.034L229.128 139.743C229.111 139.645 228.972 139.579 228.817 139.588L228.039 139.645C227.883 139.653 227.777 139.743 227.793 139.841L228.399 143.133C228.415 143.231 228.555 143.296 228.71 143.288Z" fill="white"/>
</g>
<path d="M236.971 131.944L229.717 134.236L232.468 127.621C232.468 127.621 236.963 127.13 238.617 129.545L236.971 131.944Z" fill="#EBB376"/>
<path d="M224.174 132.169L226.77 126.758L232.468 127.625L229.717 134.241L224.174 132.169Z" fill="#EBB376"/>
<path d="M241.785 97.2602C240.516 98.8649 238.183 101.452 234.957 103.581C234.703 103.753 234.441 103.916 234.171 104.08C231.109 105.939 227.318 107.322 222.922 107.118C218.877 106.938 216.233 106.004 214.497 104.825C214.235 104.645 213.998 104.465 213.777 104.277C211.926 102.721 211.402 100.92 211.255 99.8556C212.458 99.5526 213.981 99.176 215.627 98.8158C215.963 98.7421 216.298 98.6684 216.642 98.6029C217.862 98.3491 219.123 98.1035 220.343 97.8988C224.535 97.2029 228.481 97.0719 233.303 96.9573C233.655 96.9573 234.007 96.9409 234.351 96.9573C234.629 96.9491 234.908 96.9491 235.186 96.9491C237.634 96.9655 239.959 97.1128 241.785 97.2684V97.2602Z" fill="#EBB376"/>
<path d="M234.957 103.581C234.703 103.753 234.441 103.917 234.171 104.081C233.95 100.888 234.163 98.3662 234.351 96.9498C234.629 96.9417 234.908 96.9417 235.186 96.9417C235.014 98.2352 234.801 100.593 234.957 103.581Z" fill="#263238"/>
<path d="M216.642 98.6009C215.946 100.083 215.021 102.334 214.497 104.823C214.235 104.643 213.997 104.463 213.776 104.275C214.251 102.154 214.996 100.23 215.627 98.8138C215.962 98.7401 216.298 98.6664 216.642 98.6009Z" fill="#263238"/>
<path opacity="0.2" d="M243.611 111.41C243.292 114.177 243.054 116.649 242.89 118.893C240.459 115.921 239.321 110.648 239.321 110.648C240.983 110.239 242.424 110.607 243.611 111.41Z" fill="black"/>
<path d="M249.162 104.955C250.807 108.197 252.281 111.439 253.64 114.813C254.32 116.491 254.983 118.194 255.564 119.971C255.859 120.863 256.137 121.755 256.391 122.713C256.637 123.679 256.866 124.645 256.98 125.914L257.005 126.455V126.733L256.989 127.085C256.964 127.339 256.972 127.478 256.874 127.912C256.8 128.281 256.661 128.633 256.514 128.952C255.851 130.229 255.015 130.778 254.377 131.187C253.059 131.94 252.003 132.169 250.979 132.407C248.949 132.833 247.082 132.931 245.215 132.988C241.498 133.062 237.929 132.8 234.302 132.284L234.433 128.723C237.88 128.403 241.392 128.051 244.732 127.527C246.394 127.274 248.048 126.938 249.448 126.496C250.128 126.283 250.783 125.98 250.971 125.8C251.069 125.734 250.938 125.693 250.668 126.168C250.537 126.373 250.463 126.856 250.472 126.75V126.766L250.455 126.709L250.439 126.586C250.349 126.103 250.136 125.341 249.89 124.613C249.653 123.868 249.358 123.09 249.055 122.312C248.433 120.756 247.77 119.176 247.074 117.596C245.666 114.452 244.167 111.267 242.702 108.156L249.153 104.955H249.162Z" fill="#E9B376"/>
<path d="M245.535 97.668C248.457 98.3311 252.608 107.927 252.608 107.927L242.096 116.662C242.096 116.662 237.454 108.737 238.387 104.955C239.361 101.017 242.202 96.9147 245.543 97.668H245.535Z" fill="#407BFF"/>
<g opacity="0.7">
<path d="M245.535 97.6672C248.457 98.3304 252.608 107.926 252.608 107.926L242.096 116.662C242.096 116.662 237.454 108.736 238.387 104.954C239.361 101.016 242.202 96.914 245.543 97.6672H245.535Z" fill="white"/>
</g>
<g opacity="0.2">
<path d="M234.957 103.581C234.703 103.753 234.441 103.917 234.171 104.081C233.95 100.888 234.163 98.366 234.351 96.9496C234.629 96.9414 234.908 96.9414 235.186 96.9414C235.014 98.235 234.801 100.593 234.957 103.581Z" fill="white"/>
</g>
<g opacity="0.2">
<path d="M216.642 98.5995C215.946 100.081 215.021 102.333 214.497 104.822C214.235 104.642 213.997 104.462 213.776 104.273C214.251 102.153 214.996 100.229 215.627 98.8124C215.962 98.7387 216.298 98.665 216.642 98.5995Z" fill="white"/>
</g>
<path d="M124.904 130.86H3.61073C1.27738 130.86 -0.310946 132.751 0.0574791 135.084L13.8366 221.926C14.205 224.26 16.3992 226.151 18.7325 226.151H140.026C142.36 226.151 143.948 224.26 143.58 221.926L129.8 135.084C129.432 132.751 127.238 130.86 124.904 130.86Z" fill="#263238"/>
<path opacity="0.5" d="M124.904 130.86H3.61073C1.27738 130.86 -0.310946 132.751 0.0574791 135.084L13.8366 221.926C14.205 224.26 16.3992 226.151 18.7325 226.151H140.026C142.36 226.151 143.948 224.26 143.58 221.926L129.8 135.084C129.432 132.751 127.238 130.86 124.904 130.86Z" fill="white"/>
<path d="M125.723 130.86H4.42958C2.09622 130.86 0.507902 132.751 0.876327 135.084L14.6554 221.926C15.0239 224.26 17.218 226.151 19.5514 226.151H140.845C143.178 226.151 144.767 224.26 144.398 221.926L130.619 135.084C130.251 132.751 128.057 130.86 125.723 130.86Z" fill="#263238"/>
<path d="M141.484 219.26H16.7103L15.8424 213.766L14.7781 207.069L14.1558 203.172L13.3535 198.096L11.6014 187.043L11.3231 185.275L10.2587 178.578L9.64468 174.681L6.8119 156.841L5.73937 150.086L5.07621 145.894L3.29958 134.694C3.23408 134.277 3.29958 133.916 3.52064 133.671C3.71713 133.442 4.02824 133.319 4.42123 133.319H125.723C126.853 133.319 128.007 134.318 128.188 135.464L141.484 219.26Z" fill="#407BFF"/>
<path opacity="0.7" d="M141.484 219.26H16.7103L15.8424 213.766L14.7781 207.069L14.1558 203.172L13.3535 198.096L11.6014 187.043L11.3231 185.275L10.2587 178.578L9.64468 174.681L6.8119 156.841L5.73937 150.086L5.07621 145.894L3.29958 134.694C3.23408 134.277 3.29958 133.916 3.52064 133.671C3.71713 133.442 4.02824 133.319 4.42123 133.319H125.723C126.853 133.319 128.007 134.318 128.188 135.464L141.484 219.26Z" fill="white"/>
<path opacity="0.2" d="M88.4958 145.899V219.265H16.7102L15.8424 213.771L14.778 207.074L14.1558 203.177L13.3535 198.101L11.6014 187.048L11.323 185.279L10.2587 178.582L9.64464 174.685L6.81186 156.845L5.73934 150.091L5.07617 145.899H88.4958Z" fill="white"/>
<path opacity="0.2" d="M85.2863 150.092V174.686H9.64456L6.81178 156.846L5.73926 150.092H85.2863Z" fill="url(#paint0_linear_1_8577)"/>
<path opacity="0.2" d="M85.2865 178.585V203.18H14.1559L13.3536 198.104L11.6015 187.051L11.3231 185.282L10.2588 178.585H85.2865Z" fill="black"/>
<path opacity="0.2" d="M85.2862 207.071V219.262H16.71L15.8422 213.769L14.7778 207.071H85.2862Z" fill="black"/>
<g opacity="0.2">
<path d="M28.8519 154.068H24.0542V174.684H28.8519V154.068Z" fill="white"/>
<path d="M55.184 153.551L50.4561 154.366L53.9579 174.682L58.6859 173.867L55.184 153.551Z" fill="white"/>
<path d="M11.6015 156.792V174.689H9.64479L6.81201 156.849V156.792H11.6015Z" fill="white"/>
<path d="M22.6297 156.792H17.832V174.689H22.6297V156.792Z" fill="white"/>
<path d="M50.4501 156.792H45.6523V174.689H50.4501V156.792Z" fill="white"/>
<path d="M35.162 156.167L30.4785 157.208L34.3613 174.679L39.0448 173.638L35.162 156.167Z" fill="white"/>
<path d="M15.7524 153.049H13.3535V174.688H15.7524V153.049Z" fill="white"/>
<path d="M44.2768 153.049H41.8779V174.688H44.2768V153.049Z" fill="white"/>
<path d="M80.4889 203.18H85.2866V182.564H80.4889V203.18Z" fill="white"/>
<path d="M57.3029 203.18H62.1006V182.564H57.3029V203.18Z" fill="white"/>
<path d="M27.4751 202.361L32.2031 203.176L35.705 182.86L30.977 182.045L27.4751 202.361Z" fill="white"/>
<path d="M74.5529 203.169H79.3506V185.271H74.5529V203.169Z" fill="white"/>
<path d="M63.525 203.169H68.3228V185.271H63.525V203.169Z" fill="white"/>
<path d="M35.7047 203.169H40.5024V185.271H35.7047V203.169Z" fill="white"/>
<path d="M47.1286 202.135L51.812 203.176L55.6948 185.705L51.0114 184.664L47.1286 202.135Z" fill="white"/>
<path d="M70.4024 203.18H72.8013V181.541H70.4024V203.18Z" fill="white"/>
<path d="M41.878 203.18H44.2769V181.541H41.878V203.18Z" fill="white"/>
<path d="M22.6297 185.282H17.832V203.179H22.6297V185.282Z" fill="white"/>
<path d="M15.7524 181.539V203.178H14.1559L13.3535 198.102V181.539H15.7524Z" fill="white"/>
<path d="M54.1175 211.055H49.3198V219.266H54.1175V211.055Z" fill="white"/>
<path d="M81.9458 219.269H77.0744L75.7153 211.36L80.4394 210.541L81.9458 219.269Z" fill="white"/>
<path d="M36.8672 213.77H32.0776V219.264H36.8672V213.77Z" fill="white"/>
<path d="M47.8954 213.77H43.0977V219.264H47.8954V213.77Z" fill="white"/>
<path d="M75.7157 213.77H70.918V219.264H75.7157V213.77Z" fill="white"/>
<path d="M61.7726 219.268H56.8603L55.7305 214.2L60.4136 213.16L61.7726 219.268Z" fill="white"/>
<path d="M41.018 210.032H38.6191V219.267H41.018V210.032Z" fill="white"/>
<path d="M69.5424 210.032H67.1436V219.267H69.5424V210.032Z" fill="white"/>
<path d="M26.7725 219.269H21.9093L20.542 211.36L25.266 210.541L26.7725 219.269Z" fill="white"/>
<path d="M20.5418 213.77V219.264H16.7101L15.8423 213.77H20.5418Z" fill="white"/>
</g>
<path d="M88.6922 162.115C96.1425 168.37 105.992 175.304 115.939 175.82C115.956 175.82 115.956 175.853 115.956 175.861C115.956 175.886 115.988 175.918 116.136 175.861C116.43 175.755 117.036 175.19 117.569 174.355C121.335 167.838 122.325 159.241 123.545 151.594L129.325 151.586C129.939 157.677 129.882 163.523 128.998 169.622C128.007 176.778 124.487 186.398 115.604 186.374C108.628 186.595 102.005 184.392 96.0034 181.347C90.7635 178.669 86.0068 175.354 81.6266 171.481L80.6851 170.613L88.684 162.107L88.6922 162.115Z" fill="#E4997E"/>
<path d="M108.424 171.214L102.725 185.296C102.725 185.296 102.062 185.1 100.94 184.739C100.122 184.469 99.0492 184.101 97.8047 183.667C90.7719 181.194 79.3998 175.783 76.6817 171.402C72.629 164.877 78.8595 159.777 90.5836 161.856C95.6433 162.749 100.285 166.515 103.773 168.48C104.928 169.126 105.91 169.699 106.68 170.15C107.785 170.805 108.432 171.206 108.432 171.206L108.424 171.214Z" fill="#263238"/>
<path opacity="0.3" d="M77.0664 172.213C78.4746 169.233 82.6337 172.213 89.3472 172.794C92.3438 173.056 102.881 180.187 103.822 182.586L102.725 185.296C102.725 185.296 80.9881 178.779 77.0664 172.205V172.213Z" fill="black"/>
<path d="M127.483 154.969L135.04 150.311L128.45 144.891C128.45 144.891 122.063 150.401 123.357 152.693L127.483 154.969Z" fill="#E4997E"/>
<path d="M136.383 142.473L130.832 139.894L128.45 144.88L135.032 150.3L136.383 142.473Z" fill="#E4997E"/>
<path d="M53.4384 200.704C54.4126 207.753 54.9939 214.106 55.4115 219.264H97.8704C98.8938 180.907 88.1031 161.471 88.1031 161.471C88.1031 161.471 86.482 161.159 83.7638 160.881C81.6352 160.676 78.9743 160.488 76.2725 160.496C71.6222 160.529 64.0572 161.421 58.8419 162.175C55.8127 162.609 52.7506 163.28 50.3108 163.886C47.3716 164.606 45.333 165.229 45.333 165.229C45.6114 166.039 45.8734 166.833 46.1435 167.644C49.8114 179.008 52.0302 190.56 53.4384 200.704Z" fill="#263238"/>
<path opacity="0.3" d="M53.4384 200.707C52.0302 190.555 49.8114 179.003 46.1436 167.647C48.8617 167.147 53.5776 166.959 54.7729 171.315C56.0665 175.99 56.091 187.288 53.4384 200.707Z" fill="black"/>
<path d="M53.8474 175.64C49.7293 184.63 45.6766 194.266 43.9327 203.935C44.0064 203.239 43.4169 201.987 42.7701 201.667C42.6473 201.594 42.5573 201.585 42.5818 201.618C43.4333 202.126 44.7514 202.142 46.0368 202.257C51.9316 202.478 57.8919 201.594 63.9259 200.898L65.5142 206.457C58.2358 209.412 40.5432 215.962 34.8367 208.127C33.7314 206.653 33.2647 204.508 33.4449 202.805L33.6659 200.701C34.2718 195.347 35.6472 190.066 37.3174 184.99C39.0204 179.922 40.9689 175.124 43.4333 170.351L53.8393 175.64H53.8474Z" fill="#E4997E"/>
<path d="M56.8604 178.206C55.6241 183.503 53.3808 189.922 51.7106 194.417C51.2685 195.604 50.8592 196.668 50.5317 197.528C49.9422 199.035 49.5738 199.952 49.5738 199.952L33.2075 192.837C33.2075 192.837 33.3385 192.166 33.5841 191.036C33.7724 190.184 34.0181 189.063 34.3374 187.769C36.2122 180.147 40.2322 166.482 45.341 165.221C52.9797 163.346 59.1119 168.603 56.8604 178.206Z" fill="#263238"/>
<path d="M57.3354 142.583L62.3706 146.005L69.2315 150.672C69.1251 151.548 69.0677 152.432 69.0759 153.275C69.0677 156.755 70.2549 159.801 75.4374 160.513C75.4374 160.513 81.8316 163.919 72.9812 165.499C73.0058 166.064 73.0467 167.448 72.8175 168.405C71.7286 167.079 70.1976 166.195 69.6736 165.917C59.8981 166.678 58.1787 162.281 58.1787 162.281C61.6174 158.171 59.1694 148.085 57.3354 142.591V142.583Z" fill="#E4997E"/>
<path opacity="0.2" d="M69.2315 150.661C69.1251 151.537 69.0678 152.421 69.0759 153.265C66.6607 153.019 63.2548 150.8 62.6899 148.41C62.477 147.509 62.3706 146.633 62.3706 145.994L69.2315 150.661Z" fill="black"/>
<path d="M70.7707 121.508C74.717 122.851 77.8445 133.298 73.2515 136.049C68.6584 138.8 63.2958 118.954 70.7707 121.508Z" fill="#263238"/>
<path d="M54.6334 134.691C56.975 141.994 57.9656 146.374 62.6979 149.346C69.8126 153.824 78.1553 148.437 78.0571 140.659C77.967 133.659 74.16 122.901 66.1119 121.542C58.1867 120.208 52.2919 127.388 54.6334 134.691Z" fill="#E4997E"/>
<path d="M60.8065 124.877L59.693 118.401C58.0146 119.334 56.1971 119.842 54.486 119.621C46.5935 118.622 41.2226 124.189 45.2589 128.128C41.7957 130.084 44.3256 134.849 47.0929 137.772C50.9409 141.825 54.7561 143.528 57.0322 141.268C59.1363 139.942 58.686 132.213 57.6544 129.437C56.0906 125.262 60.8065 124.869 60.8065 124.869V124.877Z" fill="#263238"/>
<path d="M53.6675 142.639C55.1576 144.113 57.0816 144.882 58.6699 144.997C61.0606 145.169 61.3799 142.942 59.9799 140.952C58.719 139.159 55.9599 136.916 53.9131 137.669C51.8991 138.414 51.9646 140.952 53.6593 142.639H53.6675Z" fill="#E4997E"/>
<path d="M66.4722 134.297C66.6277 134.903 67.0698 135.32 67.471 135.23C67.8722 135.14 68.0687 134.584 67.9131 133.986C67.7576 133.38 67.3155 132.963 66.9143 133.053C66.5213 133.143 66.3166 133.699 66.4722 134.297Z" fill="#263238"/>
<path d="M73.333 132.802C73.4886 133.407 73.9307 133.825 74.3319 133.735C74.7249 133.645 74.9296 133.088 74.774 132.49C74.6184 131.885 74.1763 131.467 73.7752 131.557C73.374 131.647 73.1775 132.204 73.333 132.802Z" fill="#263238"/>
<path d="M71.2289 133.576C71.2289 133.576 73.4968 136.753 75.4371 138.095C74.6184 139.324 72.6698 139.266 72.6698 139.266L71.2207 133.576H71.2289Z" fill="#C9695F"/>
<path d="M63.7868 132.562C63.7295 132.562 63.664 132.562 63.6067 132.538C63.4184 132.456 63.3365 132.243 63.4184 132.055C64.2125 130.229 65.8909 129.967 65.9564 129.951C66.1447 129.901 66.3412 130.057 66.374 130.262C66.4067 130.458 66.2675 130.646 66.0629 130.671C65.9974 130.679 64.712 130.908 64.0897 132.341C64.0324 132.464 63.9178 132.546 63.7868 132.562Z" fill="#263238"/>
<path d="M75.691 129.817C75.5764 129.825 75.4536 129.784 75.3717 129.686C74.3074 128.408 72.9565 128.515 72.9401 128.515C72.7354 128.531 72.5635 128.384 72.5471 128.187C72.5308 127.991 72.6781 127.811 72.8746 127.794C72.9483 127.794 74.6267 127.655 75.9285 129.219C76.0595 129.374 76.0349 129.604 75.8793 129.735C75.822 129.784 75.7483 129.808 75.6829 129.817H75.691Z" fill="#263238"/>
<path d="M65.4076 206.528L73.1937 206.643L67.9047 198.497C67.9047 198.497 60.9947 199.643 61.8789 203.155L65.3994 206.537L65.4076 206.528Z" fill="#E4997E"/>
<path d="M78.1388 201.326L73.4475 194.817L67.9048 198.494L73.1937 206.64L78.1388 201.326Z" fill="#E4997E"/>
<path d="M54.1177 120.494C54.1177 120.494 59.0628 109.81 69.2313 111.48C69.2313 111.48 67.3237 111.996 66.5377 112.765C66.5377 112.765 75.298 111.603 78.3191 117.661L76.5916 116.753C76.5916 116.753 79.0642 121.771 76.5916 125.259L76.0267 123.589C76.0267 123.589 72.629 128.223 67.2009 127.191L69.0102 126.16C69.0102 126.16 59.7423 126.291 57.3434 124.039C54.9446 121.788 54.1259 120.494 54.1259 120.494H54.1177Z" fill="#263238"/>
<path opacity="0.4" d="M88.8479 175.649C88.4386 175.649 88.0783 175.854 87.8655 176.173L83.9028 175.191C83.8373 174.593 83.3379 174.135 82.7321 174.135C82.0771 174.135 81.5449 174.667 81.5449 175.322C81.5449 175.977 82.0771 176.509 82.7321 176.509C83.1414 176.509 83.5017 176.304 83.7145 175.985L87.6772 176.967C87.6853 177.049 87.7017 177.123 87.7263 177.197L85.5075 178.916C85.3274 178.801 85.1146 178.736 84.8771 178.736C84.2221 178.736 83.69 179.268 83.69 179.923C83.69 180.578 84.2221 181.11 84.8771 181.11C85.5321 181.11 86.0643 180.578 86.0643 179.923C86.0643 179.8 86.0397 179.677 86.007 179.571L88.2257 177.852C88.4058 177.966 88.6187 178.032 88.8561 178.032C89.5111 178.032 90.0433 177.5 90.0433 176.845C90.0433 176.19 89.5111 175.657 88.8561 175.657L88.8479 175.649Z" fill="white"/>
<path d="M74.2909 141.276C74.2909 141.276 71.8184 140.711 64.8838 140.711C65.6943 142.799 67.2171 144.502 70.7622 144.461C74.3155 144.428 74.2909 141.276 74.2909 141.276Z" fill="#263238"/>
<path d="M69.1168 142.817C70.8279 142.801 72.0724 143.194 72.9894 143.824C72.4818 144.193 71.7613 144.446 70.7706 144.455C69.0595 144.471 67.8232 144.086 66.9062 143.448C67.4139 143.079 68.1261 142.825 69.1168 142.817Z" fill="#A02724"/>
<path d="M73.9718 141.219C73.7753 141.661 73.5788 142.111 72.8829 142.25C71.4337 142.348 67.7413 141.939 66.7425 141.734C66.1039 141.628 65.5635 141.415 65.1787 140.711C70.5168 140.727 73.1285 141.079 73.9718 141.219Z" fill="white"/>
<path d="M157.031 234.005H25.012C21.5652 234.005 18.7651 231.213 18.7651 227.758V224.598C18.7651 223.648 19.5347 222.878 20.4845 222.878H212.745C213.695 222.878 214.464 223.648 214.464 224.598C214.464 225.457 213.826 226.186 212.974 226.301L157.244 233.988C157.162 233.997 157.088 234.005 157.006 234.005H157.031Z" fill="#263238"/>
<path opacity="0.5" d="M214.481 224.598C214.481 225.277 214.08 225.875 213.49 226.153C213.335 226.227 213.171 226.284 212.991 226.309L157.26 233.988C157.187 234.005 157.105 234.005 157.023 234.005H25.0121C21.5653 234.005 18.7734 231.213 18.7734 227.766V224.598C18.7734 223.648 19.543 222.878 20.4928 222.878H212.753C213.703 222.878 214.481 223.648 214.481 224.598Z" fill="white"/>
<path opacity="0.2" d="M56.2626 234.005H25.012C21.5652 234.005 18.7651 231.213 18.7651 227.758V224.598C18.7651 223.648 19.5347 222.878 20.4845 222.878H111.985C112.935 222.878 113.704 223.648 113.704 224.598C113.704 225.457 113.066 226.186 112.214 226.301L56.4837 233.988C56.4018 233.997 56.3281 234.005 56.2463 234.005H56.2626Z" fill="white"/>
<path opacity="0.2" d="M28.1721 226.978H24.758C24.5319 226.978 24.3486 227.161 24.3486 227.387V229.491C24.3486 229.717 24.5319 229.901 24.758 229.901H28.1721C28.3982 229.901 28.5814 229.717 28.5814 229.491V227.387C28.5814 227.161 28.3982 226.978 28.1721 226.978Z" fill="black"/>
<path opacity="0.2" d="M28.1719 226.978H26.0842C25.8581 226.978 25.6748 227.161 25.6748 227.387V229.491C25.6748 229.717 25.8581 229.901 26.0842 229.901H28.1719C28.398 229.901 28.5813 229.717 28.5813 229.491V227.387C28.5813 227.161 28.398 226.978 28.1719 226.978Z" fill="black"/>
<path opacity="0.2" d="M35.5651 226.978H32.1511C31.925 226.978 31.7417 227.161 31.7417 227.387V228.672C31.7417 228.899 31.925 229.082 32.1511 229.082H35.5651C35.7912 229.082 35.9745 228.899 35.9745 228.672V227.387C35.9745 227.161 35.7912 226.978 35.5651 226.978Z" fill="black"/>
<path opacity="0.2" d="M35.565 226.978H33.4772C33.2511 226.978 33.0679 227.161 33.0679 227.387V228.672C33.0679 228.899 33.2511 229.082 33.4772 229.082H35.565C35.7911 229.082 35.9743 228.899 35.9743 228.672V227.387C35.9743 227.161 35.7911 226.978 35.565 226.978Z" fill="black"/>
<path opacity="0.2" d="M41.3454 226.978H37.9313C37.7052 226.978 37.522 227.161 37.522 227.387V228.672C37.522 228.899 37.7052 229.082 37.9313 229.082H41.3454C41.5715 229.082 41.7548 228.899 41.7548 228.672V227.387C41.7548 227.161 41.5715 226.978 41.3454 226.978Z" fill="black"/>
<path opacity="0.2" d="M41.337 226.978H39.2492C39.0231 226.978 38.8398 227.161 38.8398 227.387V228.672C38.8398 228.899 39.0231 229.082 39.2492 229.082H41.337C41.563 229.082 41.7463 228.899 41.7463 228.672V227.387C41.7463 227.161 41.563 226.978 41.337 226.978Z" fill="black"/>
<path opacity="0.4" d="M214.481 224.598C214.481 225.277 214.08 225.875 213.49 226.153H112.722C113.311 225.875 113.712 225.277 113.712 224.598C113.712 223.648 112.943 222.878 111.993 222.878H212.753C213.703 222.878 214.481 223.648 214.481 224.598Z" fill="white"/>
<path d="M201.545 33.7597H161.542C157.907 33.7597 154.959 36.7068 154.959 40.3423V63.0536C154.959 66.6891 157.907 69.6362 161.542 69.6362H201.545C205.18 69.6362 208.127 66.6891 208.127 63.0536V40.3423C208.127 36.7068 205.18 33.7597 201.545 33.7597Z" fill="#407BFF"/>
<path d="M189.739 65.5347C189.739 65.5347 190.631 71.7324 201.094 79.4447C201.094 79.4447 196.141 72.4201 196.141 65.5347H189.739Z" fill="#407BFF"/>
<g opacity="0.7">
<path d="M201.545 33.7616H161.542C157.907 33.7616 154.959 36.7087 154.959 40.3441V63.0555C154.959 66.6909 157.907 69.638 161.542 69.638H201.545C205.18 69.638 208.127 66.6909 208.127 63.0555V40.3441C208.127 36.7087 205.18 33.7616 201.545 33.7616Z" fill="white"/>
<path d="M189.739 65.5365C189.739 65.5365 190.631 71.7342 201.094 79.4466C201.094 79.4466 196.141 72.422 196.141 65.5365H189.739Z" fill="white"/>
</g>
<path d="M164.694 38.8114L163.327 39.9576L165.276 42.7904L166.831 41.9225C167.65 42.7085 168.624 43.3553 169.713 43.7974L169.558 45.5658L172.939 46.1881L173.422 44.4769C174.601 44.4524 175.731 44.1986 176.779 43.7565L177.925 45.1237L180.758 43.1752L179.89 41.6196C180.676 40.8009 181.323 39.8266 181.765 38.7377L183.533 38.8933L184.155 35.5119L182.444 35.0289C182.42 33.8499 182.166 32.7201 181.724 31.6721L183.091 30.5259L181.142 27.6931L179.587 28.561C178.768 27.775 177.794 27.1282 176.705 26.6861L176.861 24.9177L173.479 24.2954L172.996 26.0066C171.817 26.0311 170.687 26.2849 169.639 26.727L168.493 25.3598L165.66 27.3083L166.528 28.8639C165.742 29.6826 165.095 30.6569 164.653 31.7458L162.885 31.5903L162.263 34.9716L163.974 35.4546C163.998 36.6336 164.252 37.7634 164.694 38.8114ZM168.632 34.3985C169.099 31.8768 171.522 30.2066 174.052 30.6733C176.574 31.14 178.244 33.5634 177.777 36.0932C177.311 38.6149 174.887 40.2851 172.358 39.8184C169.836 39.3517 168.166 36.9283 168.632 34.3985Z" fill="#407BFF"/>
<path opacity="0.6" d="M189.731 50.5766L192.154 51.0269L192.507 49.7989C193.35 49.7825 194.169 49.5942 194.922 49.2831L195.74 50.2655L197.771 48.8655L197.149 47.7439C197.714 47.1544 198.172 46.4585 198.491 45.6725L199.76 45.7871L200.211 43.3637L198.983 43.0116C198.966 42.1684 198.778 41.3496 198.467 40.5964L199.449 39.7777L198.049 37.7473L196.928 38.3695C196.338 37.8046 195.642 37.3461 194.856 37.0268L194.971 35.7578L192.547 35.3075L192.195 36.5355C191.352 36.5519 190.533 36.7402 189.78 37.0513L188.961 36.0689L186.931 37.4689L187.553 38.5905C186.988 39.18 186.53 39.8759 186.211 40.6619L184.942 40.5473L184.491 42.9707L185.719 43.3228C185.736 44.166 185.924 44.9848 186.235 45.738L185.253 46.5567L186.653 48.5871L187.774 47.9649C188.364 48.5298 189.06 48.9883 189.846 49.3076L189.731 50.5766ZM189.068 42.5613C189.404 40.7438 191.147 39.5484 192.957 39.8841C194.774 40.2198 195.97 41.9637 195.634 43.7731C195.298 45.5906 193.554 46.786 191.745 46.4503C189.928 46.1146 188.732 44.3707 189.068 42.5613Z" fill="#407BFF"/>
<path opacity="0.5" d="M171.072 56.0965C171.097 57.1035 171.309 58.0696 171.686 58.9702L170.515 59.9445L172.177 62.3679L173.512 61.6228C174.216 62.2942 175.043 62.8427 175.976 63.2275L175.845 64.7422L178.735 65.2743L179.153 63.8088C180.16 63.7843 181.126 63.5714 182.026 63.1948L183.001 64.3656L185.424 62.7035L184.679 61.369C185.35 60.6649 185.899 59.838 186.284 58.9047L187.798 59.0357L188.331 56.1456L186.865 55.728C186.841 54.721 186.628 53.7549 186.251 52.8543L187.422 51.88L185.76 49.4566L184.425 50.2017C183.721 49.5303 182.894 48.9818 181.961 48.597L182.092 47.0823L179.202 46.5501L178.784 48.0157C177.777 48.0402 176.811 48.2531 175.911 48.6297L174.936 47.4589L172.513 49.1209L173.258 50.4555C172.587 51.1596 172.038 51.9865 171.653 52.9198L170.139 52.7888L169.606 55.6789L171.072 56.0965ZM175.059 55.1959C175.46 53.0344 177.532 51.6099 179.693 52.011C181.855 52.4122 183.279 54.4836 182.878 56.645C182.477 58.8064 180.405 60.231 178.244 59.8298C176.083 59.4287 174.658 57.3573 175.059 55.1959Z" fill="#407BFF"/>
<path d="M84.1893 91.3261H25.5852C19.9524 91.3261 15.3921 86.7658 15.3921 81.133V13.2691C15.3921 7.63626 19.9524 3.07597 25.5852 3.07597H120.311C125.944 3.07597 130.504 7.63626 130.504 13.2691V81.133C130.504 86.7658 125.944 91.3261 120.311 91.3261H94.3743L85.7285 108.053" stroke="#407BFF" stroke-width="1.63745" stroke-miterlimit="10"/>
<path d="M88.5287 91.3254C88.5287 92.5289 87.5544 93.495 86.3591 93.495C85.1637 93.495 84.1895 92.5208 84.1895 91.3254C84.1895 90.1301 85.1637 89.1558 86.3591 89.1558C87.5544 89.1558 88.5287 90.1301 88.5287 91.3254Z" stroke="#407BFF" stroke-width="1.63745" stroke-miterlimit="10"/>
<path d="M86.7767 110.221C86.7767 111.424 85.8024 112.39 84.6071 112.39C83.4118 112.39 82.4375 111.416 82.4375 110.221C82.4375 109.025 83.4118 108.051 84.6071 108.051C85.8024 108.051 86.7767 109.025 86.7767 110.221Z" stroke="#407BFF" stroke-width="1.63745" stroke-miterlimit="10"/>
<path d="M117.241 12.078H28.6637C26.5114 12.078 24.7666 13.8228 24.7666 15.9751V77.4693C24.7666 79.6217 26.5114 81.3665 28.6637 81.3665H117.241C119.394 81.3665 121.138 79.6217 121.138 77.4693V15.9751C121.138 13.8228 119.394 12.078 117.241 12.078Z" fill="#407BFF"/>
<path opacity="0.6" d="M121.13 15.9833V77.4693C121.13 79.6226 119.386 81.3665 117.233 81.3665H28.6637C26.5105 81.3665 24.7666 79.6226 24.7666 77.4693V15.9833C24.7666 13.8219 26.5105 12.078 28.6637 12.078H117.233C119.386 12.078 121.13 13.8219 121.13 15.9833Z" fill="white"/>
<path opacity="0.2" d="M121.057 35.4928V35.0834H97.2318V12.5358H96.8224V35.0834H73.2023V12.5358H72.7929V35.0834H49.1728V12.5358H48.7634V35.0834H24.8403V35.4928H48.7634V58.1796H24.8403V58.589H48.7634V80.9073H49.1728V58.589H72.7929V80.9073H73.2023V58.589H96.8224V80.9073H97.2318V58.589H121.057V58.1796H97.2318V35.4928H121.057ZM49.1728 58.1796V35.4928H72.7929V58.1796H49.1728ZM96.8224 58.1796H73.2023V35.4928H96.8224V58.1796Z" fill="black"/>
<path d="M121.13 24.3119V77.4716C121.13 79.6248 119.386 81.3687 117.233 81.3687H28.6636H28.6718C28.8601 80.8775 35.197 65.5428 48.8042 65.5428C62.4113 65.5428 64.7037 46.8432 72.9483 46.8432C81.1928 46.8432 81.9706 58.1825 89.3964 58.1825C96.8222 58.1825 105.411 20.2347 121.13 24.3119Z" fill="#407BFF"/>
<path d="M51.0312 22.443C50.6055 22.2628 50.1716 22.0991 49.7458 21.9435C49.3037 21.8043 48.8534 21.6815 48.4113 21.5997C48.1821 21.5424 47.9528 21.5014 47.7318 21.4687C47.7236 21.4687 47.699 21.4687 47.6909 21.4605C47.2651 21.395 46.8312 21.3541 46.4055 21.3295C46.1598 21.3213 45.9142 21.3049 45.6686 21.3049C44.5306 21.3049 43.4171 21.4441 42.3446 21.7307C42.1317 21.788 41.9189 21.8535 41.706 21.919C41.5013 21.9845 41.2966 22.05 41.0756 22.1237C40.8709 22.1973 40.6662 22.2874 40.4615 22.3693C39.6919 22.6968 38.9469 23.1061 38.2428 23.581C38.0545 23.7038 37.8826 23.8184 37.7106 23.9494C37.5469 24.0804 37.375 24.2114 37.2112 24.3506C36.8837 24.6208 36.5726 24.8991 36.2697 25.2102C36.2369 25.243 36.2042 25.2757 36.1796 25.3085C36.1469 25.333 36.1223 25.3494 36.1059 25.3822C36.0077 25.4722 35.9258 25.5705 35.8276 25.6769C35.6884 25.8325 35.5492 25.988 35.4182 26.1518C35.2954 26.3073 35.1808 26.4465 35.058 26.5939C34.9188 26.774 34.7796 26.9705 34.6486 27.1752C34.5422 27.3389 34.4194 27.5108 34.3129 27.6828C34.1901 27.8793 34.0837 28.0758 33.9854 28.2641C33.8954 28.4196 33.8135 28.567 33.7398 28.7307C33.617 28.96 33.527 29.1892 33.4287 29.4267C33.3387 29.6232 33.265 29.8278 33.1913 30.0325C33.134 30.1553 33.093 30.2781 33.0603 30.4091C33.0193 30.5319 32.9702 30.6466 32.9375 30.7775C32.7574 31.3916 32.61 32.022 32.5117 32.6606C32.479 32.8653 32.4544 33.0863 32.4381 33.2992C32.4299 33.3647 32.4299 33.4384 32.4135 33.5039C32.3807 33.8641 32.3726 34.2326 32.3726 34.601C32.3726 35.9683 32.5772 37.2864 32.9702 38.5309C34.2556 42.7063 37.5551 45.9976 41.7224 47.2994C42.9832 47.676 44.3013 47.897 45.6768 47.897C47.0523 47.897 48.3622 47.6924 49.6067 47.2994C51.0558 46.8573 52.3985 46.1532 53.5857 45.2608C53.7903 45.1216 53.995 44.9578 54.1915 44.7941C54.3962 44.6221 54.5927 44.4584 54.7728 44.2701C54.9693 44.0982 55.1412 43.9099 55.3132 43.7297C55.4933 43.5414 55.6734 43.3531 55.8371 43.1566C56.3939 42.5017 56.8687 41.773 57.2781 41.0198C57.2945 40.987 57.319 40.9543 57.3436 40.9133C57.4173 40.8069 57.4828 40.6841 57.5401 40.5695C57.6629 40.3402 57.7693 40.1028 57.8758 39.8654C58.0559 39.4314 58.2196 38.9975 58.367 38.5554C58.4079 38.3999 58.4571 38.2607 58.4898 38.1133C58.5226 38.0151 58.5471 37.9332 58.5635 37.8349C58.5962 37.7367 58.6208 37.6384 58.629 37.5402C58.6536 37.5074 58.6536 37.4747 58.6536 37.4419C58.6781 37.3846 58.6863 37.3191 58.6945 37.27C58.7191 37.1472 58.7518 37.0326 58.76 36.9098C58.8009 36.7051 58.8337 36.5086 58.8582 36.3039C58.8664 36.2139 58.8828 36.1402 58.891 36.0665C58.891 36.0256 58.891 35.9928 58.8992 35.9601C58.9401 35.5016 58.9647 35.0595 58.9647 34.6092C58.9647 29.181 55.7143 24.4979 51.0476 22.443H51.0312ZM45.6522 42.9929C41.0183 42.9929 37.2685 39.235 37.2685 34.6092C37.2685 32.3331 38.1609 30.2863 39.6183 28.7799C39.6428 28.7717 39.651 28.7471 39.6592 28.7389C41.1902 27.1915 43.3107 26.2255 45.6522 26.2255C46.8639 26.2255 48.0183 26.4874 49.0418 26.9377C51.9892 28.2395 54.036 31.1869 54.036 34.6092C54.036 37.3601 52.7014 39.8081 50.6464 41.3391C49.2464 42.3788 47.5271 42.9929 45.6522 42.9929Z" fill="#407BFF"/>
<path d="M53.5612 45.2617C52.3741 46.1623 51.0314 46.8582 49.5904 47.3085C48.3378 47.7015 47.0197 47.9062 45.6524 47.9062C44.2851 47.9062 42.9588 47.6933 41.698 47.3085C37.547 45.9986 34.2558 42.6991 32.9458 38.5482C32.5528 37.2955 32.3481 35.9774 32.3481 34.6101C32.3481 34.2417 32.3563 33.8733 32.3891 33.5212C32.4055 33.4557 32.4055 33.3739 32.4136 33.3084C32.4382 33.0955 32.4546 32.8744 32.4873 32.6698C32.5856 32.0312 32.7248 31.4007 32.9131 30.7867C32.9458 30.6557 32.9867 30.5411 33.0277 30.4183C33.0604 30.2873 33.1096 30.1563 33.1587 30.0417C33.2406 29.837 33.3142 29.6241 33.3961 29.4358C33.4944 29.1902 33.5926 28.9691 33.7154 28.7399C33.7891 28.5761 33.8792 28.4288 33.961 28.2732C34.0593 28.0767 34.1657 27.8802 34.2885 27.6919C34.395 27.5118 34.5178 27.3399 34.6242 27.1761C34.7552 26.9715 34.8944 26.775 35.0336 26.5948C35.1564 26.4393 35.271 26.3001 35.3938 26.1527C35.5248 25.989 35.664 25.8252 35.8032 25.6697C35.8932 25.5632 35.9751 25.465 36.0733 25.3668L36.1552 25.2931H36.1634L39.6593 28.7399C39.6512 28.7481 39.643 28.7726 39.6184 28.7808C38.1529 30.2873 37.2687 32.3341 37.2687 34.6101C37.2687 39.2359 41.0184 43.002 45.6524 43.002C47.5273 43.002 49.2548 42.3798 50.6466 41.34L53.5612 45.2617Z" fill="white"/>
<path opacity="0.4" d="M51.0315 22.4407L49.0502 26.9355C48.0186 26.477 46.8724 26.2232 45.6607 26.2232C43.3192 26.2232 41.1987 27.1893 39.6677 28.7367C39.6595 28.7449 39.6431 28.7695 39.6267 28.7776L36.098 25.3718H36.0898L36.1635 25.2817C36.1963 25.2489 36.229 25.2162 36.2618 25.1916C36.5647 24.8887 36.8758 24.6103 37.2033 24.332C37.367 24.1928 37.539 24.0618 37.7027 23.9308C37.8747 23.7998 38.0466 23.6852 38.2349 23.5624C38.939 23.0875 39.684 22.67 40.4536 22.3507C40.6583 22.2606 40.863 22.1787 41.0677 22.105C41.2805 22.0314 41.4934 21.9659 41.6981 21.9004C41.911 21.8349 42.1238 21.7694 42.3367 21.7121C43.4092 21.4337 44.5227 21.2863 45.6607 21.2863C45.9063 21.2863 46.1519 21.2945 46.3976 21.3109C46.8315 21.3354 47.2654 21.3764 47.683 21.4419C47.6911 21.4501 47.7157 21.4501 47.7239 21.4501C47.9531 21.4828 48.1824 21.5238 48.4034 21.5811C48.8455 21.6711 49.2958 21.7857 49.7379 21.9249C50.1719 22.0805 50.6058 22.236 51.0233 22.4244L51.0315 22.4407Z" fill="white"/>
<path opacity="0.5" d="M58.9483 34.6101C58.9483 35.0686 58.9238 35.5107 58.8828 35.961C58.8746 35.9938 58.8746 36.0265 58.8746 36.0675C58.8665 36.1412 58.8501 36.223 58.8419 36.3049C58.8173 36.5096 58.7846 36.7061 58.7437 36.9108C58.7355 37.0336 58.7027 37.1482 58.6782 37.271C58.67 37.3365 58.6536 37.3938 58.6372 37.4429C58.6372 37.4757 58.6372 37.5084 58.6127 37.5412C58.6045 37.6394 58.5799 37.7377 58.5472 37.8359C58.5226 37.9342 58.5062 38.0242 58.4735 38.1143C58.4407 38.2698 58.3998 38.409 58.3507 38.5564C58.2115 38.9985 58.0477 39.4324 57.8594 39.8663C57.753 40.1038 57.6384 40.3412 57.5238 40.5704C57.4664 40.6933 57.4009 40.8079 57.3273 40.9143C56.9015 41.7167 56.3939 42.4617 55.8208 43.1576C55.6571 43.3541 55.4851 43.5506 55.2968 43.7307C55.1249 43.9108 54.9366 44.0991 54.7565 44.2711C54.5682 44.4594 54.3799 44.6149 54.1752 44.7951C53.9787 44.9588 53.774 45.1225 53.5693 45.2699V45.2454L50.6465 41.3237C52.7015 39.7927 54.036 37.3447 54.036 34.5938H58.9483V34.6101Z" fill="black"/>
<path d="M55.3867 28.7782L63.5412 22.908" stroke="white" stroke-width="0.818723" stroke-miterlimit="10"/>
<path d="M76.6817 19.4779H62.8371C62.4573 19.4779 62.1494 19.7858 62.1494 20.1656V26.3469C62.1494 26.7268 62.4573 27.0347 62.8371 27.0347H76.6817C77.0616 27.0347 77.3695 26.7268 77.3695 26.3469V20.1656C77.3695 19.7858 77.0616 19.4779 76.6817 19.4779Z" fill="white"/>
<path d="M56.2303 28.7811C56.2303 29.2477 55.8536 29.6243 55.3952 29.6243C54.9367 29.6243 54.5601 29.2477 54.5601 28.7811C54.5601 28.3144 54.9367 27.9378 55.3952 27.9378C55.8536 27.9378 56.2303 28.3144 56.2303 28.7811Z" fill="white"/>
<path opacity="0.5" d="M121.13 55.1777V77.4715C121.13 79.6247 119.386 81.3686 117.233 81.3686H28.6636H28.6718C29.0074 81.0084 34.3864 72.4936 42.9503 72.4936C49.7129 72.4936 50.1469 77.3405 58.244 77.5861C66.3412 77.8317 74.5366 61.5637 85.7449 61.5637C96.9532 61.5637 98.779 67.1474 106.77 67.4749C114.769 67.7942 121.13 55.1777 121.13 55.1777Z" fill="black"/>
</g>
<defs>
<linearGradient id="paint0_linear_1_8577" x1="5.73926" y1="162.389" x2="85.2863" y2="162.389" gradientUnits="userSpaceOnUse">
<stop stop-color="white"/>
<stop offset="1"/>
</linearGradient>
<clipPath id="clip0_1_8577">
<rect width="271.873" height="233.336" fill="white" transform="translate(0 0.664062)"/>
</clipPath>
</defs>
</svg>
